<!-- Generator: Adobe Illustrator 19.0.0, SVG Export Plug-In  -->
<svg version="1.1"
	 xmlns="http://www.w3.org/2000/svg" xmlns:xlink="http://www.w3.org/1999/xlink" xmlns:a="http://ns.adobe.com/AdobeSVGViewerExtensions/3.0/"
	 x="0px" y="0px" width="100.979px" height="22.778px" viewBox="0 0 100.979 22.778"
	 style="enable-background:new 0 0 100.979 22.778;" xml:space="preserve">
<defs>
</defs>
<g id="XMLID_15_">
	<circle id="XMLID_22_" style="fill:#ED810E;" cx="76.839" cy="11.399" r="11.108"/>
	<path id="XMLID_21_" d="M40.588,17.275c-3.386,0-6.131-2.745-6.131-6.131s2.745-6.131,6.131-6.131c2.143,0,4.028,1.1,5.124,2.766
		h5.512C49.809,3.271,45.598,0,40.623,0c-6.135,0-11.108,4.973-11.108,11.108s4.973,11.108,11.108,11.108
		c4.975,0,9.186-3.271,10.6-7.779h-5.466C44.669,16.143,42.761,17.275,40.588,17.275z"/>
	<rect id="XMLID_20_" x="22.368" y="0.758" width="5.132" height="20.781"/>
	<polygon id="XMLID_19_" points="15.284,0.758 10.363,11.216 5.442,0.758 0,0.758 10.363,22.778 20.726,0.758 	"/>
	<path id="XMLID_18_" d="M47.961,0.732c1.833,1.169,3.299,2.861,4.189,4.865h4.042v15.759h5.077V5.598h4.04
		c0.891-2.005,2.358-3.696,4.192-4.865H47.961z"/>
	<path id="XMLID_17_" d="M100.979,7.605c0-3.743-3.034-6.777-6.777-6.777h-10.06c1.849,1.288,3.342,3.051,4.302,5.113h5.25
		c1.111,0,1.779,0.699,1.779,1.56s-0.748,1.56-1.779,1.56H89.43c0.132,0.738,0.205,1.496,0.205,2.272
		c0,1.051-0.129,2.072-0.369,3.049h1.431l4.62,7.147h5.661l-4.808-7.439C98.953,13.247,100.979,10.663,100.979,7.605z"/>
	<path id="XMLID_16_" style="fill:#040000;" d="M88.443,16.72c-0.879,1.89-2.205,3.529-3.843,4.782h3.843V16.72z"/>
</g>
</svg>
