<!-- Generator: Adobe Illustrator 19.0.0, SVG Export Plug-In  -->
<svg version="1.1"
	 xmlns="http://www.w3.org/2000/svg" xmlns:xlink="http://www.w3.org/1999/xlink" xmlns:a="http://ns.adobe.com/AdobeSVGViewerExtensions/3.0/"
	 x="0px" y="0px" width="101.193px" height="65.747px" viewBox="0 0 101.193 65.747"
	 style="enable-background:new 0 0 101.193 65.747;" xml:space="preserve">
<defs>
</defs>
<g id="XMLID_15_">
	<path id="bucket_1_" style="fill:#497390;" d="M90.343,0v4.165L88.26,6.248v8.33h-8.33V6.643l-2.083-2.478V0H90.343z"/>
	<path id="mold_1_" style="fill:#497390;" d="M26.032,9.892h1.833v23.95h-1.812L26.032,9.892z M36.237,9.892v23.95h1.833V9.851
		L36.237,9.892z M32.03,31.01h3.79V12.621h-3.79V31.01z M28.094,31.01h3.478V12.621h-3.395L28.094,31.01z"/>
	<path id="machine_1_" style="fill:#497390;" d="M1.354,65.747h23.554l3.978-8.955c1.125-2.707,2.083-4.269,4.644-4.269h48.15
		c2.541,0,2.999,2.083,4.623,4.269l4.04,8.955h9.559V41.256H1.354V65.747z M6.56,46.629h14.412c0.922,0.044,1.646,0.806,1.645,1.729
		c0.001,0.919-0.727,1.674-1.645,1.708H6.56c-0.902-0.055-1.605-0.804-1.604-1.708C4.954,47.45,5.655,46.695,6.56,46.629z
		 M6.56,52.523h14.412c0.824-0.081,1.558,0.522,1.639,1.346c0.004,0.037,0.006,0.074,0.007,0.112
		c-0.02,0.839-0.717,1.504-1.556,1.483c-0.03-0.001-0.059-0.002-0.089-0.005H6.56c-0.838,0.046-1.556-0.596-1.602-1.434
		c-0.001-0.015-0.001-0.03-0.002-0.044c0.033-0.839,0.74-1.492,1.579-1.459C6.544,52.522,6.552,52.523,6.56,52.523z M4.769,59.5
		c0.011-0.901,0.745-1.624,1.645-1.624h14.37c0.897,0,1.624,0.727,1.624,1.624v0.167c0,0.897-0.727,1.624-1.624,1.624H6.414
		c-0.901,0-1.634-0.724-1.645-1.624V59.5z M8.559,39.319H0V4.478h8.559V39.319z M21.284,39.319h-3.27V4.478h3.27V39.319z
		 M26.032,39.319h-3.27V4.478h3.27V39.319z M41.319,39.319H38.07V4.478h3.249V39.319z M45.65,39.319h-3.874V4.478h3.874
		L45.65,39.319z M41.319,8.289H18.014V6.206h23.304V8.289z M41.319,37.445H18.014v-2.083h23.304V37.445z M23.492,27.032h-2.728
		V16.619h2.728L23.492,27.032z M78.222,17.452H46.004v-2.416h32.218V17.452z M78.222,29.427H46.004v-2.416h32.218V29.427z
		 M78.222,25.491H46.004v-6.498h32.218V25.491z M52.294,18.014l1.854,0.937l-3.769,7.477l-1.854-0.937L52.294,18.014z
		 M75.869,18.014l1.874,0.937l-3.77,7.456L72.12,25.47L75.869,18.014z M69.975,18.014l1.854,0.937l-3.749,7.477l-1.874-0.937
		L69.975,18.014z M64.081,18.014l1.854,0.937l-3.769,7.477l-1.854-0.937L64.081,18.014z M58.188,18.014l1.854,0.937l-3.769,7.477
		l-1.854-0.937L58.188,18.014z M101.193,39.278H78.285V15.036h22.909V39.278z M98.673,19.597h-8.976v7.997h8.976V19.597z
		 M92.425,28.761h-2.707v1.02h2.707V28.761z M95.549,28.761h-2.728v1.02h2.77L95.549,28.761z M98.673,28.761h-2.728v1.02h2.728
		V28.761z M92.425,30.093h-2.707v1.041h2.707V30.093z M95.549,30.093h-2.707v1.041h2.749L95.549,30.093z M98.673,30.093h-2.728
		v1.041h2.728V30.093z M92.425,31.447h-2.707v0.979h2.707V31.447z M95.549,31.447h-2.707v0.979h2.749L95.549,31.447z M98.673,31.447
		h-2.728v0.979h2.728V31.447z"/>
	<rect id="XMLID_17_" x="7.517" y="9.851" style="fill:#497390;" width="10.497" height="2.77"/>
	<rect id="XMLID_16_" x="7.517" y="31.041" style="fill:#497390;" width="10.497" height="2.77"/>
</g>
</svg>
