<!-- Generator: Adobe Illustrator 19.0.0, SVG Export Plug-In  -->
<svg version="1.1"
	 xmlns="http://www.w3.org/2000/svg" xmlns:xlink="http://www.w3.org/1999/xlink" xmlns:a="http://ns.adobe.com/AdobeSVGViewerExtensions/3.0/"
	 x="0px" y="0px" width="92.479px" height="82.157px" viewBox="0 0 92.479 82.157"
	 style="enable-background:new 0 0 92.479 82.157;" xml:space="preserve">
<defs>
</defs>
<g id="XMLID_15_">
	<path id="XMLID_16_" style="fill:#578DB5;" d="M16.427,57.448h49.302V53.75H16.427V57.448z M80.115,26.634v-8.146
		c0-1.138-0.923-2.061-2.061-2.061H69.85c-1.138,0-2.061,0.923-2.061,2.061v8.223c0,1.138,0.923,2.061,2.061,2.061h8.223
		c1.138-0.011,2.052-0.942,2.041-2.08v0V26.634z M4.102,28.753h8.223c1.138,0,2.061-0.923,2.061-2.061v-8.204
		c0-1.138-0.923-2.061-2.061-2.061h0H4.102c-1.138,0-2.061,0.923-2.061,2.061v8.223C2.052,27.842,2.971,28.753,4.102,28.753z
		 M39.018,32.913v6.047h4.121v-6.047h-4.102H39.018z M32.855,45.18v4.102h16.447V45.18L45.2,41.078h-8.223L32.855,45.18z
		 M4.102,14.309h8.223v-4.044H69.85v4.044h8.223v-4.044h2.041V7.703L73.606,0H8.57L2.061,7.703v2.561h2.041V14.309z M69.85,57.448
		h1.926V35.84c-0.143-2.22,1.224-4.258,3.332-4.969H69.85V57.448z M4.102,30.871v26.577h8.223V30.871H4.102z M65.729,18.488H16.485
		v8.223h18.43v4.102h12.325v-4.121h18.43v-8.204H65.729z M83.312,47.241c-1.138,0-2.061,0.923-2.061,2.061s0.923,2.061,2.061,2.061
		c1.138,0,2.061-0.923,2.061-2.061l0,0C85.373,48.164,84.45,47.241,83.312,47.241z M90.399,32.855H76.013
		c-1.365,0.299-2.265,1.603-2.061,2.985v26.962c-0.204,1.382,0.696,2.686,2.061,2.985h14.386c1.383-0.308,2.281-1.647,2.041-3.043
		V35.782c0.172-1.361-0.721-2.63-2.061-2.927L90.399,32.855z M80.115,61.627c-1.138,0-2.061-0.923-2.061-2.061
		c0-1.138,0.923-2.061,2.061-2.061c1.138,0,2.061,0.923,2.061,2.061l0,0C82.176,60.704,81.253,61.627,80.115,61.627z M79.191,49.302
		c0.045-1.805,1.264-3.369,3.004-3.852l1.117-2.234l1.117,2.234c2.177,0.628,3.432,2.902,2.804,5.078
		c-0.628,2.177-2.902,3.432-5.078,2.804C80.367,52.817,79.15,51.162,79.191,49.302z M86.278,61.627
		c-1.138,0-2.061-0.923-2.061-2.061c0-1.138,0.923-2.061,2.061-2.061c1.138,0,2.061,0.923,2.061,2.061l0,0
		C88.339,60.704,87.416,61.627,86.278,61.627z M88.339,41.078H78.055v-4.102h10.265v4.102H88.339z M71.834,62.744v-3.178H0v22.59
		h24.651l4.102-10.265h24.651l4.102,10.265H90.38V67.848H76.013c-2.561-0.253-4.433-2.535-4.18-5.096
		C71.834,62.749,71.834,62.747,71.834,62.744z M19.509,75.994H7.183c-0.569,0-1.03-0.461-1.03-1.03s0.461-1.03,1.03-1.03h12.325
		c0.569,0,1.03,0.461,1.03,1.03S20.078,75.994,19.509,75.994z M19.509,71.892H7.183c-0.569,0-1.03-0.461-1.03-1.03
		c0-0.569,0.461-1.03,1.03-1.03h12.325c0.569,0,1.03,0.461,1.03,1.03C20.539,71.431,20.078,71.892,19.509,71.892z M19.509,67.79
		H7.183c-0.569,0-1.03-0.461-1.03-1.03s0.461-1.03,1.03-1.03h12.325c0.569,0,1.03,0.461,1.03,1.03S20.078,67.79,19.509,67.79z"/>
</g>
</svg>
