<!-- Generator: Adobe Illustrator 19.0.0, SVG Export Plug-In  -->
<svg version="1.1"
	 xmlns="http://www.w3.org/2000/svg" xmlns:xlink="http://www.w3.org/1999/xlink" xmlns:a="http://ns.adobe.com/AdobeSVGViewerExtensions/3.0/"
	 x="0px" y="0px" width="92.479px" height="66.788px" viewBox="0 0 92.479 66.788"
	 style="enable-background:new 0 0 92.479 66.788;" xml:space="preserve">
<defs>
</defs>
<g id="XMLID_15_">
	<path id="XMLID_39_" style="fill:#618B68;" d="M2.151,66.788h20.627l3.5-7.821c0.978-2.385,1.838-3.754,4.067-3.754h42.368
		c2.248,0,2.639,1.779,4.067,3.754l3.5,7.821h8.388V45.281H2.151V66.788z M6.726,49.993h12.669c0.831,0,1.505,0.674,1.505,1.505
		c0,0.831-0.674,1.505-1.505,1.505H6.726c-0.832,0-1.506-0.674-1.506-1.505C5.22,50.667,5.894,49.993,6.726,49.993z M20.687,56.444
		c0,0.713-0.577,1.291-1.289,1.291h-0.001H6.726c-0.713,0-1.291-0.577-1.292-1.289c0-0.713,0.577-1.291,1.29-1.291h0.001h12.67
		C20.108,55.154,20.686,55.732,20.687,56.444z M5.181,61.333c0-0.788,0.639-1.427,1.427-1.427h12.63
		c0.788,0,1.427,0.639,1.427,1.427v0.137c0,0.788-0.639,1.427-1.427,1.427H6.589c-0.781-0.011-1.408-0.647-1.408-1.427V61.333z"/>
	<polygon id="XMLID_38_" style="fill:#618B68;" points="32.456,44.226 32.456,0 0,0 0,44.441 32.397,44.441 	"/>
	<path id="XMLID_22_" style="fill:#618B68;" d="M92.459,0.195L33.551,0.02v44.206h58.928V0.176L92.459,0.195z M69.506,6.784h16.071
		v7.43H69.506V6.784z M39.827,6.784h23.462v19.786H39.827V6.784z M46.005,37.128c-0.011,1.936-1.583,3.5-3.519,3.5v0.02
		c-1.944,0-3.519-1.576-3.519-3.519c0-1.944,1.576-3.519,3.519-3.519S46.005,35.185,46.005,37.128L46.005,37.128z M56.836,37.128
		c-0.011,1.936-1.583,3.5-3.519,3.5v0.02c-1.944,0-3.519-1.576-3.519-3.519c0-1.944,1.576-3.519,3.519-3.519
		S56.836,35.185,56.836,37.128L56.836,37.128z M67.668,37.128c-0.011,1.944-1.595,3.51-3.539,3.5h0l0.02,0.02
		c-1.944,0-3.519-1.576-3.519-3.519c0-1.944,1.576-3.519,3.519-3.519C66.092,33.609,67.668,35.185,67.668,37.128L67.668,37.128z
		 M73.446,22.578h-2.838c-0.607,0-1.1-0.492-1.1-1.1c0-0.607,0.492-1.1,1.1-1.1h2.838c0.607,0,1.1,0.492,1.1,1.1
		C74.546,22.085,74.053,22.578,73.446,22.578z M79.438,22.578H76.6c-0.607,0-1.1-0.492-1.1-1.1c0-0.607,0.492-1.1,1.1-1.1h2.838
		c0.607,0,1.1,0.492,1.1,1.1C80.538,22.085,80.045,22.578,79.438,22.578z M85.454,22.578h-2.838c-0.607,0-1.1-0.492-1.1-1.1
		c0-0.607,0.492-1.1,1.1-1.1h2.838c0.607,0,1.1,0.492,1.1,1.1C86.554,22.085,86.061,22.578,85.454,22.578z M73.446,26.292h-2.838
		c-0.607,0-1.1-0.492-1.1-1.1c0-0.607,0.492-1.1,1.1-1.1h2.838c0.607,0,1.1,0.492,1.1,1.1C74.546,25.8,74.053,26.292,73.446,26.292z
		 M79.438,26.292H76.6c-0.607,0-1.1-0.492-1.1-1.1c0-0.607,0.492-1.1,1.1-1.1h2.838c0.607,0,1.1,0.492,1.1,1.1
		C80.538,25.8,80.045,26.292,79.438,26.292z M85.454,26.292h-2.838c-0.607,0-1.1-0.492-1.1-1.1c0-0.607,0.492-1.1,1.1-1.1h2.838
		c0.607,0,1.1,0.492,1.1,1.1C86.554,25.8,86.061,26.292,85.454,26.292z M73.446,18.702h-2.838c-0.607,0-1.1-0.492-1.1-1.1
		c0-0.607,0.492-1.1,1.1-1.1h2.838c0.607,0,1.1,0.492,1.1,1.1C74.546,18.209,74.053,18.702,73.446,18.702z M79.438,18.702H76.6
		c-0.607,0-1.1-0.492-1.1-1.1c0-0.607,0.492-1.1,1.1-1.1h2.838c0.607,0,1.1,0.492,1.1,1.1
		C80.538,18.209,80.045,18.702,79.438,18.702z M85.454,18.702h-2.838c-0.607,0-1.1-0.492-1.1-1.1c0-0.607,0.492-1.1,1.1-1.1h2.838
		c0.607,0,1.1,0.492,1.1,1.1C86.554,18.209,86.061,18.702,85.454,18.702z"/>
	<g id="XMLID_16_">
		<defs>
			<rect id="XMLID_17_" x="40.911" y="8.036" width="21.292" height="17.156"/>
		</defs>
		<clipPath id="XMLID_44_">
			<use xlink:href="#XMLID_17_"  style="overflow:visible;"/>
		</clipPath>
		<g id="XMLID_20_" style="clip-path:url(#XMLID_44_);">
			
				<rect id="XMLID_21_" x="53.152" y="3.128" transform="matrix(0.9146 0.4043 -0.4043 0.9146 11.7807 -20.5914)" style="fill:#618B68;" width="3" height="28.947"/>
		</g>
		<g id="XMLID_18_" style="clip-path:url(#XMLID_44_);">
			<polygon id="XMLID_19_" style="fill:#618B68;" points="59.225,31.444 53.401,30.231 65.113,3.759 70.936,4.972 			"/>
		</g>
	</g>
</g>
</svg>
