<!-- Generator: Adobe Illustrator 19.0.0, SVG Export Plug-In  -->
<svg version="1.1"
	 xmlns="http://www.w3.org/2000/svg" xmlns:xlink="http://www.w3.org/1999/xlink" xmlns:a="http://ns.adobe.com/AdobeSVGViewerExtensions/3.0/"
	 x="0px" y="0px" width="89.182px" height="86.909px" viewBox="0 0 89.182 86.909"
	 style="enable-background:new 0 0 89.182 86.909;" xml:space="preserve">
<defs>
</defs>
<g id="XMLID_15_">
	<path id="XMLID_34_" style="fill:#4B689B;" d="M15.029,12.81l21.077,5.118c0.904,0.218,1.538,1.004,1.538,1.906v6.932
		c0,1.085-0.908,1.964-2.028,1.964l-24.964,1.496c-0.689,0-1.332-0.339-1.705-0.901l-3.845-5.783
		c-0.509-0.766-0.408-1.771,0.245-2.427l7.732-7.764C13.583,12.848,14.326,12.641,15.029,12.81z"/>
	<circle id="XMLID_33_" style="fill:#4B689B;" cx="2.107" cy="9.55" r="2.107"/>
	<path id="XMLID_32_" style="fill:#4B689B;" d="M42.381,57.631l-1.871,4.666c-0.25,0.624,0.209,1.304,0.882,1.304h6.397
		c0.673,0,1.132-0.68,0.882-1.304l-1.871-4.666c-0.144-0.36-0.494-0.597-0.882-0.597h-2.656
		C42.875,57.034,42.525,57.27,42.381,57.631z"/>
	<path id="XMLID_31_" style="fill:#4B689B;" d="M46.769,12.537h-4.355c-2.182,0-3.968,1.785-3.968,3.968v11.463
		c0,2.182,1.785,3.968,3.968,3.968h4.355c2.182,0,3.968-1.785,3.968-3.968V16.504C50.736,14.322,48.951,12.537,46.769,12.537z"/>
	<path id="XMLID_30_" style="fill:#4B689B;" d="M74.204,12.81l-21.077,5.118c-0.904,0.218-1.538,1.004-1.538,1.906v6.932
		c0,1.085,0.908,1.964,2.028,1.964l24.964,1.496c0.689,0,1.332-0.339,1.705-0.901l3.845-5.783c0.509-0.766,0.408-1.771-0.245-2.427
		l-7.732-7.764C75.651,12.848,74.908,12.641,74.204,12.81z"/>
	<path id="XMLID_29_" style="fill:#4B689B;" d="M36.641,86.909"/>
	<path id="XMLID_28_" style="fill:#4B689B;" d="M29.181,86.909"/>
	<path id="XMLID_27_" style="fill:#4B689B;" d="M6.575,75.608v8.266c0,1.13,0.916,2.046,2.046,2.046h22.943
		c0.731,0,1.406-0.39,1.772-1.023l2.386-4.133c0.365-0.633,1.041-1.023,1.772-1.023h14.194c0.731,0,1.406,0.39,1.772,1.023
		l2.386,4.133c0.365,0.633,1.041,1.023,1.772,1.023h22.943c1.13,0,2.046-0.916,2.046-2.046v-8.266c0-1.13-0.916-2.046-2.046-2.046
		H8.621C7.491,73.562,6.575,74.478,6.575,75.608z"/>
	<path id="XMLID_26_" style="fill:#4B689B;" d="M44.591,4.989c-0.481,0-0.921-0.123-1.278-0.323v7.018h2.555V4.666
		C45.512,4.866,45.073,4.989,44.591,4.989z"/>
	<rect id="XMLID_25_" x="43.313" y="32.809" style="fill:#4B689B;" width="2.555" height="23.214"/>
	<circle id="XMLID_24_" style="fill:#4B689B;" cx="87.075" cy="9.625" r="2.107"/>
	<circle id="XMLID_23_" style="fill:#4B689B;" cx="44.656" cy="2.107" r="2.107"/>
	<polygon id="XMLID_22_" style="fill:#4B689B;" points="17.922,30.715 14.681,30.91 21.37,72.706 24.642,72.706 	"/>
	<polygon id="XMLID_21_" style="fill:#4B689B;" points="71.302,30.69 74.543,30.884 67.854,72.681 64.582,72.681 	"/>
	<rect id="XMLID_20_" x="43.897" y="64.211" style="fill:#4B689B;" width="1.517" height="3.178"/>
	<path id="XMLID_19_" style="fill:#4B689B;" d="M4.329,10.498c-0.217,0.788-0.922,1.371-1.774,1.394l4.998,6.381l1.604-1.611
		L4.329,10.498z"/>
	<polygon id="XMLID_18_" style="fill:#4B689B;" points="41.304,58.1 19.773,30.611 16.884,30.784 40.28,60.655 	"/>
	<path id="XMLID_17_" style="fill:#4B689B;" d="M85.01,10.589c0.217,0.788,0.922,1.371,1.774,1.394l-4.998,6.381l-1.604-1.611
		L85.01,10.589z"/>
	<polygon id="XMLID_16_" style="fill:#4B689B;" points="47.878,58.096 69.409,30.606 72.298,30.78 48.902,60.651 	"/>
</g>
</svg>
