<!-- Generator: Adobe Illustrator 19.0.0, SVG Export Plug-In  -->
<svg version="1.1"
	 xmlns="http://www.w3.org/2000/svg" xmlns:xlink="http://www.w3.org/1999/xlink" xmlns:a="http://ns.adobe.com/AdobeSVGViewerExtensions/3.0/"
	 x="0px" y="0px" width="62.852px" height="33.985px" viewBox="0 0 62.852 33.985"
	 style="enable-background:new 0 0 62.852 33.985;" xml:space="preserve">
<defs>
</defs>
<g id="XMLID_15_">
	<g id="XMLID_18_">
		<path id="XMLID_31_" style="fill:#228B3B;" d="M0.963,12.275h2.755l0.991,5.416l1.451-5.416h2.745l1.454,5.409l0.993-5.409h2.74
			l-2.069,9.675H9.181l-1.646-6.091l-1.64,6.091H3.051L0.963,12.275z"/>
		<path id="XMLID_29_" style="fill:#228B3B;" d="M15.155,12.275h2.906v9.675h-2.906V12.275z"/>
		<path id="XMLID_27_" style="fill:#228B3B;" d="M20.142,12.275h2.9v7.292h4.525v2.383h-7.426V12.275z"/>
		<path id="XMLID_25_" style="fill:#228B3B;" d="M28.886,12.275h2.9v7.292h4.525v2.383h-7.426V12.275z"/>
		<path id="XMLID_23_" style="fill:#228B3B;" d="M37.745,12.275h2.906v9.675h-2.906V12.275z"/>
		<path id="XMLID_21_" style="fill:#228B3B;" d="M42.752,12.275h2.708l3.533,5.353v-5.353h2.733v9.675h-2.733l-3.515-5.312v5.312
			h-2.727V12.275z"/>
		<path id="XMLID_19_" style="fill:#228B3B;" d="M58.37,18.445v-2.013h4.481v4.124c-0.858,0.603-1.616,1.013-2.276,1.23
			c-0.659,0.218-1.441,0.327-2.346,0.327c-1.114,0-2.021-0.195-2.724-0.587s-1.246-0.975-1.633-1.749
			c-0.386-0.774-0.579-1.663-0.579-2.666c0-1.057,0.211-1.975,0.634-2.756c0.423-0.78,1.041-1.373,1.856-1.778
			c0.636-0.312,1.491-0.469,2.567-0.469c1.037,0,1.812,0.097,2.326,0.291c0.515,0.193,0.941,0.493,1.28,0.9
			c0.34,0.407,0.595,0.923,0.766,1.548l-2.798,0.515c-0.115-0.365-0.311-0.645-0.586-0.838c-0.275-0.194-0.626-0.291-1.053-0.291
			c-0.636,0-1.143,0.228-1.521,0.684c-0.377,0.455-0.566,1.176-0.566,2.161c0,1.047,0.191,1.795,0.573,2.243
			c0.382,0.449,0.914,0.674,1.597,0.674c0.324,0,0.634-0.049,0.929-0.146c0.294-0.097,0.631-0.262,1.011-0.495v-0.91H58.37z"/>
	</g>
	<polygon id="XMLID_17_" style="fill:#228B3B;" points="0,0 49.846,0 62.111,10.224 37.582,10.224 37.582,9.186 0,9.186 	"/>
	<polygon id="XMLID_16_" style="fill:#228B3B;" points="62.111,33.985 12.265,33.985 0,23.761 24.529,23.761 24.529,24.799 
		62.111,24.799 	"/>
</g>
</svg>
