<svg id="圖層_1" data-name="圖層 1" xmlns="http://www.w3.org/2000/svg" viewBox="0 0 2500 466.88889">
<defs>
<style>.cls-1{fill:#F6F6F6;stroke-width:5px;}.cls-1,.cls-2,.cls-3,.cls-4{stroke:#9D9D9D;stroke-miterlimit:10;}.cls-2,.cls-3{fill:#F6F6F6;}.cls-2{stroke-width:5px;}.cls-4{fill:none;stroke-width:3px;}</style>
</defs>
<title>conveyor</title>
<!--<rect class="cls-1" x="1.5" y="30.5" width="1822" height="50"/>
<path d="M20 0 V80" stroke="#9D9D9D" style="stroke-width:3px;"/>
<path d="M40 0 V80" stroke="#9D9D9D" style="stroke-width:3px;"/>
<path d="M60 0 V80" stroke="#9D9D9D" style="stroke-width:3px;"/>
<path d="M80 0 V80" stroke="#9D9D9D" style="stroke-width:3px;"/>
<path d="M100 0 V80" stroke="#9D9D9D" style="stroke-width:3px;"/>
<path d="M120 0 V80" stroke="#9D9D9D" style="stroke-width:3px;"/>
<path d="M140 0 V80" stroke="#9D9D9D" style="stroke-width:3px;"/>
<path d="M160 0 V80" stroke="#9D9D9D" style="stroke-width:3px;"/>
<path d="M180 0 V80" stroke="#9D9D9D" style="stroke-width:3px;"/>
<path d="M200 0 V80" stroke="#9D9D9D" style="stroke-width:3px;"/>
<path d="M220 0 V80" stroke="#9D9D9D" style="stroke-width:3px;"/>
<path d="M240 0 V80" stroke="#9D9D9D" style="stroke-width:3px;"/>-->
<rect class="cls-1" x="1.5" y="30.5" width="30" height="50"/>
<rect class="cls-1" x="31.5" y="30.5" width="30" height="50"/>
<rect class="cls-1" x="61.5" y="30.5" width="30" height="50"/>
<rect class="cls-1" x="91.5" y="30.5" width="30" height="50"/>
<rect class="cls-1" x="121.5" y="30.5" width="30" height="50"/>
<rect class="cls-1" x="151.5" y="30.5" width="30" height="50"/>
<rect class="cls-1" x="181.5" y="30.5" width="30" height="50"/>
<rect class="cls-1" x="211.5" y="30.5" width="30" height="50"/>
<rect class="cls-1" x="241.5" y="30.5" width="30" height="50"/>
<rect class="cls-1" x="271.5" y="30.5" width="30" height="50"/>
<rect class="cls-1" x="301.5" y="30.5" width="30" height="50"/>
<rect class="cls-1" x="331.5" y="30.5" width="30" height="50"/>
<rect class="cls-1" x="361.5" y="30.5" width="30" height="50"/>
<rect class="cls-1" x="391.5" y="30.5" width="30" height="50"/>
<rect class="cls-1" x="421.5" y="30.5" width="30" height="50"/>
<rect class="cls-1" x="451.5" y="30.5" width="30" height="50"/>
<rect class="cls-1" x="481.5" y="30.5" width="30" height="50"/>
<rect class="cls-1" x="511.5" y="30.5" width="30" height="50"/>
<rect class="cls-1" x="541.5" y="30.5" width="30" height="50"/>
<rect class="cls-1" x="571.5" y="30.5" width="30" height="50"/>
<rect class="cls-1" x="601.5" y="30.5" width="30" height="50"/>
<rect class="cls-1" x="631.5" y="30.5" width="30" height="50"/>
<rect class="cls-1" x="661.5" y="30.5" width="30" height="50"/>
<rect class="cls-1" x="691.5" y="30.5" width="30" height="50"/>
<rect class="cls-1" x="721.5" y="30.5" width="30" height="50"/>
<rect class="cls-1" x="751.5" y="30.5" width="30" height="50"/>
<rect class="cls-1" x="781.5" y="30.5" width="30" height="50"/>
<rect class="cls-1" x="811.5" y="30.5" width="30" height="50"/>
<rect class="cls-1" x="841.5" y="30.5" width="30" height="50"/>
<rect class="cls-1" x="871.5" y="30.5" width="30" height="50"/>
<rect class="cls-1" x="901.5" y="30.5" width="30" height="50"/>
<rect class="cls-1" x="931.5" y="30.5" width="30" height="50"/>
<rect class="cls-1" x="961.5" y="30.5" width="30" height="50"/>
<rect class="cls-1" x="991.5" y="30.5" width="30" height="50"/>
<rect class="cls-1" x="1021.5" y="30.5" width="30" height="50"/>
<rect class="cls-1" x="1051.5" y="30.5" width="30" height="50"/>
<rect class="cls-1" x="1081.5" y="30.5" width="30" height="50"/>
<rect class="cls-1" x="1111.5" y="30.5" width="30" height="50"/>
<rect class="cls-1" x="1141.5" y="30.5" width="30" height="50"/>
<rect class="cls-1" x="1171.5" y="30.5" width="30" height="50"/>
<rect class="cls-1" x="1201.5" y="30.5" width="30" height="50"/>
<rect class="cls-1" x="1231.5" y="30.5" width="30" height="50"/>
<rect class="cls-1" x="1261.5" y="30.5" width="30" height="50"/>
<rect class="cls-1" x="1291.5" y="30.5" width="30" height="50"/>
<rect class="cls-1" x="1321.5" y="30.5" width="30" height="50"/>
<rect class="cls-1" x="1351.5" y="30.5" width="30" height="50"/>
<rect class="cls-1" x="1381.5" y="30.5" width="30" height="50"/>
<rect class="cls-1" x="1411.5" y="30.5" width="30" height="50"/>
<rect class="cls-1" x="1441.5" y="30.5" width="30" height="50"/>
<rect class="cls-1" x="1471.5" y="30.5" width="30" height="50"/>
<rect class="cls-1" x="1501.5" y="30.5" width="30" height="50"/>
<rect class="cls-1" x="1531.5" y="30.5" width="30" height="50"/>
<rect class="cls-1" x="1561.5" y="30.5" width="30" height="50"/>
<rect class="cls-1" x="1591.5" y="30.5" width="30" height="50"/>
<rect class="cls-1" x="1621.5" y="30.5" width="30" height="50"/>
<rect class="cls-1" x="1651.5" y="30.5" width="30" height="50"/>
<rect class="cls-1" x="1681.5" y="30.5" width="30" height="50"/>
<rect class="cls-1" x="1711.5" y="30.5" width="30" height="50"/>
<rect class="cls-1" x="1741.5" y="30.5" width="30" height="50"/>
<rect class="cls-1" x="1771.5" y="30.5" width="30" height="50"/>
<rect class="cls-1" x="1801.5" y="30.5" width="30" height="50"/>
<rect class="cls-1" x="1831.5" y="30.5" width="30" height="50"/>
<rect class="cls-1" x="1861.5" y="30.5" width="30" height="50"/>
<rect class="cls-1" x="1891.5" y="30.5" width="30" height="50"/>
<rect class="cls-1" x="1921.5" y="30.5" width="30" height="50"/>
<rect class="cls-1" x="1951.5" y="30.5" width="30" height="50"/>
<rect class="cls-1" x="1981.5" y="30.5" width="30" height="50"/>
<rect class="cls-1" x="2011.5" y="30.5" width="30" height="50"/>
<rect class="cls-1" x="2041.5" y="30.5" width="30" height="50"/>
<rect class="cls-1" x="2071.5" y="30.5" width="30" height="50"/>
<rect class="cls-1" x="2101.5" y="30.5" width="30" height="50"/>
<rect class="cls-1" x="2131.5" y="30.5" width="30" height="50"/>
<rect class="cls-1" x="2161.5" y="30.5" width="30" height="50"/>
<rect class="cls-1" x="2191.5" y="30.5" width="30" height="50"/>
<rect class="cls-1" x="2221.5" y="30.5" width="30" height="50"/>
<rect class="cls-1" x="2251.5" y="30.5" width="30" height="50"/>
<rect class="cls-1" x="2281.5" y="30.5" width="30" height="50"/>
<rect class="cls-1" x="2311.5" y="30.5" width="30" height="50"/>
<rect class="cls-1" x="2341.5" y="30.5" width="30" height="50"/>
<rect class="cls-1" x="2371.5" y="30.5" width="30" height="50"/>
<rect class="cls-1" x="2401.5" y="30.5" width="30" height="50"/>
<rect class="cls-1" x="2431.5" y="30.5" width="30" height="50"/>
<rect class="cls-1" x="2461.5" y="30.5" width="30" height="50"/>
<!--<rect class="cls-2" x="894.88889" y="30.5" width="16.66667" height="50"/>
<rect class="cls-2" x="1019.89583" y="30.5" width="16.66667" height="50"/>
<rect class="cls-2" x="1265.04167" y="30.5" width="16.66667" height="50"/>
<rect class="cls-2" x="446.27778" y="30.5" width="16.66667" height="50"/>
<rect class="cls-2" x="218.5" y="30.5" width="16.66667" height="50"/>
<rect class="cls-2" x="100.44444" y="30.5" width="16.66667" height="50"/>
<rect class="cls-2" x="670.58333" y="30.5" width="16.66667" height="50"/>
<rect class="cls-2" x="782.73611" y="30.5" width="16.66667" height="50"/>
<rect class="cls-2" x="332.05556" y="30.5" width="16.66667" height="50"/>
<rect class="cls-2" x="1144.90278" y="30.5" width="16.66667" height="50"/>
<rect class="cls-2" x="1385.18056" y="30.5" width="16.66667" height="50"/>
<rect class="cls-3" x="1611.56944" y="30.5" width="16.66667" height="50"/>
<rect class="cls-2" x="1498.375" y="30.5" width="16.66667" height="50"/>
<rect class="cls-2" x="1716.43056" y="30.5" width="16.66667" height="50"/>
<rect class="cls-2" x="1611.56944" y="30.5" width="16.66667" height="50"/>
<rect class="cls-2" x="558.43056" y="30.5" width="16.66667" height="50"/>-->
<!--<rect class="cls-1" x="1.5" y="382.05556" width="1822" height="50"/>-->

<rect class="cls-1" x="1.5" y="382.05556" width="30" height="50"/>
<rect class="cls-1" x="31.5" y="382.05556" width="30" height="50"/>
<rect class="cls-1" x="61.5" y="382.05556" width="30" height="50"/>
<rect class="cls-1" x="91.5" y="382.05556" width="30" height="50"/>
<rect class="cls-1" x="121.5" y="382.05556" width="30" height="50"/>
<rect class="cls-1" x="151.5" y="382.05556" width="30" height="50"/>
<rect class="cls-1" x="181.5" y="382.05556" width="30" height="50"/>
<rect class="cls-1" x="211.5" y="382.05556" width="30" height="50"/>
<rect class="cls-1" x="241.5" y="382.05556" width="30" height="50"/>
<rect class="cls-1" x="271.5" y="382.05556" width="30" height="50"/>
<rect class="cls-1" x="301.5" y="382.05556" width="30" height="50"/>
<rect class="cls-1" x="331.5" y="382.05556" width="30" height="50"/>
<rect class="cls-1" x="361.5" y="382.05556" width="30" height="50"/>
<rect class="cls-1" x="391.5" y="382.05556" width="30" height="50"/>
<rect class="cls-1" x="421.5" y="382.05556" width="30" height="50"/>
<rect class="cls-1" x="451.5" y="382.05556" width="30" height="50"/>
<rect class="cls-1" x="481.5" y="382.05556" width="30" height="50"/>
<rect class="cls-1" x="511.5" y="382.05556" width="30" height="50"/>
<rect class="cls-1" x="541.5" y="382.05556" width="30" height="50"/>
<rect class="cls-1" x="571.5" y="382.05556" width="30" height="50"/>
<rect class="cls-1" x="601.5" y="382.05556" width="30" height="50"/>
<rect class="cls-1" x="631.5" y="382.05556" width="30" height="50"/>
<rect class="cls-1" x="661.5" y="382.05556" width="30" height="50"/>
<rect class="cls-1" x="691.5" y="382.05556" width="30" height="50"/>
<rect class="cls-1" x="721.5" y="382.05556" width="30" height="50"/>
<rect class="cls-1" x="751.5" y="382.05556" width="30" height="50"/>
<rect class="cls-1" x="781.5" y="382.05556" width="30" height="50"/>
<rect class="cls-1" x="811.5" y="382.05556" width="30" height="50"/>
<rect class="cls-1" x="841.5" y="382.05556" width="30" height="50"/>
<rect class="cls-1" x="871.5" y="382.05556" width="30" height="50"/>
<rect class="cls-1" x="901.5" y="382.05556" width="30" height="50"/>
<rect class="cls-1" x="931.5" y="382.05556" width="30" height="50"/>
<rect class="cls-1" x="961.5" y="382.05556" width="30" height="50"/>
<rect class="cls-1" x="991.5" y="382.05556" width="30" height="50"/>
<rect class="cls-1" x="1021.5" y="382.05556" width="30" height="50"/>
<rect class="cls-1" x="1051.5" y="382.05556" width="30" height="50"/>
<rect class="cls-1" x="1081.5" y="382.05556" width="30" height="50"/>
<rect class="cls-1" x="1111.5" y="382.05556" width="30" height="50"/>
<rect class="cls-1" x="1141.5" y="382.05556" width="30" height="50"/>
<rect class="cls-1" x="1171.5" y="382.05556" width="30" height="50"/>
<rect class="cls-1" x="1201.5" y="382.05556" width="30" height="50"/>
<rect class="cls-1" x="1231.5" y="382.05556" width="30" height="50"/>
<rect class="cls-1" x="1261.5" y="382.05556" width="30" height="50"/>
<rect class="cls-1" x="1291.5" y="382.05556" width="30" height="50"/>
<rect class="cls-1" x="1321.5" y="382.05556" width="30" height="50"/>
<rect class="cls-1" x="1351.5" y="382.05556" width="30" height="50"/>
<rect class="cls-1" x="1381.5" y="382.05556" width="30" height="50"/>
<rect class="cls-1" x="1411.5" y="382.05556" width="30" height="50"/>
<rect class="cls-1" x="1441.5" y="382.05556" width="30" height="50"/>
<rect class="cls-1" x="1471.5" y="382.05556" width="30" height="50"/>
<rect class="cls-1" x="1501.5" y="382.05556" width="30" height="50"/>
<rect class="cls-1" x="1531.5" y="382.05556" width="30" height="50"/>
<rect class="cls-1" x="1561.5" y="382.05556" width="30" height="50"/>
<rect class="cls-1" x="1591.5" y="382.05556" width="30" height="50"/>
<rect class="cls-1" x="1621.5" y="382.05556" width="30" height="50"/>
<rect class="cls-1" x="1651.5" y="382.05556" width="30" height="50"/>
<rect class="cls-1" x="1681.5" y="382.05556" width="30" height="50"/>
<rect class="cls-1" x="1711.5" y="382.05556" width="30" height="50"/>
<rect class="cls-1" x="1741.5" y="382.05556" width="30" height="50"/>
<rect class="cls-1" x="1771.5" y="382.05556" width="30" height="50"/>
<rect class="cls-1" x="1801.5" y="382.05556" width="30" height="50"/>
<rect class="cls-1" x="1831.5" y="382.05556" width="30" height="50"/>
<rect class="cls-1" x="1861.5" y="382.05556" width="30" height="50"/>
<rect class="cls-1" x="1891.5" y="382.05556" width="30" height="50"/>
<rect class="cls-1" x="1921.5" y="382.05556" width="30" height="50"/>
<rect class="cls-1" x="1951.5" y="382.05556" width="30" height="50"/>
<rect class="cls-1" x="1981.5" y="382.05556" width="30" height="50"/>
<rect class="cls-1" x="2011.5" y="382.05556" width="30" height="50"/>
<rect class="cls-1" x="2041.5" y="382.05556" width="30" height="50"/>
<rect class="cls-1" x="2071.5" y="382.05556" width="30" height="50"/>
<rect class="cls-1" x="2101.5" y="382.05556" width="30" height="50"/>
<rect class="cls-1" x="2131.5" y="382.05556" width="30" height="50"/>
<rect class="cls-1" x="2161.5" y="382.05556" width="30" height="50"/>
<rect class="cls-1" x="2191.5" y="382.05556" width="30" height="50"/>
<rect class="cls-1" x="2221.5" y="382.05556" width="30" height="50"/>
<rect class="cls-1" x="2251.5" y="382.05556" width="30" height="50"/>
<rect class="cls-1" x="2281.5" y="382.05556" width="30" height="50"/>
<rect class="cls-1" x="2311.5" y="382.05556" width="30" height="50"/>
<rect class="cls-1" x="2341.5" y="382.05556" width="30" height="50"/>
<rect class="cls-1" x="2371.5" y="382.05556" width="30" height="50"/>
<rect class="cls-1" x="2401.5" y="382.05556" width="30" height="50"/>
<rect class="cls-1" x="2431.5" y="382.05556" width="30" height="50"/>
<rect class="cls-1" x="2461.5" y="382.05556" width="30" height="50"/>

<!--<rect class="cls-2" x="894.88889" y="382.05556" width="16.66667" height="50"/>
<rect class="cls-2" x="1019.89583" y="382.05556" width="16.66667" height="50"/>
<rect class="cls-2" x="1265.04167" y="382.05556" width="16.66667" height="50"/>
<rect class="cls-2" x="446.27778" y="382.05556" width="16.66667" height="50"/>
<rect class="cls-2" x="218.5" y="382.05556" width="16.66667" height="50"/>
<rect class="cls-2" x="100.44444" y="382.05556" width="16.66667" height="50"/>
<rect class="cls-2" x="670.58333" y="382.05556" width="16.66667" height="50"/>
<rect class="cls-2" x="782.73611" y="382.05556" width="16.66667" height="50"/>
<rect class="cls-2" x="332.05556" y="382.05556" width="16.66667" height="50"/>
<rect class="cls-2" x="1144.90278" y="382.05556" width="16.66667" height="50"/>
<rect class="cls-2" x="1385.18056" y="382.05556" width="16.66667" height="50"/>
<rect class="cls-3" x="1611.56944" y="382.05556" width="16.66667" height="50"/>
<rect class="cls-2" x="1498.375" y="382.05556" width="16.66667" height="50"/>
<rect class="cls-2" x="1716.43056" y="382.05556" width="16.66667" height="50"/>
<rect class="cls-2" x="1611.56944" y="382.05556" width="16.66667" height="50"/>
<rect class="cls-2" x="558.43056" y="382.05556" width="16.66667" height="50"/>-->
<rect style="fill:#4A4948;" x="1.5" y="116" width="1822" height="230"/>
<rect style="fill:#D0CBC9;" x="-25" y="157" width="50" height="150"/>
<rect style="fill:#D0CBC9;" x="30" y="157" width="30" height="150"/>
<rect style="fill:#D0CBC9;" x="65" y="157" width="10" height="150"/>
<rect style="fill:#D0CBC9;" x="80" y="157" width="50" height="150"/>
<rect style="fill:#D0CBC9;" x="135" y="157" width="30" height="150"/>
<rect style="fill:#D0CBC9;" x="170" y="157" width="10" height="150"/>
<rect style="fill:#D0CBC9;" x="185" y="157" width="50" height="150"/>
<rect style="fill:#D0CBC9;" x="240" y="157" width="30" height="150"/>
<rect style="fill:#D0CBC9;" x="275" y="157" width="10" height="150"/>
<rect style="fill:#D0CBC9;" x="290" y="157" width="50" height="150"/>
<rect style="fill:#D0CBC9;" x="345" y="157" width="30" height="150"/>
<rect style="fill:#D0CBC9;" x="380" y="157" width="10" height="150"/>
<rect style="fill:#D0CBC9;" x="395" y="157" width="50" height="150"/>
<rect style="fill:#D0CBC9;" x="450" y="157" width="30" height="150"/>
<rect style="fill:#D0CBC9;" x="485" y="157" width="10" height="150"/>
<rect style="fill:#D0CBC9;" x="500" y="157" width="50" height="150"/>
<rect style="fill:#D0CBC9;" x="555" y="157" width="30" height="150"/>
<rect style="fill:#D0CBC9;" x="590" y="157" width="10" height="150"/>
<rect style="fill:#D0CBC9;" x="605" y="157" width="50" height="150"/>
<rect style="fill:#D0CBC9;" x="660" y="157" width="30" height="150"/>
<rect style="fill:#D0CBC9;" x="695" y="157" width="10" height="150"/>
<rect style="fill:#D0CBC9;" x="710" y="157" width="50" height="150"/>
<rect style="fill:#D0CBC9;" x="765" y="157" width="30" height="150"/>
<rect style="fill:#D0CBC9;" x="800" y="157" width="10" height="150"/>
<rect style="fill:#D0CBC9;" x="815" y="157" width="50" height="150"/>
<rect style="fill:#D0CBC9;" x="870" y="157" width="30" height="150"/>
<rect style="fill:#D0CBC9;" x="905" y="157" width="10" height="150"/>
<rect style="fill:#D0CBC9;" x="920" y="157" width="50" height="150"/>
<rect style="fill:#D0CBC9;" x="975" y="157" width="30" height="150"/>
<rect style="fill:#D0CBC9;" x="1010" y="157" width="10" height="150"/>
<rect style="fill:#D0CBC9;" x="1025" y="157" width="50" height="150"/>
<rect style="fill:#D0CBC9;" x="1080" y="157" width="30" height="150"/>
<rect style="fill:#D0CBC9;" x="1115" y="157" width="10" height="150"/>
<rect style="fill:#D0CBC9;" x="1130" y="157" width="50" height="150"/>
<rect style="fill:#D0CBC9;" x="1185" y="157" width="30" height="150"/>
<rect style="fill:#D0CBC9;" x="1220" y="157" width="10" height="150"/>
<rect style="fill:#D0CBC9;" x="1235" y="157" width="50" height="150"/>
<rect style="fill:#D0CBC9;" x="1290" y="157" width="30" height="150"/>
<rect style="fill:#D0CBC9;" x="1325" y="157" width="10" height="150"/>
<rect style="fill:#D0CBC9;" x="1340" y="157" width="50" height="150"/>
<rect style="fill:#D0CBC9;" x="1395" y="157" width="30" height="150"/>
<rect style="fill:#D0CBC9;" x="1430" y="157" width="10" height="150"/>
<rect style="fill:#D0CBC9;" x="1445" y="157" width="50" height="150"/>
<rect style="fill:#D0CBC9;" x="1500" y="157" width="30" height="150"/>
<rect style="fill:#D0CBC9;" x="1535" y="157" width="10" height="150"/>
<rect style="fill:#D0CBC9;" x="1550" y="157" width="50" height="150"/>
<rect style="fill:#D0CBC9;" x="1605" y="157" width="30" height="150"/>
<rect style="fill:#D0CBC9;" x="1640" y="157" width="10" height="150"/>
<rect style="fill:#D0CBC9;" x="1655" y="157" width="50" height="150"/>
<rect style="fill:#D0CBC9;" x="1710" y="157" width="30" height="150"/>
<rect style="fill:#D0CBC9;" x="1745" y="157" width="10" height="150"/>
<rect style="fill:#D0CBC9;" x="1760" y="157" width="50" height="150"/>
<rect style="fill:#D0CBC9;" x="1815" y="157" width="10" height="150"/>

<!--<rect class="cls-4" x="1.5" y="30.5" width="1822" height="463.88889"/>-->
</svg>