<!-- Generator: Adobe Illustrator 19.0.0, SVG Export Plug-In  -->
<svg version="1.1"
	 xmlns="http://www.w3.org/2000/svg" xmlns:xlink="http://www.w3.org/1999/xlink" xmlns:a="http://ns.adobe.com/AdobeSVGViewerExtensions/3.0/"
	 x="0px" y="0px" width="92.479px" height="85.851px" viewBox="0 0 92.479 85.851"
	 style="enable-background:new 0 0 92.479 85.851;" xml:space="preserve">
<defs>
</defs>
<g id="XMLID_15_">
	<path id="XMLID_23_" style="fill:#7D679D;" d="M0,85.832l22.253-0.019l3.68-8.246c1.021-2.505,1.927-3.95,4.296-3.95h44.525
		c2.351,0,2.774,1.927,4.296,3.95l3.68,8.285h9.749V63.136L0,63.156V85.832z M5.279,68.126h13.352c0.878,0,1.589,0.712,1.589,1.589
		s-0.712,1.589-1.589,1.589H5.279c-0.878,0-1.589-0.712-1.589-1.589S4.401,68.126,5.279,68.126z M5.279,73.559h13.352
		c0.75-0.09,1.431,0.446,1.52,1.196s-0.446,1.431-1.196,1.52c-0.108,0.013-0.216,0.013-0.324,0H5.279
		c-0.745,0.126-1.451-0.375-1.577-1.12c-0.126-0.745,0.375-1.451,1.12-1.577c0.151-0.026,0.306-0.026,0.458,0V73.559z M3.622,80.072
		c0-0.83,0.673-1.503,1.503-1.503h13.294c0.83,0,1.503,0.673,1.503,1.503v0.154c0,0.83-0.673,1.503-1.503,1.503H5.144
		c-0.83,0-1.503-0.673-1.503-1.503v-0.154H3.622z M51.673,34.333V30.73c0-1.128-0.914-2.042-2.042-2.042H39.67
		c-1.128,0-2.042,0.914-2.042,2.042v3.622c0,1.128,0.914,2.042,2.042,2.042h9.98c1.12-0.011,2.023-0.922,2.023-2.042L51.673,34.333z
		 M33.158,23.235c8.002,0,16.01,0,24.025,0c2.351,0,3.121-0.809,3.121-3.16c0-5.587,0-11.175,0-16.762
		C60.304,0.771,59.476,0,56.836,0c-3.853,0-7.707,0-11.56,0s-7.861,0-11.791,0c-2.659,0-3.429,0.751-3.429,3.314
		c0,5.587,0,11.175,0,16.762C30.094,22.445,30.826,23.216,33.158,23.235z M34.448,27.339h20.403v-2.736H34.448v2.717V27.339z
		 M90.552,0.135h-5.106c-1.063-0.053-1.967,0.765-2.021,1.828c-0.002,0.033-0.002,0.066-0.002,0.099v3.063H62.305
		c0,4.534,0,9.068,0,13.602h21.099V60.42h9.075V2.004c-0.03-1.064-0.917-1.902-1.98-1.872c-0.021,0.001-0.041,0.002-0.062,0.003
		L90.552,0.135z M9.075,18.708h18.98c0-4.534,0-9.068,0-13.602H9.075V2.004c0.002-1.064-0.859-1.928-1.923-1.93
		c-0.04,0-0.079,0.001-0.119,0.003H2.023C0.96,0.024,0.056,0.842,0.002,1.905C0.001,1.938,0,1.971,0,2.004V60.42h9.075V18.708z
		 M18.573,60.4h55.314v-4.027H47.607v-2.755h-5.896v2.755h-23.12v4.046L18.573,60.4z"/>
	<rect id="XMLID_22_" x="44.475" y="35.717" style="fill:#7D679D;" width="0.484" height="17.968"/>
	<rect id="XMLID_21_" x="32.64" y="53.437" style="fill:#7D679D;" width="24.153" height="2.937"/>
	<polygon id="XMLID_20_" style="fill:#7D679D;" points="39.119,49.897 42.363,52.369 38.648,50.687 	"/>
	<polygon id="XMLID_19_" style="fill:#7D679D;" points="50.9,50.417 47.15,52.019 50.446,49.617 	"/>
	<polygon id="XMLID_18_" style="fill:#7D679D;" points="46.92,46.915 46.169,48.635 46.515,46.791 	"/>
	<polygon id="XMLID_17_" style="fill:#7D679D;" points="41.368,46.049 43.157,50.578 40.399,46.565 	"/>
	<polygon id="XMLID_16_" style="fill:#7D679D;" points="50.613,46.573 46.726,50.818 49.563,45.809 	"/>
</g>
</svg>
