<!-- Generator: Adobe Illustrator 19.0.0, SVG Export Plug-In  -->
<svg version="1.1"
	 xmlns="http://www.w3.org/2000/svg" xmlns:xlink="http://www.w3.org/1999/xlink" xmlns:a="http://ns.adobe.com/AdobeSVGViewerExtensions/3.0/"
	 x="0px" y="0px" width="92.479px" height="85.775px" viewBox="0 0 92.479 85.775"
	 style="enable-background:new 0 0 92.479 85.775;" xml:space="preserve">


	 
<defs>
</defs>
<g id="XMLID_15_">
	<path id="XMLID_28_" style="fill:#584681;" d="M83.867,6.463h-5.106c-1.063-0.057-1.967,0.816-2.021,1.95
		c-0.002,0.035-0.002,0.07-0.002,0.105v3.268H61.999c0,4.837,0,9.674,0,14.511h14.72v44.477h9.075V8.457
		c-0.03-1.135-0.917-2.029-1.98-1.997c-0.021,0.001-0.041,0.002-0.062,0.003L83.867,6.463z"/>
	<g id="XMLID_25_">
		<polygon id="XMLID_27_" style="fill:#584681;" points="18.602,70.774 18.602,70.755 18.582,70.755 		"/>
		<polygon id="XMLID_26_" style="fill:#584681;" points="73.896,66.728 58.316,66.728 58.316,63.791 34.163,63.791 34.163,66.728 
			18.602,66.728 18.602,70.755 73.896,70.755 		"/>
	</g>
	<path id="XMLID_24_" style="fill:#584681;" d="M31.098,38.375c10.078,0,20.164,0,30.259,0c2.96,0,3.931-1.336,3.931-5.218
		c0-9.228,0-18.456,0-27.683c0-4.2-1.043-5.473-4.368-5.473c-4.853,0-9.706,0-14.559,0s-9.9,0-14.85,0
		c-3.349,0-4.319,1.241-4.319,5.473c0,9.228,0,18.456,0,27.683C27.24,37.07,28.162,38.343,31.098,38.375z"/>
	<polygon id="XMLID_23_" style="fill:#584681;" points="36.038,43.413 56.441,43.413 56.441,40.678 36.038,40.678 36.038,43.394 	
		"/>
	<rect id="XMLID_22_" x="45.998" y="42.046" style="fill:#584681;" width="0.484" height="21.385"/>
	<polygon id="XMLID_21_" style="fill:#584681;" points="42.984,61.886 44.511,63.049 42.762,62.257 	"/>
	<polygon id="XMLID_20_" style="fill:#584681;" points="49.956,62.399 48.063,63.207 49.726,61.995 	"/>
	<polygon id="XMLID_19_" style="fill:#584681;" points="47.947,60.632 47.569,61.5 47.743,60.569 	"/>
	<polygon id="XMLID_18_" style="fill:#584681;" points="44.042,60.074 44.884,62.206 43.586,60.317 	"/>
	<polygon id="XMLID_17_" style="fill:#584681;" points="49.811,60.459 47.85,62.601 49.281,60.074 	"/>
	<path id="XMLID_16_" style="fill:#584681;" d="M88.939,71.858H3.54c-1.947,0-3.54,0.988-3.54,2.195v5.512v4.015v2.195h3.54h85.4
		h3.54V83.58v-4.015v-5.512C92.479,72.846,90.886,71.858,88.939,71.858z"/>
</g>
</svg>
