<!-- Generator: Adobe Illustrator 19.0.0, SVG Export Plug-In  -->
<svg version="1.1"
	 xmlns="http://www.w3.org/2000/svg" xmlns:xlink="http://www.w3.org/1999/xlink" xmlns:a="http://ns.adobe.com/AdobeSVGViewerExtensions/3.0/"
	 x="0px" y="0px" width="92.479px" height="72.158px" viewBox="0 0 92.479 72.158"
	 style="enable-background:new 0 0 92.479 72.158;" xml:space="preserve">
<defs>
</defs>
<g id="XMLID_15_">
	<path id="XMLID_20_" style="fill:#2A3A5E;" d="M30.191,52.609H71.71c1.064,0,1.927-0.813,1.927-1.815V8.155
		c0-1.003-0.863-1.815-1.927-1.815H30.191c-1.064,0-1.927,0.813-1.927,1.815V50.83C28.285,51.818,29.141,52.609,30.191,52.609z
		 M67.934,44.604c0,0.501-0.431,0.908-0.963,0.908s-0.963-0.406-0.963-0.908v-5.337c0-0.501,0.431-0.908,0.963-0.908
		s0.963,0.406,0.963,0.908V44.604z M33.967,15.271c0-1.003,0.863-1.815,1.927-1.815h30.171c1.064,0,1.927,0.813,1.927,1.815v14.231
		c0,1.002-0.863,1.815-1.927,1.815h-30.21c-1.064,0-1.927-0.813-1.927-1.815V15.271H33.967z M33.967,39.267
		c0-0.501,0.431-0.908,0.963-0.908c0.532,0,0.963,0.406,0.963,0.908v5.337c0,0.501-0.431,0.908-0.963,0.908
		c-0.532,0-0.963-0.406-0.963-0.908l0,0V39.267z M6.223,42.462c-0.765,0.697-0.786,1.846-0.046,2.567
		c0.74,0.721,1.959,0.74,2.724,0.044c0.765-0.697,0.786-1.846,0.046-2.567c-0.015-0.015-0.031-0.029-0.046-0.044
		C8.154,41.782,6.97,41.782,6.223,42.462z M26.376,8.155H1.927C0.863,8.155,0,8.968,0,9.97l0,0v39.081
		c0,1.002,0.863,1.815,1.927,1.815h24.449V8.155z M5.664,13.492h15.105v5.337H5.664V13.492z M18.881,33.041
		c1.064,0,1.927,0.813,1.927,1.815c0,1.003-0.863,1.815-1.927,1.815c-1.064,0-1.927-0.813-1.927-1.815
		C16.955,33.854,17.817,33.041,18.881,33.041z M16.955,29.411c0-1.002,0.863-1.815,1.927-1.815c1.064,0,1.927,0.813,1.927,1.815
		c0,1.003-0.863,1.815-1.927,1.815c-1.02-0.018-1.848-0.782-1.888-1.743L16.955,29.411z M18.881,25.78
		c-1.064,0-1.927-0.813-1.927-1.815c0-1.002,0.863-1.815,1.927-1.815c1.064,0,1.927,0.813,1.927,1.815
		c0.085,0.999-0.706,1.874-1.766,1.955c-0.053,0.004-0.107,0.006-0.16,0.006V25.78z M13.217,25.78c-1.064,0-1.927-0.813-1.927-1.815
		c0-1.003,0.863-1.815,1.927-1.815s1.927,0.813,1.927,1.815c0.085,0.999-0.706,1.874-1.766,1.955
		c-0.053,0.004-0.107,0.006-0.16,0.006V25.78z M15.143,29.411c0,1.003-0.863,1.815-1.927,1.815c-1.064,0-1.927-0.813-1.927-1.815
		c0-1.002,0.863-1.815,1.927-1.815c1.064,0.019,1.91,0.847,1.889,1.85c0,0.013-0.001,0.025-0.001,0.038L15.143,29.411z
		 M9.441,24.147c0,1.003-0.863,1.815-1.927,1.815s-1.927-0.813-1.927-1.815c0-1.002,0.863-1.815,1.927-1.815
		S9.441,23.144,9.441,24.147z M7.514,27.777c1.064,0,1.927,0.813,1.927,1.815c0,1.002-0.863,1.815-1.927,1.815
		s-1.927-0.813-1.927-1.815c-0.043-1.002,0.784-1.846,1.848-1.887c0.039-0.001,0.078-0.002,0.118-0.001L7.514,27.777z M9.441,34.893
		c0,1.003-0.863,1.815-1.927,1.815s-1.927-0.813-1.927-1.815c0-1.002,0.863-1.815,1.927-1.815c1.035-0.001,1.885,0.769,1.927,1.743
		V34.893z M10.211,46.292c-1.46,1.458-3.899,1.525-5.447,0.149s-1.619-3.674-0.159-5.132c1.24-1.238,3.226-1.498,4.777-0.626
		l2.177-0.744l-0.732,2.051c0.789,1.387,0.54,3.094-0.617,4.229V46.292z M13.198,36.672c-1.064,0-1.927-0.813-1.927-1.815
		c0-1.002,0.863-1.815,1.927-1.815s1.927,0.813,1.927,1.815c-0.041,0.967-0.88,1.734-1.907,1.743L13.198,36.672z M21.521,46.292
		c-1.46,1.458-3.899,1.525-5.447,0.149c-1.548-1.376-1.619-3.674-0.159-5.132c1.24-1.238,3.226-1.498,4.777-0.626l2.177-0.672
		l-0.713,1.979c0.789,1.387,0.54,3.094-0.617,4.229L21.521,46.292z M90.552,8.155H75.544V50.83h15.009
		c1.064,0,1.927-0.813,1.927-1.815V9.934C92.458,8.946,91.602,8.155,90.552,8.155z M17.533,42.462
		c-0.765,0.697-0.786,1.846-0.046,2.567c0.74,0.721,1.959,0.74,2.724,0.044c0.765-0.697,0.786-1.846,0.046-2.567
		c-0.015-0.015-0.031-0.029-0.046-0.044C19.464,41.782,18.279,41.782,17.533,42.462z M71.71,54.442H30.191
		c-1.355-0.021-2.598-0.71-3.275-1.815H3.853v19.531h24.449l3.853-8.894h37.685l3.853,8.894h14.932V52.645H75.004
		c-0.69,1.097-1.941,1.772-3.295,1.779V54.442z M21.617,64.19H10.385c-0.532,0-0.963-0.406-0.963-0.908
		c0-0.501,0.431-0.908,0.963-0.908h11.329c0.532,0.005,0.959,0.415,0.954,0.917c-0.005,0.501-0.441,0.904-0.973,0.899H21.617z
		 M21.617,60.559H10.385c-0.532,0-0.963-0.406-0.963-0.908c0-0.501,0.431-0.908,0.963-0.908h11.329
		c0.553,0.005,0.998,0.432,0.992,0.953c-0.005,0.521-0.458,0.94-1.011,0.935L21.617,60.559z M21.617,56.929H10.385
		c-0.532,0-0.963-0.406-0.963-0.908c0-0.501,0.431-0.908,0.963-0.908h11.329c0.575,0.005,1.036,0.448,1.031,0.989
		c-0.005,0.541-0.475,0.976-1.05,0.971l0,0L21.617,56.929z"/>
	<g id="XMLID_16_">
		<defs>
			<path id="XMLID_17_" d="M65.933,30.537H35.987c-0.783,0-1.417-0.635-1.417-1.417V15.558c0-0.783,0.635-1.417,1.417-1.417h29.946
				c0.783,0,1.417,0.635,1.417,1.417v13.561C67.35,29.902,66.716,30.537,65.933,30.537z"/>
		</defs>
		<clipPath id="XMLID_45_">
			<use xlink:href="#XMLID_17_"  style="overflow:visible;"/>
		</clipPath>
		
			<line id="XMLID_19_" style="clip-path:url(#XMLID_45_);fill:none;stroke:#2A3A5E;stroke-width:4;stroke-miterlimit:10;" x1="55.448" y1="39.399" x2="75.886" y2="0.939"/>
		
			<line id="XMLID_18_" style="clip-path:url(#XMLID_45_);fill:none;stroke:#2A3A5E;stroke-width:2;stroke-miterlimit:10;" x1="61.3" y1="39.399" x2="81.738" y2="0.939"/>
	</g>
</g>
</svg>
