<!-- Generator: Adobe Illustrator 19.0.0, SVG Export Plug-In  -->
<svg version="1.1"
	 xmlns="http://www.w3.org/2000/svg" xmlns:xlink="http://www.w3.org/1999/xlink" xmlns:a="http://ns.adobe.com/AdobeSVGViewerExtensions/3.0/"
	 x="0px" y="0px" width="88.588px" height="27.201px" viewBox="0 0 88.588 27.201"
	 style="enable-background:new 0 0 88.588 27.201;" xml:space="preserve">
<defs>
</defs>
<g id="XMLID_15_">
	<polygon id="XMLID_26_" style="fill:#FFFFFF;" points="3.834,25.379 16.977,2.615 30.12,25.379 	"/>
	<g id="XMLID_16_">
		<path id="XMLID_23_" style="fill:#0093D3;" d="M16.385,27.182c-5.154,0-10.308,0-15.462,0c-0.141,0-0.281,0.002-0.422-0.001
			c-0.574-0.01-0.612-0.069-0.325-0.547c0.68-1.13,1.364-2.258,2.049-3.385c3.016-4.958,6.033-9.917,9.051-14.874
			c1.628-2.674,3.26-5.346,4.892-8.017c0.293-0.48,0.355-0.48,0.652,0.009c3.711,6.121,7.42,12.243,11.129,18.366
			c1.567,2.587,3.134,5.175,4.697,7.765c0.105,0.174,0.319,0.353,0.208,0.562c-0.115,0.216-0.383,0.118-0.584,0.118
			C26.975,27.183,21.68,27.182,16.385,27.182z M19.526,23.916c1.656,0.03,2.787-0.661,3.51-1.957
			c0.758-1.359,0.688-2.74-0.184-4.041c-0.2-0.299-0.252-0.552-0.116-0.877c0.226-0.541,0.325-1.118,0.344-1.698
			c0.061-1.832-0.725-3.507-2.689-4.119c-1.675-0.522-3.286-0.156-4.839,0.452c-2.497,0.978-4.515,2.627-6.177,4.711
			c-0.917,1.15-1.639,2.41-1.995,3.86c-0.316,1.286-0.183,2.492,0.627,3.559c1.162,1.533,2.789,1.841,4.58,1.63
			c1.61-0.19,3.027-0.895,4.385-1.724c0.394-0.241,0.709-0.361,1.155-0.114C18.589,23.858,19.123,23.931,19.526,23.916z"/>
		<path id="XMLID_22_" style="fill:#0093D3;" d="M49.105,20.245c0-1.723,0.013-3.446-0.008-5.169
			c-0.006-0.489,0.135-0.685,0.655-0.682c3.165,0.018,6.33,0.016,9.495,0.002c0.474-0.002,0.677,0.146,0.648,0.636
			c-0.03,0.491-0.027,0.985-0.001,1.476c0.026,0.486-0.185,0.65-0.654,0.646c-1.846-0.014-3.692-0.006-5.539-0.005
			c-0.79,0.001-0.794,0.002-0.792,0.789c0.004,1.232-0.113,1.104,1.099,1.108c1.442,0.005,2.884,0.014,4.325-0.006
			c0.461-0.006,0.636,0.164,0.61,0.618c-0.025,0.438-0.003,0.879-0.005,1.318c-0.003,0.696-0.024,0.72-0.703,0.722
			c-1.547,0.003-3.095,0.019-4.642-0.009c-0.526-0.01-0.74,0.149-0.697,0.689c0.038,0.472,0.031,0.95,0.002,1.423
			c-0.03,0.48,0.151,0.648,0.636,0.643c1.864-0.021,3.727-0.009,5.591-0.008c0.754,0.001,0.76,0.009,0.762,0.771
			c0.001,0.299,0.002,0.598,0,0.897c-0.005,0.835-0.237,1.076-1.061,1.077c-2.233,0.003-4.466,0.001-6.699,0.001
			c-0.404,0-0.809,0.005-1.213-0.002c-1.114-0.02-1.806-0.714-1.809-1.819C49.102,23.656,49.105,21.951,49.105,20.245z"/>
		<path id="XMLID_21_" style="fill:#0093D3;" d="M40.621,19.551c-0.115,0.176-0.057,0.373-0.058,0.557
			c-0.005,2.128-0.014,4.257,0.004,6.385c0.004,0.493-0.152,0.705-0.666,0.688c-0.826-0.027-1.653-0.016-2.48-0.005
			c-0.397,0.005-0.57-0.153-0.569-0.563c0.009-3.254-0.009-6.509,0.014-9.763c0.008-1.168,0.866-2.208,2.018-2.574
			c1.16-0.368,2.491,0.025,3.209,1.026c1.989,2.772,3.969,5.55,5.917,8.351c1.073,1.543,0.136,3.418-1.747,3.504
			c-1.352,0.062-2.708,0.012-4.063,0.015c-0.393,0.001-0.583-0.186-0.58-0.58c0.004-0.545,0.005-1.091-0.001-1.636
			c-0.004-0.351,0.156-0.517,0.51-0.514c0.492,0.005,0.985-0.002,1.478-0.002c0.312,0,0.448-0.098,0.233-0.403
			c-1.04-1.483-2.079-2.967-3.12-4.448C40.704,19.567,40.66,19.566,40.621,19.551z"/>
		<path id="XMLID_20_" style="fill:#0093D3;" d="M84.748,19.53c-0.675,0.963-1.351,1.925-2.024,2.889
			c-0.403,0.577-0.796,1.16-1.205,1.733c-0.195,0.273-0.117,0.374,0.191,0.375c0.51,0.002,1.02,0.012,1.53,0.001
			c0.357-0.007,0.513,0.145,0.505,0.504c-0.011,0.545-0.011,1.091,0,1.636c0.007,0.349-0.126,0.519-0.493,0.516
			c-1.372-0.009-2.745,0.016-4.116-0.013c-0.878-0.019-1.548-0.445-1.941-1.241c-0.398-0.806-0.257-1.578,0.244-2.291
			c1.911-2.719,3.828-5.435,5.746-8.149c0.813-1.151,2.11-1.613,3.373-1.211c1.235,0.393,2.024,1.509,2.027,2.903
			c0.006,3.096,0.003,6.192,0.001,9.288c-0.001,0.665-0.049,0.709-0.73,0.712c-0.792,0.003-1.584-0.018-2.375,0.007
			c-0.467,0.015-0.608-0.175-0.605-0.623c0.015-2.146,0.007-4.292,0.007-6.438c0-0.189,0-0.378,0-0.566
			C84.837,19.551,84.793,19.54,84.748,19.53z"/>
		<path id="XMLID_19_" style="fill:#0093D3;" d="M73.777,14.408c1.654,0,3.307,0.013,4.961-0.008c0.51-0.007,0.697,0.186,0.67,0.684
			c-0.027,0.491-0.015,0.985-0.005,1.477c0.008,0.359-0.153,0.506-0.508,0.502c-0.897-0.009-1.795,0.016-2.691-0.009
			c-0.463-0.013-0.611,0.161-0.608,0.616c0.015,2.762,0.008,5.524,0.006,8.285c-0.001,1.006-0.208,1.216-1.197,1.219
			c-0.581,0.002-1.162-0.02-1.741,0.006c-0.509,0.023-0.672-0.191-0.669-0.687c0.015-2.867,0.008-5.735,0.007-8.602
			c0-0.824-0.006-0.829-0.817-0.83c-0.827-0.002-1.654-0.014-2.48,0.004c-0.435,0.009-0.603-0.179-0.591-0.6
			c0.015-0.492,0.015-0.985,0-1.477c-0.013-0.428,0.169-0.594,0.598-0.591c1.689,0.013,3.377,0.005,5.066,0.005
			C73.777,14.405,73.777,14.407,73.777,14.408z"/>
		<path id="XMLID_18_" style="fill:#0093D3;" d="M61.036,20.318c0-1.74-0.003-3.479,0.001-5.219
			c0.001-0.639,0.057-0.692,0.692-0.695c0.738-0.004,1.476-0.003,2.214-0.001c0.745,0.002,0.782,0.036,0.783,0.767
			c0.002,2.847,0.001,5.694,0.001,8.54c0,0.817,0.001,0.818,0.812,0.819c1.564,0.001,3.128,0.014,4.692-0.007
			c0.484-0.007,0.671,0.165,0.636,0.644c-0.028,0.385,0.003,0.773-0.013,1.159c-0.023,0.56-0.3,0.851-0.855,0.853
			c-2.425,0.009-4.85,0.018-7.275-0.003c-1.075-0.009-1.683-0.662-1.688-1.742C61.031,23.727,61.037,22.023,61.036,20.318z"/>
		<path id="XMLID_17_" style="fill:#0093D3;" d="M21.66,15.156c0,0.141,0.011,0.282-0.002,0.422
			c-0.082,0.922-0.165,0.975-1.045,0.768c-1.643-0.387-3.011,0.105-4.023,1.422c-0.95,1.236-1.054,2.625-0.357,4.021
			c0.227,0.455,0.153,0.658-0.265,0.902c-1.135,0.664-2.324,1.163-3.627,1.382c-1.376,0.232-2.691-0.27-3.303-1.257
			c-0.439-0.708-0.458-1.469-0.283-2.242c0.277-1.227,0.914-2.281,1.677-3.258c1.547-1.981,3.469-3.477,5.811-4.412
			c0.857-0.342,1.744-0.522,2.676-0.512C20.662,12.411,21.676,13.416,21.66,15.156z"/>
	</g>
</g>
</svg>
