<!-- Generator: Adobe Illustrator 19.0.0, SVG Export Plug-In  -->
<svg version="1.1"
	 xmlns="http://www.w3.org/2000/svg" xmlns:xlink="http://www.w3.org/1999/xlink" xmlns:a="http://ns.adobe.com/AdobeSVGViewerExtensions/3.0/"
	 x="0px" y="0px" width="89.517px" height="21.753px" viewBox="0 0 89.517 21.753"
	 style="enable-background:new 0 0 89.517 21.753;" xml:space="preserve">
<defs>
</defs>
<g id="XMLID_15_">
	<rect id="XMLID_24_" x="18.849" y="21.174" style="fill:#035FA8;" width="70.668" height="0.579"/>
	<path id="XMLID_23_" style="fill:#ED7F0E;" d="M20.81,11.789c0-1.146-0.025-2.293,0.006-3.438c0.048-1.777,1.039-2.884,2.791-2.946
		c2.165-0.076,4.336-0.045,6.504-0.008c0.939,0.016,1.64,0.523,2.042,1.38c0.156,0.332,0.302,0.686,0.352,1.051
		c0.166,1.237,0.137,2.434,0.137,2.434s-0.987,0-2.03,0c-0.279,0-0.836,0-0.836,0h-0.865c0,0-0.045-0.448-0.055-0.727
		c-0.03-0.791-0.533-1.149-1.375-1.156c-2.845-0.024-3.063,0.167-3.063,3.017c0,0.805-0.018,1.612,0.019,2.416
		c0.059,1.286,0.579,1.782,1.849,1.812c0.433,0.01,0.867,0.002,1.301-0.005c0.682-0.011,1.174-0.387,1.265-1.012
		c0.041-0.285,0.043-0.726,0.043-0.726h0.966h2.23h0.494c0,0,0.04,0.342,0.037,0.545c-0.036,2.693-1.395,4.363-4.074,4.364
		c-1.425,0.001-2.85,0.004-4.275-0.001c-1.878-0.007-3.266-1.222-3.396-3.1c-0.09-1.294-0.017-2.599-0.017-3.9
		C20.842,11.789,20.826,11.789,20.81,11.789z"/>
	<path id="XMLID_22_" style="fill:#035FA8;" d="M14.351,19.559c-0.587,0.56-1.29,0.946-2.096,1.137
		c-1.765,0.418-3.185-0.914-2.833-2.69c0.178-0.896,0.594-1.691,1.15-2.409c1.382-1.783,3.166-3.035,5.234-3.886
		c0.772-0.318,1.583-0.548,2.422-0.825c-0.228-0.314-0.594-0.852-1.172-1.763c-0.18,0.057-0.452,0.146-0.652,0.23
		c-1.935,0.821-3.677,1.924-5.16,3.408c-1.844,1.845-3.32,3.867-2.786,6.901c-0.503-0.785-0.557-1.44-0.466-2.13
		c0.471-3.565,4.435-7.791,8.245-8.784c0.144-0.037,0.363-0.112,0.485-0.154c-0.141-0.225-0.288-0.462-0.451-0.725
		c-0.214-0.347-0.394-0.644-0.55-0.905C15.6,7.005,15.471,7.05,15.408,7.077c-3.719,1.582-6.667,4.028-8.415,7.737
		c-0.266,0.565-0.501,1.553-0.562,2.329c-0.048,0.603-0.047,1.278,0.118,1.81c0.216,0.694,0.492,1.068,0.492,1.068s0.172-0.174,0,0
		c-0.916-0.742-1.277-1.705-1.255-2.86c0.02-1.045,0.284-2.021,0.73-2.949c1.757-3.659,4.559-6.191,8.327-7.668
		c0.151-0.059,0.375-0.146,0.513-0.2c-0.47-0.815-0.638-1.176-0.984-1.768c-0.152,0.067-0.356,0.156-0.449,0.197
		c-3.768,1.639-6.67,4.24-8.559,7.9c-0.971,1.881-1.629,4.26-0.953,6.395c0.036,0.112,0.188-0.114,0,0
		c-0.658-1.013-0.882-2.101-0.716-3.276c0.394-2.783,1.848-5.022,3.67-7.056c1.855-2.071,4.068-3.645,6.712-4.646
		C13.995,3.953,13.905,3.81,13.8,3.645c-0.261-0.407-0.488-0.786-0.699-1.149c-0.104,0.049-0.257,0.123-0.371,0.182
		c-4.166,2.166-7.627,5.07-9.72,9.372C2.207,13.7,1.812,15.444,2.32,17.273c0.169,0.609,0.461,1.184,0.709,1.806
		c-0.106-0.023,0.038,0.027,0,0c-0.075-0.053,0.065,0.066,0,0c-1.335-1.359-1.793-3.276-1.347-4.927
		c1.424-5.272,4.891-8.919,9.52-11.583c0.41-0.236,1.242-0.689,1.478-0.818c-0.416-0.765-0.7-1.367-0.87-1.751
		c-0.069,0.022-0.221,0.072-0.312,0.11c-0.418,0.143-0.722,0.275-1.124,0.475C5.15,3.199,1.353,7.237,0.067,13.198
		c-0.089,0.958-0.089,1.84,0,2.79c0.164,1.006,0.364,1.994,1.075,2.795c0.835,0.94,1.825,1.638,2.963,2.186
		c1.208,0.582,2.536,0.723,3.772,0.785c2.294,0,4.587,0,6.881,0c1.076,0,1.978-0.068,3.023-0.481c-0.883-0.615-1.7-1.16-2.488-1.744
		C14.94,19.266,14.7,19.226,14.351,19.559z"/>
	<polygon id="XMLID_21_" style="fill:#ED7F0E;" points="42.413,5.4 42.413,10.2 37.818,10.2 37.818,5.4 34.069,5.4 34.069,18.774 
		37.818,18.774 37.818,13.588 42.413,13.588 42.413,18.774 46.162,18.774 46.162,5.4 	"/>
	<polygon id="XMLID_20_" style="fill:#ED7F0E;" points="62.738,5.49 61.869,5.49 59.463,5.49 56.815,13.77 54.166,5.49 51.761,5.49 
		50.891,5.49 48.485,5.49 48.485,18.882 51.761,18.882 51.761,8.21 55.175,18.882 55.179,18.882 58.45,18.882 58.455,18.882 
		61.869,8.21 61.869,18.882 65.144,18.882 65.144,5.49 	"/>
	<polygon id="XMLID_19_" style="fill:#ED7F0E;" points="76.312,8.413 76.312,5.49 70.195,5.49 66.643,5.49 66.643,8.413 
		66.643,10.953 66.643,13.42 66.643,15.959 66.643,18.882 70.195,18.882 76.312,18.882 76.312,15.959 70.195,15.959 70.195,13.42 
		75.689,13.42 75.689,10.953 70.195,10.953 70.195,8.413 	"/>
	<path id="XMLID_16_" style="fill:#ED7F0E;" d="M88.844,12.92c0.477-0.497,0.58-1.442,0.624-1.791S89.46,9.2,89.383,8.374
		c-0.038-0.413-0.336-1.22-1.065-1.831c-0.729-0.612-1.889-1.029-3.401-1.085c-1.001-0.038-2.004-0.039-3.007-0.036V5.4h-4.094
		v13.482h0.822c0.178,0.021,0.37,0.018,0.571,0h2.429v-3.611c0,0,1.032-0.125,2.44-0.009c1.404,0.116,1.754,0.488,1.795,1.919
		c0.009,0.309,0,0.928,0,0.928v0.668h0.674c0,0,1.98,0.004,2.97,0c0-1.054,0-2.108,0-3.161c-0.054-1.083-0.677-1.76-1.653-2.179
		C88.342,13.447,88.588,13.187,88.844,12.92z M84.389,12.111c-0.845,0.002-2.751,0-2.751,0V8.547h1.121c0,0,0.554,0,0.831,0
		c0.277,0,0.555-0.003,0.832,0.001c1.238,0.016,1.852,0.567,1.86,1.665C86.291,11.379,85.593,12.108,84.389,12.111z"/>
</g>
</svg>
