<!-- Generator: Adobe Illustrator 19.0.0, SVG Export Plug-In  -->
<svg version="1.1"
	 xmlns="http://www.w3.org/2000/svg" xmlns:xlink="http://www.w3.org/1999/xlink" xmlns:a="http://ns.adobe.com/AdobeSVGViewerExtensions/3.0/"
	 x="0px" y="0px" width="96.511px" height="23.405px" viewBox="0 0 96.511 23.405"
	 style="enable-background:new 0 0 96.511 23.405;" xml:space="preserve">
<defs>
</defs>
<path id="XMLID_15_" d="M96.511,17.882c0,1.563,0,3.126,0,4.69c-0.139,0.063-0.286,0.048-0.432,0.048c-12.18,0-24.36,0-36.541,0
	c-0.073,0-0.146,0.002-0.219-0.002c-0.193-0.01-0.231-0.046-0.242-0.233c-0.005-0.08-0.002-0.161-0.002-0.241
	c0-1.847,0-3.695-0.001-5.542c0-0.082,0.017-0.169-0.023-0.252c-0.049,0.03-0.053,0.069-0.067,0.102
	c-0.222,0.509-0.487,0.996-0.783,1.466c-0.714,1.136-1.601,2.115-2.647,2.954c-0.797,0.639-1.666,1.156-2.6,1.566
	c-0.629,0.276-1.277,0.497-1.948,0.649c-0.527,0.12-1.055,0.228-1.594,0.276c-0.066,0.006-0.131,0.013-0.192,0.041
	c-0.643,0-1.286,0-1.928,0c-0.056-0.014-0.112-0.033-0.169-0.04c-0.974-0.116-1.927-0.32-2.852-0.654
	c-1.463-0.528-2.762-1.329-3.908-2.371c-1.181-1.074-2.1-2.347-2.763-3.802c-0.022-0.049-0.029-0.113-0.114-0.142
	c0,0.067,0,0.123,0,0.18c0,1.884,0.001,3.769,0,5.653c0,0.08-0.001,0.161-0.006,0.241c-0.008,0.11-0.07,0.173-0.18,0.185
	c-0.051,0.006-0.102,0.007-0.153,0.007c-1.38,0-2.761-0.002-4.141,0.003c-0.21,0.001-0.353-0.068-0.474-0.247
	c-0.363-0.539-0.741-1.068-1.116-1.599c-1.053-1.491-2.11-2.98-3.163-4.471c-1.478-2.094-2.954-4.19-4.432-6.284
	c-0.091-0.129-0.189-0.254-0.298-0.401c-0.047,0.116-0.032,0.21-0.032,0.301c-0.001,4.046-0.001,8.093-0.001,12.139
	c0,0.095,0.003,0.19-0.003,0.285c-0.011,0.18-0.049,0.22-0.222,0.231c-0.087,0.006-0.175,0.003-0.263,0.003
	c-5.23,0-10.459,0-15.689,0c-2.286,0-4.572,0-6.858,0c-0.154,0-0.307,0.001-0.455-0.049C0,15.311,0,8.05,0,0.789
	c0.134-0.04,0.272-0.05,0.411-0.05C5.648,0.74,10.886,0.739,16.123,0.74c0.38,0,0.402,0.022,0.402,0.392c0.001,1.337,0,2.673,0,4.01
	c0,0.066,0.002,0.132-0.006,0.197c-0.016,0.137-0.056,0.18-0.192,0.193c-0.087,0.009-0.175,0.006-0.263,0.006
	c-3.586,0-7.173,0-10.759,0c-0.08,0-0.161-0.003-0.241,0.002c-0.157,0.009-0.188,0.041-0.2,0.198
	C4.861,5.782,4.862,5.826,4.862,5.869c0,1.023,0,2.045,0,3.068c0,0.058,0.001,0.117,0.004,0.175
	c0.005,0.104,0.059,0.162,0.165,0.165C5.119,9.28,5.207,9.281,5.294,9.281c3.572,0,7.143,0,10.715,0
	c0.088,0,0.175-0.002,0.263,0.002c0.196,0.01,0.238,0.054,0.251,0.254c0.002,0.036,0.002,0.073,0.002,0.11c0,1.359,0,2.717,0,4.076
	c0,0.066-0.002,0.132-0.009,0.197c-0.012,0.108-0.075,0.174-0.184,0.184c-0.102,0.009-0.204,0.01-0.306,0.01
	c-3.601,0-7.202,0-10.803,0.001c-0.35,0-0.359,0.01-0.36,0.354c-0.001,1.008,0,2.016,0,3.024c0,0.044-0.001,0.088,0.002,0.131
	c0.011,0.157,0.029,0.177,0.183,0.179c0.124,0.002,0.248-0.003,0.372-0.003c4.266,0,8.531,0,12.797,0
	c0.088,0,0.176,0.003,0.263-0.004c0.14-0.012,0.176-0.048,0.186-0.192c0.007-0.094,0.004-0.19,0.004-0.285
	c0-5.339,0-10.679,0-16.018c0-0.08-0.001-0.161,0.001-0.241c0.005-0.275,0.045-0.318,0.321-0.318
	c1.402-0.002,2.805,0.001,4.207-0.003c0.196-0.001,0.322,0.072,0.435,0.233c0.918,1.31,1.843,2.614,2.766,3.92
	c0.981,1.39,1.962,2.78,2.943,4.171c1.073,1.522,2.146,3.044,3.221,4.565c0.026,0.036,0.033,0.104,0.107,0.089
	c0.031-0.094,0.016-0.19,0.016-0.284c0.001-4.098,0.001-8.195,0.001-12.293c0-0.383,0.015-0.399,0.391-0.399
	c1.337-0.001,2.673,0,4.01,0c0.066,0,0.132-0.002,0.197,0.006c0.134,0.016,0.18,0.06,0.195,0.193
	c0.009,0.087,0.006,0.175,0.006,0.263c0,1.855,0,3.711,0.001,5.566c0,0.065-0.025,0.139,0.029,0.202
	c0.069-0.06,0.087-0.133,0.118-0.198c0.408-0.862,0.901-1.67,1.501-2.412c0.53-0.655,1.122-1.248,1.777-1.779
	c0.816-0.662,1.703-1.207,2.665-1.627c0.934-0.408,1.904-0.696,2.916-0.839C46.687,0.087,46.879,0.039,47.072,0
	c0.818,0,1.636,0,2.454,0c0.2,0.042,0.398,0.098,0.599,0.123c0.502,0.063,0.989,0.192,1.472,0.331
	c0.895,0.259,1.743,0.629,2.548,1.097c0.818,0.476,1.567,1.043,2.249,1.699c0.194,0.187,0.192,0.246,0.006,0.43
	c-0.993,0.99-1.987,1.979-2.981,2.968c-0.026,0.026-0.051,0.053-0.079,0.076c-0.105,0.084-0.164,0.083-0.271-0.005
	c-0.034-0.028-0.063-0.061-0.095-0.091c-0.42-0.401-0.892-0.732-1.401-1.007c-0.885-0.478-1.831-0.748-2.838-0.815
	c-0.886-0.059-1.751,0.04-2.592,0.313c-1.373,0.445-2.496,1.253-3.375,2.399c-0.795,1.035-1.245,2.212-1.375,3.5
	c-0.082,0.808-0.026,1.62,0.184,2.411c0.231,0.87,0.616,1.669,1.155,2.391c0.746,1,1.695,1.743,2.842,2.235
	c0.643,0.276,1.315,0.456,2.007,0.51c0.594,0.047,1.193,0.048,1.79-0.054c0.617-0.105,1.208-0.275,1.774-0.536
	c0.88-0.406,1.645-0.965,2.29-1.693c0.504-0.569,0.906-1.198,1.201-1.897c0.017-0.04,0.036-0.08,0.048-0.122
	c0.024-0.089-0.01-0.143-0.106-0.147c-0.073-0.003-0.146-0.004-0.219-0.004c-1.914,0-3.827,0-5.741,0
	c-0.405,0-0.412-0.008-0.413-0.422c0-1.322,0-2.644,0-3.966c0-0.443,0.001-0.443,0.454-0.443c3.338,0,6.676,0,10.014,0
	c0.4,0,0.4,0,0.4-0.394c0-2.586,0-5.171,0-7.757c0-0.371,0.019-0.39,0.378-0.39c5.23,0,10.46,0,15.69,0
	c0.36,0,0.382,0.023,0.382,0.388c0.001,1.344,0,2.688,0,4.032c0,0.369-0.01,0.378-0.384,0.378c-1.921,0-3.842,0-5.763,0
	c-1.738,0-3.477,0-5.215,0c-0.265,0-0.266,0.004-0.265,0.271c0.001,1.03,0,2.06,0.001,3.09c0,0.373-0.068,0.382,0.375,0.382
	c3.623-0.001,7.246-0.001,10.869,0c0.363,0,0.382,0.02,0.382,0.386c0.001,1.351,0,2.703,0,4.054c0,0.051,0.001,0.102-0.003,0.153
	c-0.014,0.181-0.059,0.225-0.245,0.236c-0.087,0.005-0.175,0.003-0.263,0.003c-3.55,0-7.1,0-10.65,0
	c-0.08,0-0.161-0.002-0.241,0.002c-0.178,0.01-0.212,0.046-0.224,0.225c-0.002,0.036-0.002,0.073-0.002,0.11
	c0,1.001,0,2.001,0,3.002c0,0.058,0.001,0.117,0.005,0.175c0.007,0.103,0.065,0.161,0.168,0.166c0.095,0.005,0.19,0.006,0.285,0.006
	c4.317,0,8.634,0.001,12.951,0c0.397,0,0.397,0.097,0.397-0.398c-0.001-5.369,0-10.737,0-16.106c0-0.095-0.002-0.19,0.002-0.285
	c0.008-0.222,0.05-0.261,0.278-0.269c0.029-0.001,0.058-0.001,0.088-0.001c1.366,0,2.732,0,4.098,0c0.058,0,0.117-0.001,0.175,0.007
	c0.131,0.018,0.178,0.064,0.191,0.197c0.009,0.094,0.006,0.19,0.006,0.285c0,5.383,0,10.767,0,16.15c0,0.095,0.001,0.19,0.005,0.285
	c0.004,0.097,0.055,0.145,0.155,0.142c0.124-0.004,0.248-0.006,0.372-0.006c4.295,0,8.59,0,12.885,0
	c0.088,0,0.175,0.001,0.263,0.002C96.323,17.803,96.422,17.824,96.511,17.882z"/>
</svg>
