mtllib data1.mtl

v  -163.149422 0.000000 163.149422
v  -163.149422 0.000000 163.149422
v  -163.149422 0.000000 163.149422
v  163.149422 0.000000 163.149422
v  163.149422 0.000000 163.149422
v  163.149422 0.000000 163.149422
v  163.149422 0.000000 -163.149422
v  163.149422 0.000000 -163.149422
v  163.149422 0.000000 -163.149422
v  -163.149422 0.000000 -163.149422
v  -163.149422 0.000000 -163.149422
v  -163.149422 0.000000 -163.149422
v  0.000000 216.510000 163.149422
v  0.000000 216.510000 163.149422
v  0.000000 216.510000 163.149422
v  -163.149422 216.510000 163.149422
v  -163.149422 216.510000 163.149422
v  -163.149422 216.510000 163.149422
v  -163.149422 216.510000 -163.149422
v  -163.149422 216.510000 -163.149422
v  -163.149422 216.510000 -163.149422
v  163.149422 216.510000 -163.149422
v  163.149422 216.510000 -163.149422
v  163.149422 216.510000 -163.149422
v  163.149422 216.510000 0.000000
v  163.149422 216.510000 0.000000
v  163.149422 216.510000 0.000000
v  0.000000 216.510000 0.000000
v  0.000000 216.510000 0.000000
v  0.000000 216.510000 0.000000
v  163.149422 136.510000 163.149422
v  163.149422 136.510000 163.149422
v  163.149422 136.510000 163.149422
v  0.000000 136.510000 163.149422
v  0.000000 136.510000 163.149422
v  0.000000 136.510000 163.149422
v  163.149422 136.510000 0.000000
v  163.149422 136.510000 0.000000
v  163.149422 136.510000 0.000000
v  0.000000 136.510000 0.000000
v  0.000000 136.510000 0.000000
v  0.000000 136.510000 0.000000

vt  1.000000 0.946569 0.000000
vt  1.000000 0.946569 0.000000
vt  1.000000 0.946569 0.000000
vt  0.000000 0.946569 0.000000
vt  0.000000 0.946569 0.000000
vt  0.000000 0.946569 0.000000
vt  0.000000 0.000000 0.000000
vt  0.000000 0.000000 0.000000
vt  0.000000 0.000000 0.000000
vt  1.000000 0.000000 0.000000
vt  1.000000 0.000000 0.000000
vt  1.000000 0.000000 0.000000
vt  0.500000 0.862425 0.000000
vt  0.500000 0.862425 0.000000
vt  0.500000 0.862425 0.000000
vt  0.705553 0.799745 0.000000
vt  0.705553 0.799745 0.000000
vt  0.705553 0.799745 0.000000
vt  0.705553 0.146824 0.000000
vt  0.705553 0.146824 0.000000
vt  0.705553 0.146824 0.000000
vt  0.294447 0.146824 0.000000
vt  0.294447 0.146824 0.000000
vt  0.294447 0.146824 0.000000
vt  0.294447 0.473285 0.000000
vt  0.294447 0.473285 0.000000
vt  0.294447 0.473285 0.000000
vt  0.500000 0.473285 0.000000
vt  0.500000 0.473285 0.000000
vt  0.500000 0.473285 0.000000
vt  0.221777 0.867543 0.000000
vt  0.221777 0.867543 0.000000
vt  0.221777 0.867543 0.000000
vt  0.500000 1.000000 0.000000
vt  0.500000 1.000000 0.000000
vt  0.500000 1.000000 0.000000
vt  0.221777 0.473285 0.000000
vt  0.221777 0.473285 0.000000
vt  0.221777 0.473285 0.000000
vt  0.500000 0.473285 0.000000
vt  0.500000 0.473285 0.000000
vt  0.500000 0.473285 0.000000

vn  0.000000 -1.000000 0.000000
vn  0.000000 0.000000 1.000000
vn  -1.000000 0.000000 0.000000
vn  0.000000 -1.000000 0.000000
vn  0.000000 0.000000 1.000000
vn  1.000000 0.000000 0.000000
vn  0.000000 -1.000000 0.000000
vn  1.000000 0.000000 0.000000
vn  0.000000 0.000000 -1.000000
vn  0.000000 -1.000000 0.000000
vn  0.000000 0.000000 -1.000000
vn  -1.000000 0.000000 0.000000
vn  0.000000 1.000000 0.000000
vn  0.000000 0.000000 1.000000
vn  1.000000 0.000000 0.000000
vn  0.000000 1.000000 0.000000
vn  0.000000 0.000000 1.000000
vn  -1.000000 0.000000 0.000000
vn  0.000000 1.000000 0.000000
vn  0.000000 0.000000 -1.000000
vn  -1.000000 0.000000 0.000000
vn  0.000000 1.000000 0.000000
vn  1.000000 0.000000 0.000000
vn  0.000000 0.000000 -1.000000
vn  0.000000 1.000000 0.000000
vn  1.000000 0.000000 0.000000
vn  0.000000 0.000000 1.000000
vn  0.000000 1.000000 0.000000
vn  1.000000 0.000000 0.000000
vn  0.000000 0.000000 1.000000
vn  0.000000 0.000000 1.000000
vn  1.000000 0.000000 0.000000
vn  0.000000 1.000000 0.000000
vn  0.000000 0.000000 1.000000
vn  0.000000 1.000000 0.000000
vn  1.000000 0.000000 0.000000
vn  1.000000 0.000000 0.000000
vn  0.000000 1.000000 0.000000
vn  0.000000 0.000000 1.000000
vn  0.000000 1.000000 0.000000
vn  1.000000 0.000000 0.000000
vn  0.000000 0.000000 1.000000


g 0
g 1
usemtl DEFAULT_MTL
f 10/10/10  4/4/4  1/1/1
g 2
usemtl MTL0
f 17/17/17  2/2/2  5/5/5
g 3
usemtl DEFAULT_MTL
f 21/21/21  12/12/12  3/3/3
f 21/21/21  3/3/3  18/18/18
f 10/10/10  7/7/7  4/4/4
g 4
usemtl MTL1
f 32/32/32  6/6/6  8/8/8
g 5
usemtl MTL0
f 34/34/34  17/17/17  5/5/5
f 34/34/34  5/5/5  31/31/31
g 6
usemtl DEFAULT_MTL
f 24/24/24  9/9/9  11/11/11
g 7
usemtl MTL1
f 26/26/26  8/8/8  23/23/23
f 37/37/37  8/8/8  26/26/26
f 37/37/37  32/32/32  8/8/8
g 8
usemtl DEFAULT_MTL
f 24/24/24  11/11/11  20/20/20
g 9
usemtl MTL2
f 28/28/28  16/16/16  13/13/13
g 10
usemtl MTL0
f 34/34/34  14/14/14  17/17/17
g 11
usemtl DEFAULT_MTL
f 41/41/41  29/29/29  15/15/15
f 41/41/41  15/15/15  36/36/36
g 12
usemtl MTL2
f 28/28/28  19/19/19  16/16/16
f 28/28/28  22/22/22  19/19/19
f 28/28/28  25/25/25  22/22/22
g 13
usemtl DEFAULT_MTL
f 39/39/39  27/27/27  30/30/30
f 42/42/42  39/39/39  30/30/30
f 40/40/40  35/35/35  33/33/33
f 40/40/40  33/33/33  38/38/38
