<!-- Generator: Adobe Illustrator 19.0.0, SVG Export Plug-In  -->
<svg version="1.1"
	 xmlns="http://www.w3.org/2000/svg" xmlns:xlink="http://www.w3.org/1999/xlink" xmlns:a="http://ns.adobe.com/AdobeSVGViewerExtensions/3.0/"
	 x="0px" y="0px" width="89.655px" height="15.797px" viewBox="0 0 89.655 15.797"
	 style="enable-background:new 0 0 89.655 15.797;" xml:space="preserve">
<defs>
</defs>
<g id="XMLID_15_">
	<polygon id="XMLID_24_" style="fill:#040000;" points="12.33,0 7.502,7.413 12.494,15.498 15.558,15.498 10.656,7.174 15.319,0 	
		"/>
	<polygon id="XMLID_23_" style="fill:#040000;" points="27.334,0 32.46,9.012 32.46,15.513 34.956,15.513 34.956,9.161 40.456,0 
		37.616,0 33.791,6.411 30.159,0 	"/>
	<polygon id="XMLID_22_" style="fill:#040000;" points="53.473,0 53.473,15.513 55.999,15.513 55.999,4.962 62.769,15.513 
		65.115,15.513 65.115,0 62.56,0 62.56,10.312 55.999,0 	"/>
	<g id="XMLID_16_">
		<path id="XMLID_21_" style="fill:#D71718;" d="M10.357,0c0,0-7.353,0-7.368,0C1.33,0,0,1.345,0,3.004v12.793L10.357,0z"/>
		<path id="XMLID_20_" style="fill:#040000;" d="M19.847,13.032c-0.747,0-1.151-0.433-1.151-1.345V8.444h7.159V6.112h-7.159V3.617
			c0-0.897,0.404-1.33,1.151-1.33h5.126L26.408,0h-6.785c-2.72,0-3.602,1.719-3.602,3.945v7.697c0,2.361,1.629,3.871,3.826,3.871
			h6.591v-2.481L19.847,13.032z"/>
		<path id="XMLID_19_" style="fill:#040000;" d="M44.685,13.032c-0.732,0-1.136-0.433-1.136-1.345V8.444h7.144V6.112H43.55V3.617
			c0-0.897,0.418-1.33,1.136-1.33h5.126L51.246,0h-6.785c-2.72,0-3.602,1.719-3.602,3.945v7.697c0,2.361,1.644,3.871,3.826,3.871
			h6.606v-2.481L44.685,13.032z"/>
		<path id="XMLID_18_" style="fill:#040000;" d="M83.094,13.032c-0.747,0-1.151-0.433-1.151-1.345V8.444h7.144V6.112h-7.144V3.617
			c0-0.897,0.404-1.33,1.151-1.33h5.111L89.64,0h-6.785c-2.72,0-3.617,1.719-3.617,3.945v7.697c0,2.361,1.644,3.871,3.826,3.871
			h6.591v-2.481L83.094,13.032z"/>
		<path id="XMLID_17_" style="fill:#040000;" d="M71.407,13.032c-0.747,0-1.151-0.433-1.151-1.345v-8.07
			c0-0.897,0.418-1.33,1.151-1.33h5.081L77.923,0h-6.606c-2.705,0-3.602,1.719-3.602,3.945v7.697c0,2.361,1.644,3.871,3.826,3.871
			h6.367v-2.481H71.407z"/>
	</g>
</g>
</svg>
