<!-- Generator: Adobe Illustrator 19.0.0, SVG Export Plug-In  -->
<svg version="1.1"
	 xmlns="http://www.w3.org/2000/svg" xmlns:xlink="http://www.w3.org/1999/xlink" xmlns:a="http://ns.adobe.com/AdobeSVGViewerExtensions/3.0/"
	 x="0px" y="0px" width="92.479px" height="89.539px" viewBox="0 0 92.479 89.539"
	 style="enable-background:new 0 0 92.479 89.539;" xml:space="preserve">
<defs>
</defs>
<g id="XMLID_15_">
	<polygon id="XMLID_48_" style="fill:#448383;" points="72.143,29.505 74.586,35.491 74.024,35.714 72.729,33.108 71.977,33.342 
		73.463,35.937 73.092,36.149 69.368,31.193 69.368,31.193 	"/>
	<path id="XMLID_47_" style="fill:#448383;" d="M65.321,10.37l7.34,18.149l-0.742,0.425l-7.229-12.797l-2.775,1.688l7.229,12.797
		l-1.112,0.637l-9.965-13.791C61.66,16.7,64.561,13.857,65.321,10.37z"/>
	
		<rect id="XMLID_46_" x="68.194" y="26.631" transform="matrix(-0.8731 0.4876 -0.4876 -0.8731 142.7472 17.8228)" style="fill:#448383;" width="1.72" height="1.72"/>
	
		<rect id="XMLID_45_" x="66.915" y="24" transform="matrix(-0.8734 0.487 -0.487 -0.8734 139.0765 13.567)" style="fill:#448383;" width="1.72" height="1.72"/>
	
		<rect id="XMLID_44_" x="65.431" y="21.414" transform="matrix(-0.8727 0.4883 -0.4883 -0.8727 135.0181 9.3442)" style="fill:#448383;" width="1.72" height="1.72"/>
	
		<rect id="XMLID_43_" x="63.927" y="18.816" transform="matrix(-0.8731 0.4876 -0.4876 -0.8731 130.9444 5.2655)" style="fill:#448383;" width="1.72" height="1.72"/>
	<path id="XMLID_40_" style="fill:#448383;" d="M55.55,0.013c4.388-0.248,8.217,3.172,8.465,7.56s-3.172,8.217-7.56,8.465
		c-4.377,0.438-8.206-2.981-8.454-7.369C47.743,4.09,51.163,0.26,55.55,0.013z M60.211,7.979c-0.129-2.289-1.943-3.909-4.232-3.78
		c-2.289,0.129-3.909,1.943-3.78,4.232c0.129,2.289,1.943,3.909,4.232,3.78C58.529,12.093,60.329,10.077,60.211,7.979z"/>
	<path id="XMLID_39_" style="fill:#448383;" d="M55.841,5.163c1.717-0.097,2.937,1.174,3.023,2.7
		c0.097,1.717-1.163,3.128-2.689,3.214c-1.717,0.097-2.937-1.174-3.034-2.891C53.055,6.66,54.315,5.25,55.841,5.163z"/>
	<path id="XMLID_38_" style="fill:#448383;" d="M55.206,17.639L34.929,27.97c-0.054-0.954-0.288-1.706-0.903-2.437l-8.485-9.458
		l2.922-0.945l1.943,3.909l13.351-4.199l-0.258-4.578l3.2-0.946C47.137,13.693,50.786,17.314,55.206,17.639z"/>
	<polygon id="XMLID_37_" style="fill:#448383;" points="41.241,10.963 41.36,13.062 31.591,16.293 30.72,14.428 	"/>
	<path id="XMLID_36_" style="fill:#448383;" d="M33.056,26.294c1.338,1.338,0.764,4.013-1.146,5.732l-7.834,7.261
		c-0.764-5.541-5.541-9.745-11.273-9.745c-2.102,0-4.013,0.573-5.732,1.529l-1.338-1.529l12.993-12.038
		c1.911-1.72,4.586-2.102,5.923-0.573L33.056,26.294z"/>
	<path id="XMLID_35_" style="fill:#448383;" d="M25.986,40.433v49.106H15.859v-7.261H7.643c-0.191-0.764-0.764-1.338-1.338-1.529
		V66.992c0.573-0.191,1.146-0.764,1.338-1.338h4.777v7.452h7.643c0.191,0.764,0.955,1.338,1.911,1.338
		c1.146,0,1.911-0.955,1.911-1.911c0-1.146-0.955-1.911-1.911-1.911c-0.955,0-1.72,0.573-1.911,1.338h-6.496V61.642h2.293
		c0.191,0.955,0.955,1.72,1.911,1.72c1.146,0,1.911-0.955,1.911-1.911c0-1.146-0.955-1.911-1.911-1.911
		c-0.764,0-1.529,0.382-1.72,1.146h-2.484v-5.159H0V40.815h1.72c0,0.191,0,0.382,0,0.573c0,6.305,5.159,11.273,11.273,11.273
		c6.305,0,11.273-5.159,11.273-11.273c0-0.191,0-0.382,0-0.573h1.72V40.433z"/>
	<path id="XMLID_32_" style="fill:#448383;" d="M12.993,32.217c4.968,0,8.789,4.013,8.789,8.789c0,4.968-4.013,8.789-8.789,8.789
		c-4.968,0-8.789-4.013-8.789-8.789C4.013,36.039,8.025,32.217,12.993,32.217z M19.107,41.006c0-3.439-2.866-6.305-6.305-6.305
		s-6.305,2.866-6.305,6.305s2.866,6.305,6.305,6.305C16.432,47.312,19.107,44.446,19.107,41.006z"/>
	<path id="XMLID_29_" style="fill:#448383;" d="M12.993,36.803c2.293,0,4.204,1.911,4.204,4.204s-1.911,4.204-4.204,4.204
		s-4.204-1.911-4.204-4.204C8.789,38.714,10.7,36.803,12.993,36.803z M13.757,40.051v-2.293c-1.146,0-2.102,0.382-2.866,1.146
		c-0.764,0.764-1.146,1.72-1.146,2.866h2.293c0-0.382,0.191-0.955,0.573-1.146C12.802,40.242,13.375,40.051,13.757,40.051z"/>
	<path id="XMLID_28_" style="fill:#448383;" d="M14.713,83.233v6.114H0V56.292h12.42v8.025H7.643
		c-0.191-0.764-0.955-1.338-1.911-1.338c-1.146,0-1.911,0.955-1.911,1.911c0,0.955,0.573,1.72,1.338,1.911v13.757
		c-0.764,0.191-1.338,0.955-1.338,1.911c0,1.146,0.955,1.911,1.911,1.911c0.764,0,1.529-0.573,1.911-1.146L14.713,83.233z"/>
	<path id="XMLID_23_" style="fill:#448383;" d="M54.265,50.56v-1.529H53.5v2.102h30.763v8.025h0.573V50.56H54.265z M52.736,49.031
		h-0.573v3.63h30.572v6.496h0.764v-7.261H52.736V49.031z M52.163,59.158h0.573v-5.541h15.668v-0.573H52.163L52.163,59.158z
		 M53.5,59.158h0.764v-4.013h14.139v-0.764H53.5L53.5,59.158z"/>
	<rect id="XMLID_22_" x="51.59" y="59.923" style="fill:#448383;" width="33.82" height="1.911"/>
	<path id="XMLID_19_" style="fill:#448383;" d="M77.384,43.681v6.114h-6.305v-6.114H77.384z M76.62,49.031v-4.586h-4.586v4.586
		H76.62z"/>
	<path id="XMLID_18_" style="fill:#448383;" d="M77.384,43.108H71.27l1.529-0.955h3.248L77.384,43.108z"/>
	<path id="XMLID_17_" style="fill:#448383;" d="M72.799,45.21h3.057v3.057h-3.057V45.21z"/>
	<path id="XMLID_16_" style="fill:#448383;" d="M92.479,64.508v11.655c0,0.955-0.955,1.911-1.911,1.911h-1.72v11.082h-5.35V78.074
		H50.443v11.082h-5.35V78.074h-1.72c-0.955,0-1.911-0.955-1.911-1.911V64.508c0-1.146,0.955-1.911,1.911-1.911h47.386
		C91.715,62.598,92.479,63.553,92.479,64.508z"/>
</g>
</svg>
