<!-- Generator: Adobe Illustrator 19.0.0, SVG Export Plug-In  -->
<svg version="1.1"
	 xmlns="http://www.w3.org/2000/svg" xmlns:xlink="http://www.w3.org/1999/xlink" xmlns:a="http://ns.adobe.com/AdobeSVGViewerExtensions/3.0/"
	 x="0px" y="0px" width="88.35px" height="18.535px" viewBox="0 0 88.35 18.535" style="enable-background:new 0 0 88.35 18.535;"
	 xml:space="preserve">
<defs>
</defs>
<g id="XMLID_15_">
	<g id="XMLID_105_">
		<path id="XMLID_120_" style="fill:#1F286F;" d="M28.207,5.438c0,0.89,0.008,1.646,0,2.109c-0.01,0.552,0.003,1.798-0.175,2.494
			c-0.265,1.247-0.676,1.83-1.366,2.4c-0.847,0.7-1.914,0.917-2.989,0.917c-0.889,0-1.844-0.032-2.565-0.647
			c-0.721-0.615-1.293-1.507-1.641-2.563c-0.187-0.565-0.232-1.272-0.286-1.963c-0.047-0.598-0.057-1.346-0.057-2.261V5.438V0h3.854
			v6.124c0,0.69,0.056,3.177,0.169,3.426c0.113,0.249,0.301,0.374,0.565,0.374c0.264,0,0.452-0.129,0.565-0.387
			c0.113-0.258,0.169-2.74,0.169-3.414V0h3.757V5.438z"/>
		<path id="XMLID_119_" style="fill:#D91117;" d="M17.558,3.236c-0.108-0.43-0.291-0.832-0.548-1.208
			c-0.457-0.667-1.029-1.172-1.715-1.515C14.609,0.171,13.825,0,12.942,0c-0.858,0-1.643,0.177-2.353,0.532
			c-0.71,0.355-1.274,0.853-1.691,1.496C8.481,1.385,7.917,0.887,7.207,0.532C6.497,0.177,5.713,0,4.854,0
			C3.971,0,3.187,0.171,2.501,0.513C1.815,0.855,1.243,1.36,0.786,2.028C0.529,2.403,0.346,2.806,0.238,3.236
			C0.13,3.666,0.076,4.252,0.076,4.994v8.411h4.678V6.897c0-0.743,0.005-2.271,0.17-2.533C5.087,4.1,5.229,3.969,5.622,3.969
			c0.401,0,0.544,0.137,0.705,0.4c0.16,0.263,0.139,1.785,0.139,2.528v6.509h2.432h2.432V6.897c0-0.743-0.021-2.265,0.139-2.528
			c0.161-0.263,0.304-0.4,0.705-0.4c0.393,0,0.535,0.131,0.699,0.394c0.165,0.263,0.17,1.791,0.17,2.533v6.509h4.678V4.994
			C17.721,4.252,17.667,3.666,17.558,3.236z"/>
		<path id="XMLID_117_" style="fill:#1F286F;" d="M29.655,0h3.676v7.915c0,0.545,0.083,1.133,0.332,1.399
			c0.249,0.266,0.35,0.39,0.818,0.603c0.186,0.085,0.966,0.14,1.027,0.137c0.061-0.003,0.503,0.017,0.544,0.011v3.342h-1.013
			c-0.839,0-1.57-0.095-2.19-0.285c-0.621-0.19-1.167-0.483-1.638-0.882c-0.56-0.465-0.959-1.01-1.198-1.634
			c-0.239-0.624-0.358-1.628-0.358-3.012v-0.45V0z"/>
		<path id="XMLID_115_" style="fill:#1F286F;" d="M63.255,0h3.676v7.915c0,0.545,0.082,1.133,0.332,1.399
			c0.249,0.266,0.35,0.39,0.818,0.603c0.186,0.085,0.966,0.14,1.027,0.137c0.061-0.003,0.503,0.017,0.544,0.011v3.341h-1.013
			c-0.839,0-1.57-0.095-2.19-0.285c-0.621-0.19-1.167-0.483-1.638-0.881c-0.56-0.465-0.959-1.01-1.198-1.634
			c-0.239-0.624-0.358-1.628-0.358-3.012v-0.45V0z"/>
		<path id="XMLID_113_" style="fill:#1F286F;" d="M36.566,3.737V0h8.784v3.737h-2.586v9.718h-3.611V3.737H36.566z"/>
		<path id="XMLID_111_" style="fill:#1F286F;" d="M47.049,13.406V0h3.824v13.406H47.049z"/>
		<path id="XMLID_110_" style="fill:#1F286F;" d="M60.671,1.317c-0.842-0.837-1.876-1.271-3.095-1.309V0h-2.924H52.75v1.371v3.795
			v1.398v6.891h3.692V5.132c0-0.667,0-1.755,0-1.755s0.657-0.033,1.025-0.033c0.282,0,0.524,0.1,0.724,0.299
			c0.2,0.2,0.301,0.439,0.301,0.718c0,0.302-0.102,0.55-0.305,0.744c-0.203,0.194-0.466,0.291-0.787,0.291
			c-0.062,0-0.11-0.001-0.144-0.004C57.221,5.39,57.19,5.386,57.162,5.38v3.096c0.085,0.006,0.174,0.01,0.267,0.013
			c0.093,0.003,0.216,0.004,0.368,0.004c1.23,0,2.238-0.366,3.023-1.099c0.785-0.733,1.177-1.678,1.177-2.835
			C61.997,3.276,61.555,2.195,60.671,1.317z"/>
		<path id="XMLID_107_" style="fill:#1F286F;" d="M80.174,3.685c-0.155-0.623-0.406-1.19-0.752-1.702
			c-0.44-0.629-1-1.117-1.681-1.464C77.061,0.173,76.321,0,75.523,0c-1.158,0-2.143,0.316-2.957,0.948
			C71.751,1.58,71.19,2.469,70.88,3.615c-0.087,0.323-0.15,0.667-0.19,1.032c-0.04,0.365-0.06,0.905-0.06,1.622v7.137h3.471v-3.293
			h1.728v-0.001h1.297v3.294h3.281V6.268C80.407,5.169,80.329,4.308,80.174,3.685z M75.829,7.585h-1.728V5.343
			c0-0.547,0.06-0.917,0.181-1.111c0.121-0.194,0.46-0.732,1.297-0.72c1.111,0.016,1.302,0.53,1.399,0.763
			c0.115,0.278,0.149,0.562,0.149,1.067v2.243H75.829z"/>
		<path id="XMLID_106_" style="fill:#D91117;" d="M80.98,13.395c0.84,0.017,1.539,0.011,2.05,0c0.871-0.018,1.137-0.048,1.444-0.117
			c0.45-0.102,1.022-0.238,1.561-0.705c0.309-0.267,0.573-0.47,0.784-0.785c0.188-0.281,0.424-0.634,0.552-1.099
			c0.155-0.563,0.117-1.047,0.114-1.524c-0.005-0.706-0.121-1.233-0.223-1.684c-0.138-0.611-0.29-1.042-0.558-1.802
			c-0.218-0.619-0.417-1.132-0.658-1.741c-0.064-0.162-0.126-0.605-0.048-0.961c0,0,0.022-0.404,0.335-0.587
			c0.407-0.24,1.15-0.225,2.016-0.202c0,0,0-2.177,0-2.177c-0.84-0.017-1.539-0.011-2.05,0c-0.871,0.018-1.137,0.048-1.444,0.117
			c-0.45,0.102-1.022,0.238-1.561,0.705c-0.309,0.267-0.559,0.547-0.77,0.862c-0.188,0.281-0.339,0.601-0.494,1.057
			c-0.188,0.553-0.189,1.012-0.186,1.488c0.005,0.706,0.121,1.233,0.223,1.684c0.138,0.611,0.29,1.042,0.558,1.802
			c0.218,0.619,0.417,1.132,0.658,1.741c0.064,0.162,0.126,0.605,0.048,0.961c0,0-0.022,0.404-0.335,0.587
			c-0.407,0.24-1.15,0.225-2.016,0.202C80.98,11.218,80.98,13.395,80.98,13.395z"/>
	</g>
	<g id="XMLID_16_">
		<rect id="XMLID_104_" y="14.344" style="fill:#1F286F;" width="88.274" height="4.191"/>
		<g id="XMLID_17_">
			<path id="XMLID_101_" style="fill:#FFFFFF;" d="M7.73,15.21h1.161c0.253,0,0.424,0.059,0.514,0.178
				c0.09,0.118,0.101,0.287,0.034,0.506c-0.069,0.225-0.191,0.401-0.367,0.528c-0.176,0.127-0.405,0.19-0.686,0.19H8.003
				L7.75,17.438H7.049L7.73,15.21z M8.141,16.16h0.171c0.135,0,0.236-0.023,0.305-0.069c0.069-0.046,0.114-0.105,0.136-0.177
				c0.021-0.07,0.016-0.129-0.017-0.178c-0.032-0.049-0.114-0.073-0.244-0.073H8.293L8.141,16.16z"/>
			<path id="XMLID_98_" style="fill:#FFFFFF;" d="M11.226,16.785H9.968c-0.019,0.099-0.014,0.173,0.014,0.222
				c0.039,0.07,0.108,0.105,0.206,0.105c0.061,0,0.125-0.015,0.19-0.046c0.04-0.019,0.086-0.053,0.14-0.102l0.601,0.056
				c-0.144,0.162-0.294,0.278-0.449,0.349c-0.155,0.07-0.358,0.106-0.607,0.106c-0.217,0-0.378-0.03-0.484-0.091
				c-0.106-0.06-0.18-0.156-0.221-0.287c-0.042-0.131-0.035-0.285,0.019-0.463c0.077-0.252,0.221-0.456,0.433-0.613
				c0.212-0.156,0.462-0.234,0.751-0.234c0.234,0,0.409,0.035,0.523,0.105c0.114,0.07,0.187,0.171,0.217,0.304
				c0.03,0.133,0.013,0.306-0.052,0.518L11.226,16.785z M10.678,16.488c0.024-0.119,0.017-0.205-0.019-0.257
				c-0.037-0.052-0.099-0.077-0.185-0.077c-0.1,0-0.191,0.039-0.275,0.117c-0.053,0.049-0.099,0.121-0.139,0.217H10.678z"/>
			<path id="XMLID_96_" style="fill:#FFFFFF;" d="M11.813,15.824h0.587l-0.081,0.264c0.091-0.114,0.174-0.193,0.247-0.236
				c0.073-0.043,0.154-0.065,0.242-0.065c0.092,0,0.185,0.028,0.278,0.085l-0.329,0.441c-0.065-0.03-0.118-0.046-0.162-0.046
				c-0.082,0-0.156,0.033-0.222,0.1c-0.093,0.094-0.18,0.27-0.258,0.529l-0.166,0.541H11.32L11.813,15.824z"/>
			<path id="XMLID_94_" style="fill:#FFFFFF;" d="M13.906,15.824h0.299l-0.138,0.453h-0.299l-0.355,1.161h-0.629l0.355-1.161h-0.234
				l0.138-0.453h0.234l0.023-0.073c0.02-0.066,0.049-0.138,0.088-0.217c0.039-0.079,0.085-0.144,0.14-0.194
				c0.055-0.05,0.123-0.091,0.203-0.122c0.081-0.031,0.19-0.046,0.328-0.046c0.11,0,0.266,0.013,0.468,0.038l-0.184,0.374
				c-0.071-0.012-0.13-0.018-0.176-0.018c-0.056,0-0.1,0.01-0.13,0.028c-0.03,0.019-0.057,0.048-0.08,0.089
				C13.946,15.705,13.928,15.752,13.906,15.824z"/>
			<path id="XMLID_91_" style="fill:#FFFFFF;" d="M15.907,16.785h-1.258c-0.019,0.099-0.014,0.173,0.014,0.222
				c0.039,0.07,0.108,0.105,0.206,0.105c0.061,0,0.125-0.015,0.19-0.046c0.04-0.019,0.086-0.053,0.14-0.102l0.601,0.056
				c-0.144,0.162-0.294,0.278-0.449,0.349c-0.155,0.07-0.358,0.106-0.607,0.106c-0.217,0-0.378-0.03-0.484-0.091
				c-0.106-0.06-0.18-0.156-0.221-0.287c-0.042-0.131-0.035-0.285,0.019-0.463c0.077-0.252,0.221-0.456,0.433-0.613
				c0.212-0.156,0.462-0.234,0.751-0.234c0.234,0,0.409,0.035,0.523,0.105s0.187,0.171,0.217,0.304
				c0.03,0.133,0.013,0.306-0.052,0.518L15.907,16.785z M15.359,16.488c0.024-0.119,0.017-0.205-0.019-0.257
				c-0.037-0.052-0.099-0.077-0.185-0.077c-0.1,0-0.191,0.039-0.275,0.117c-0.053,0.049-0.099,0.121-0.139,0.217H15.359z"/>
			<path id="XMLID_89_" style="fill:#FFFFFF;" d="M17.409,16.806l0.576,0.067c-0.071,0.123-0.157,0.229-0.259,0.318
				c-0.102,0.09-0.22,0.159-0.351,0.209c-0.132,0.05-0.288,0.074-0.467,0.074c-0.174,0-0.313-0.016-0.419-0.048
				c-0.106-0.032-0.19-0.083-0.251-0.155c-0.062-0.072-0.101-0.155-0.119-0.251c-0.018-0.096-0.002-0.224,0.046-0.383
				c0.051-0.166,0.122-0.304,0.213-0.414c0.067-0.081,0.147-0.154,0.239-0.218c0.093-0.064,0.182-0.112,0.269-0.143
				c0.138-0.05,0.302-0.074,0.493-0.074c0.267,0,0.457,0.047,0.568,0.141c0.112,0.094,0.168,0.232,0.169,0.413l-0.614,0.078
				c0.003-0.069-0.015-0.121-0.053-0.156c-0.038-0.035-0.098-0.052-0.18-0.052c-0.104,0-0.199,0.037-0.285,0.11
				c-0.087,0.073-0.153,0.184-0.198,0.333c-0.041,0.132-0.04,0.233,0.003,0.302c0.043,0.069,0.113,0.103,0.212,0.103
				c0.082,0,0.158-0.021,0.226-0.062C17.293,16.956,17.355,16.892,17.409,16.806z"/>
			<path id="XMLID_87_" style="fill:#FFFFFF;" d="M19.538,15.21l-0.188,0.614h0.345l-0.139,0.453h-0.345l-0.175,0.572
				c-0.021,0.069-0.028,0.114-0.021,0.136c0.01,0.034,0.041,0.052,0.092,0.052c0.046,0,0.115-0.013,0.206-0.039l-0.084,0.427
				c-0.165,0.034-0.315,0.05-0.45,0.05c-0.156,0-0.265-0.02-0.327-0.059c-0.062-0.039-0.099-0.099-0.109-0.18
				c-0.011-0.08,0.011-0.211,0.066-0.391l0.173-0.568h-0.231l0.138-0.453h0.231l0.091-0.296L19.538,15.21z"/>
			<path id="XMLID_85_" style="fill:#FFFFFF;" d="M21.752,16.701l0.677-0.041c-0.019,0.106-0.014,0.188,0.013,0.243
				c0.044,0.09,0.133,0.135,0.267,0.135c0.1,0,0.184-0.023,0.252-0.069c0.068-0.046,0.111-0.1,0.13-0.16
				c0.018-0.058,0.008-0.109-0.03-0.155c-0.037-0.046-0.143-0.088-0.318-0.129c-0.285-0.068-0.476-0.158-0.573-0.271
				c-0.097-0.112-0.119-0.256-0.066-0.43c0.035-0.115,0.102-0.223,0.2-0.324c0.098-0.102,0.224-0.182,0.377-0.24
				s0.347-0.087,0.582-0.087c0.289,0,0.493,0.053,0.612,0.159c0.119,0.106,0.158,0.274,0.116,0.505l-0.67,0.038
				c0.013-0.1-0.001-0.173-0.043-0.219c-0.042-0.046-0.112-0.069-0.211-0.069c-0.081,0-0.148,0.017-0.199,0.051
				c-0.052,0.034-0.085,0.075-0.1,0.124c-0.011,0.035-0.004,0.068,0.022,0.096c0.024,0.029,0.093,0.057,0.209,0.082
				c0.285,0.065,0.484,0.13,0.596,0.197c0.112,0.066,0.182,0.149,0.213,0.247c0.03,0.098,0.026,0.208-0.011,0.33
				c-0.044,0.143-0.124,0.275-0.241,0.395c-0.117,0.121-0.257,0.212-0.42,0.274c-0.163,0.062-0.354,0.093-0.573,0.093
				c-0.385,0-0.628-0.073-0.731-0.219S21.703,16.926,21.752,16.701z"/>
			<path id="XMLID_82_" style="fill:#FFFFFF;" d="M24.055,16.636c0.075-0.246,0.222-0.449,0.439-0.609
				c0.217-0.16,0.469-0.239,0.756-0.239c0.328,0,0.547,0.094,0.657,0.281c0.088,0.151,0.099,0.337,0.031,0.558
				c-0.076,0.248-0.221,0.452-0.437,0.61c-0.216,0.159-0.471,0.238-0.766,0.238c-0.263,0-0.456-0.066-0.578-0.198
				C24.008,17.114,23.974,16.9,24.055,16.636z M24.684,16.634c-0.044,0.144-0.047,0.25-0.009,0.319
				c0.038,0.069,0.102,0.103,0.191,0.103c0.091,0,0.175-0.034,0.254-0.102c0.079-0.068,0.141-0.177,0.187-0.327
				c0.043-0.14,0.045-0.244,0.008-0.312c-0.038-0.068-0.1-0.103-0.186-0.103c-0.092,0-0.178,0.035-0.258,0.104
				C24.79,16.387,24.727,16.492,24.684,16.634z"/>
			<path id="XMLID_80_" style="fill:#FFFFFF;" d="M26.695,15.21h0.629l-0.681,2.228h-0.629L26.695,15.21z"/>
			<path id="XMLID_78_" style="fill:#FFFFFF;" d="M28.768,17.438h-0.586l0.08-0.261c-0.12,0.108-0.232,0.184-0.334,0.23
				s-0.219,0.068-0.349,0.068c-0.173,0-0.292-0.051-0.36-0.153c-0.067-0.102-0.068-0.258-0.003-0.47l0.314-1.027h0.63l-0.271,0.887
				c-0.031,0.101-0.034,0.173-0.009,0.216c0.025,0.043,0.072,0.064,0.141,0.064c0.075,0,0.145-0.028,0.21-0.085
				c0.065-0.057,0.12-0.159,0.165-0.305l0.237-0.777h0.627L28.768,17.438z"/>
			<path id="XMLID_76_" style="fill:#FFFFFF;" d="M30.587,15.21l-0.188,0.614h0.345l-0.139,0.453H30.26l-0.175,0.572
				c-0.021,0.069-0.028,0.114-0.021,0.136c0.01,0.034,0.041,0.052,0.092,0.052c0.046,0,0.115-0.013,0.206-0.039l-0.084,0.427
				c-0.165,0.034-0.315,0.05-0.45,0.05c-0.156,0-0.265-0.02-0.327-0.059c-0.062-0.039-0.099-0.099-0.109-0.18
				c-0.011-0.08,0.011-0.211,0.066-0.391l0.173-0.568h-0.231l0.138-0.453h0.231l0.091-0.296L30.587,15.21z"/>
			<path id="XMLID_73_" style="fill:#FFFFFF;" d="M31.066,15.824h0.627L31.2,17.438h-0.627L31.066,15.824z M31.254,15.21h0.627
				l-0.129,0.421h-0.627L31.254,15.21z"/>
			<path id="XMLID_70_" style="fill:#FFFFFF;" d="M31.769,16.636c0.075-0.246,0.221-0.449,0.439-0.609
				c0.217-0.16,0.469-0.239,0.756-0.239c0.328,0,0.547,0.094,0.657,0.281c0.088,0.151,0.099,0.337,0.031,0.558
				c-0.076,0.248-0.221,0.452-0.437,0.61c-0.216,0.159-0.471,0.238-0.766,0.238c-0.263,0-0.456-0.066-0.578-0.198
				C31.723,17.114,31.688,16.9,31.769,16.636z M32.398,16.634c-0.044,0.144-0.047,0.25-0.009,0.319
				c0.038,0.069,0.102,0.103,0.191,0.103c0.09,0,0.175-0.034,0.254-0.102c0.079-0.068,0.141-0.177,0.187-0.327
				c0.043-0.14,0.045-0.244,0.008-0.312c-0.038-0.068-0.1-0.103-0.186-0.103c-0.092,0-0.178,0.035-0.258,0.104
				C32.504,16.387,32.442,16.492,32.398,16.634z"/>
			<path id="XMLID_68_" style="fill:#FFFFFF;" d="M34.2,15.824h0.584l-0.08,0.263c0.12-0.107,0.232-0.184,0.335-0.23
				s0.219-0.069,0.348-0.069c0.173,0,0.294,0.051,0.361,0.153c0.067,0.102,0.068,0.259,0.003,0.472l-0.314,1.026h-0.631l0.271-0.887
				c0.031-0.101,0.034-0.173,0.009-0.215c-0.025-0.042-0.072-0.063-0.141-0.063c-0.076,0-0.146,0.028-0.211,0.085
				c-0.065,0.057-0.119,0.158-0.164,0.305l-0.237,0.775h-0.627L34.2,15.824z"/>
			<path id="XMLID_66_" style="fill:#FFFFFF;" d="M35.838,16.99l0.64-0.058c0.003,0.073,0.024,0.125,0.06,0.157
				c0.037,0.032,0.093,0.047,0.17,0.047c0.084,0,0.155-0.018,0.212-0.053c0.044-0.026,0.072-0.059,0.084-0.099
				c0.014-0.044,0-0.079-0.04-0.103c-0.029-0.017-0.112-0.038-0.25-0.064c-0.207-0.037-0.347-0.072-0.422-0.104
				c-0.075-0.032-0.13-0.086-0.165-0.162c-0.035-0.076-0.038-0.162-0.008-0.26c0.033-0.106,0.092-0.198,0.178-0.275
				c0.086-0.077,0.19-0.134,0.312-0.172c0.121-0.038,0.274-0.057,0.459-0.057c0.195,0,0.335,0.015,0.419,0.044
				c0.084,0.029,0.148,0.075,0.191,0.137c0.043,0.062,0.069,0.145,0.078,0.251l-0.613,0.058c0-0.052-0.014-0.09-0.042-0.114
				c-0.039-0.032-0.094-0.049-0.164-0.049c-0.071,0-0.126,0.012-0.166,0.037c-0.04,0.025-0.065,0.055-0.076,0.09
				c-0.012,0.039-0.001,0.069,0.034,0.09c0.035,0.02,0.119,0.038,0.252,0.055c0.201,0.023,0.346,0.056,0.435,0.097
				c0.089,0.042,0.149,0.101,0.18,0.177c0.03,0.077,0.032,0.162,0.003,0.253c-0.029,0.093-0.085,0.184-0.169,0.272
				c-0.084,0.088-0.195,0.158-0.334,0.21c-0.139,0.052-0.314,0.078-0.525,0.078c-0.299,0-0.499-0.042-0.6-0.126
				C35.872,17.264,35.827,17.145,35.838,16.99z"/>
			<path id="XMLID_64_" style="fill:#FFFFFF;" d="M41.037,15.824h0.299l-0.139,0.453h-0.299l-0.355,1.161h-0.629l0.355-1.161h-0.235
				l0.139-0.453h0.234l0.022-0.073c0.02-0.066,0.05-0.138,0.088-0.217c0.039-0.079,0.085-0.144,0.14-0.194
				c0.055-0.05,0.123-0.091,0.203-0.122c0.081-0.031,0.19-0.046,0.328-0.046c0.11,0,0.266,0.013,0.468,0.038l-0.184,0.374
				c-0.072-0.012-0.13-0.018-0.176-0.018c-0.057,0-0.1,0.01-0.131,0.028c-0.03,0.019-0.057,0.048-0.08,0.089
				C41.076,15.705,41.059,15.752,41.037,15.824z"/>
			<path id="XMLID_61_" style="fill:#FFFFFF;" d="M41.189,16.636c0.075-0.246,0.221-0.449,0.439-0.609
				c0.217-0.16,0.469-0.239,0.756-0.239c0.328,0,0.547,0.094,0.657,0.281c0.088,0.151,0.099,0.337,0.031,0.558
				c-0.076,0.248-0.221,0.452-0.437,0.61c-0.216,0.159-0.471,0.238-0.766,0.238c-0.263,0-0.456-0.066-0.578-0.198
				C41.142,17.114,41.108,16.9,41.189,16.636z M41.818,16.634c-0.044,0.144-0.047,0.25-0.009,0.319
				c0.038,0.069,0.102,0.103,0.191,0.103c0.09,0,0.175-0.034,0.254-0.102c0.079-0.068,0.141-0.177,0.187-0.327
				c0.043-0.14,0.045-0.244,0.008-0.312c-0.038-0.068-0.1-0.103-0.186-0.103c-0.092,0-0.178,0.035-0.258,0.104
				C41.923,16.387,41.861,16.492,41.818,16.634z"/>
			<path id="XMLID_59_" style="fill:#FFFFFF;" d="M43.625,15.824h0.587l-0.081,0.264c0.091-0.114,0.174-0.193,0.247-0.236
				c0.073-0.043,0.154-0.065,0.242-0.065c0.092,0,0.185,0.028,0.278,0.085l-0.329,0.441c-0.064-0.03-0.118-0.046-0.162-0.046
				c-0.082,0-0.156,0.033-0.222,0.1c-0.093,0.094-0.18,0.27-0.258,0.529l-0.166,0.541h-0.631L43.625,15.824z"/>
			<path id="XMLID_57_" style="fill:#FFFFFF;" d="M47.196,15.21h2.122l-0.168,0.55h-0.712l-0.513,1.677h-0.698l0.513-1.677h-0.712
				L47.196,15.21z"/>
			<path id="XMLID_54_" style="fill:#FFFFFF;" d="M50.74,16.785h-1.258c-0.019,0.099-0.014,0.173,0.014,0.222
				c0.039,0.07,0.108,0.105,0.206,0.105c0.061,0,0.125-0.015,0.19-0.046c0.04-0.019,0.086-0.053,0.14-0.102l0.601,0.056
				c-0.144,0.162-0.294,0.278-0.449,0.349c-0.155,0.07-0.358,0.106-0.607,0.106c-0.217,0-0.378-0.03-0.484-0.091
				c-0.106-0.06-0.18-0.156-0.221-0.287c-0.042-0.131-0.035-0.285,0.019-0.463c0.077-0.252,0.221-0.456,0.433-0.613
				c0.212-0.156,0.462-0.234,0.751-0.234c0.234,0,0.409,0.035,0.523,0.105c0.114,0.07,0.187,0.171,0.217,0.304
				c0.03,0.133,0.013,0.306-0.052,0.518L50.74,16.785z M50.192,16.488c0.024-0.119,0.017-0.205-0.019-0.257
				c-0.037-0.052-0.099-0.077-0.185-0.077c-0.1,0-0.191,0.039-0.275,0.117c-0.053,0.049-0.099,0.121-0.139,0.217H50.192z"/>
			<path id="XMLID_52_" style="fill:#FFFFFF;" d="M52.242,16.806l0.576,0.067c-0.071,0.123-0.157,0.229-0.259,0.318
				c-0.102,0.09-0.22,0.159-0.351,0.209c-0.132,0.05-0.288,0.074-0.467,0.074c-0.174,0-0.313-0.016-0.419-0.048
				c-0.106-0.032-0.19-0.083-0.251-0.155c-0.062-0.072-0.101-0.155-0.119-0.251c-0.018-0.096-0.002-0.224,0.046-0.383
				c0.051-0.166,0.122-0.304,0.213-0.414c0.067-0.081,0.147-0.154,0.239-0.218c0.093-0.064,0.182-0.112,0.269-0.143
				c0.138-0.05,0.302-0.074,0.493-0.074c0.267,0,0.457,0.047,0.568,0.141c0.112,0.094,0.168,0.232,0.169,0.413l-0.614,0.078
				c0.003-0.069-0.015-0.121-0.053-0.156c-0.038-0.035-0.098-0.052-0.18-0.052c-0.104,0-0.199,0.037-0.285,0.11
				c-0.087,0.073-0.153,0.184-0.198,0.333c-0.041,0.132-0.04,0.233,0.003,0.302c0.043,0.069,0.113,0.103,0.212,0.103
				c0.082,0,0.158-0.021,0.226-0.062C52.126,16.956,52.188,16.892,52.242,16.806z"/>
			<path id="XMLID_50_" style="fill:#FFFFFF;" d="M53.561,15.21h0.627l-0.251,0.821c0.112-0.087,0.216-0.149,0.311-0.187
				c0.096-0.037,0.201-0.056,0.316-0.056c0.171,0,0.289,0.051,0.356,0.153c0.067,0.102,0.068,0.26,0.003,0.471l-0.314,1.026H53.98
				l0.271-0.887c0.031-0.101,0.034-0.173,0.009-0.215c-0.025-0.042-0.072-0.063-0.141-0.063c-0.076,0-0.146,0.028-0.211,0.085
				c-0.064,0.057-0.119,0.158-0.164,0.305l-0.237,0.775h-0.627L53.561,15.21z"/>
			<path id="XMLID_48_" style="fill:#FFFFFF;" d="M55.478,15.824h0.584l-0.08,0.263c0.12-0.107,0.232-0.184,0.336-0.23
				c0.103-0.046,0.219-0.069,0.348-0.069c0.173,0,0.294,0.051,0.361,0.153c0.067,0.102,0.068,0.259,0.003,0.472l-0.314,1.026h-0.631
				l0.271-0.887c0.031-0.101,0.034-0.173,0.009-0.215c-0.025-0.042-0.072-0.063-0.141-0.063c-0.076,0-0.146,0.028-0.211,0.085
				c-0.064,0.057-0.119,0.158-0.164,0.305l-0.237,0.775h-0.627L55.478,15.824z"/>
			<path id="XMLID_45_" style="fill:#FFFFFF;" d="M57.607,15.824h0.627l-0.493,1.614h-0.627L57.607,15.824z M57.794,15.21h0.627
				l-0.129,0.421h-0.627L57.794,15.21z"/>
			<path id="XMLID_43_" style="fill:#FFFFFF;" d="M59.556,16.806l0.576,0.067c-0.071,0.123-0.157,0.229-0.259,0.318
				c-0.102,0.09-0.22,0.159-0.351,0.209c-0.132,0.05-0.288,0.074-0.467,0.074c-0.174,0-0.313-0.016-0.419-0.048
				c-0.106-0.032-0.19-0.083-0.251-0.155c-0.062-0.072-0.101-0.155-0.119-0.251c-0.018-0.096-0.002-0.224,0.046-0.383
				c0.051-0.166,0.122-0.304,0.213-0.414c0.067-0.081,0.147-0.154,0.239-0.218c0.093-0.064,0.182-0.112,0.269-0.143
				c0.138-0.05,0.302-0.074,0.493-0.074c0.267,0,0.457,0.047,0.568,0.141c0.112,0.094,0.168,0.232,0.169,0.413l-0.614,0.078
				c0.003-0.069-0.015-0.121-0.053-0.156c-0.038-0.035-0.098-0.052-0.18-0.052c-0.104,0-0.199,0.037-0.285,0.11
				c-0.087,0.073-0.153,0.184-0.198,0.333c-0.041,0.132-0.04,0.233,0.003,0.302c0.043,0.069,0.113,0.103,0.212,0.103
				c0.082,0,0.158-0.021,0.226-0.062C59.44,16.956,59.502,16.892,59.556,16.806z"/>
			<path id="XMLID_40_" style="fill:#FFFFFF;" d="M61.153,16.347l-0.581-0.062c0.054-0.103,0.112-0.185,0.172-0.244
				c0.061-0.059,0.138-0.111,0.231-0.154c0.067-0.032,0.154-0.056,0.26-0.073c0.106-0.017,0.218-0.026,0.335-0.026
				c0.188,0,0.336,0.01,0.444,0.031c0.108,0.021,0.19,0.064,0.246,0.13c0.04,0.046,0.062,0.11,0.067,0.194
				c0.005,0.083-0.004,0.163-0.027,0.239l-0.218,0.713c-0.023,0.076-0.037,0.136-0.04,0.179c-0.003,0.043,0.001,0.098,0.014,0.165
				h-0.589c-0.011-0.042-0.016-0.073-0.017-0.095c-0.001-0.022,0.003-0.056,0.01-0.103c-0.106,0.078-0.205,0.134-0.296,0.167
				c-0.124,0.045-0.26,0.067-0.407,0.067c-0.195,0-0.33-0.044-0.404-0.134c-0.074-0.089-0.091-0.199-0.051-0.33
				c0.038-0.123,0.105-0.224,0.202-0.302c0.097-0.079,0.25-0.138,0.458-0.176c0.249-0.047,0.412-0.079,0.488-0.098
				c0.075-0.019,0.157-0.043,0.245-0.074c0.023-0.076,0.023-0.129,0.001-0.159c-0.023-0.03-0.074-0.046-0.154-0.046
				c-0.103,0-0.185,0.016-0.246,0.049C61.245,16.23,61.199,16.277,61.153,16.347z M61.597,16.672
				c-0.096,0.03-0.194,0.057-0.294,0.081c-0.138,0.034-0.229,0.066-0.273,0.099c-0.045,0.034-0.074,0.072-0.087,0.114
				c-0.015,0.048-0.01,0.088,0.015,0.119c0.025,0.031,0.071,0.046,0.138,0.046c0.069,0,0.14-0.017,0.21-0.05
				c0.07-0.033,0.125-0.074,0.165-0.122c0.04-0.048,0.072-0.111,0.095-0.188L61.597,16.672z"/>
			<path id="XMLID_38_" style="fill:#FFFFFF;" d="M63.055,15.21h0.629l-0.681,2.228h-0.629L63.055,15.21z"/>
			<path id="XMLID_36_" style="fill:#FFFFFF;" d="M66.224,15.21h0.918l-0.06,1.356l0.766-1.356h0.918l-0.681,2.228h-0.572
				l0.52-1.699l-0.96,1.699h-0.517l0.079-1.699l-0.519,1.699h-0.572L66.224,15.21z"/>
			<path id="XMLID_33_" style="fill:#FFFFFF;" d="M68.657,16.636c0.075-0.246,0.221-0.449,0.439-0.609
				c0.217-0.16,0.469-0.239,0.756-0.239c0.328,0,0.547,0.094,0.657,0.281c0.088,0.151,0.099,0.337,0.031,0.558
				c-0.076,0.248-0.221,0.452-0.437,0.61c-0.216,0.159-0.471,0.238-0.766,0.238c-0.263,0-0.456-0.066-0.578-0.198
				C68.61,17.114,68.576,16.9,68.657,16.636z M69.286,16.634c-0.044,0.144-0.047,0.25-0.009,0.319
				c0.038,0.069,0.102,0.103,0.191,0.103c0.09,0,0.175-0.034,0.254-0.102c0.079-0.068,0.141-0.177,0.187-0.327
				c0.043-0.14,0.045-0.244,0.008-0.312c-0.038-0.068-0.1-0.103-0.186-0.103c-0.092,0-0.178,0.035-0.258,0.104
				C69.392,16.387,69.329,16.492,69.286,16.634z"/>
			<path id="XMLID_31_" style="fill:#FFFFFF;" d="M72.319,17.438h-0.586l0.08-0.261c-0.12,0.108-0.232,0.184-0.334,0.23
				c-0.103,0.046-0.219,0.068-0.349,0.068c-0.173,0-0.292-0.051-0.36-0.153c-0.067-0.102-0.068-0.258-0.003-0.47l0.314-1.027h0.63
				l-0.271,0.887c-0.031,0.101-0.034,0.173-0.009,0.216c0.025,0.043,0.072,0.064,0.141,0.064c0.075,0,0.145-0.028,0.21-0.085
				c0.065-0.057,0.12-0.159,0.165-0.305l0.237-0.777h0.627L72.319,17.438z"/>
			<path id="XMLID_29_" style="fill:#FFFFFF;" d="M73.402,15.21h0.629l-0.681,2.228h-0.629L73.402,15.21z"/>
			<path id="XMLID_26_" style="fill:#FFFFFF;" d="M76.155,15.21l-0.681,2.228h-0.587l0.073-0.239
				c-0.113,0.101-0.209,0.17-0.288,0.205c-0.105,0.047-0.212,0.07-0.323,0.07c-0.223,0-0.368-0.084-0.435-0.251
				c-0.066-0.167-0.063-0.37,0.01-0.609c0.082-0.267,0.209-0.472,0.383-0.614c0.173-0.142,0.36-0.213,0.56-0.213
				c0.098,0,0.181,0.016,0.251,0.048c0.07,0.033,0.126,0.081,0.168,0.146l0.236-0.772H76.155z M75.093,16.627
				c0.039-0.127,0.04-0.221,0.005-0.283c-0.035-0.062-0.095-0.093-0.178-0.093c-0.073,0-0.144,0.03-0.211,0.09
				c-0.068,0.06-0.123,0.16-0.166,0.301c-0.04,0.132-0.044,0.228-0.012,0.289c0.032,0.061,0.086,0.092,0.161,0.092
				c0.08,0,0.156-0.031,0.229-0.093S75.051,16.766,75.093,16.627z"/>
			<path id="XMLID_23_" style="fill:#FFFFFF;" d="M76.373,15.824H77l-0.493,1.614h-0.627L76.373,15.824z M76.561,15.21h0.627
				l-0.129,0.421h-0.627L76.561,15.21z"/>
			<path id="XMLID_21_" style="fill:#FFFFFF;" d="M77.401,15.824h0.584l-0.08,0.263c0.12-0.107,0.232-0.184,0.336-0.23
				c0.103-0.046,0.219-0.069,0.348-0.069c0.173,0,0.294,0.051,0.361,0.153c0.067,0.102,0.068,0.259,0.003,0.472l-0.314,1.026h-0.631
				l0.271-0.887c0.031-0.101,0.034-0.173,0.009-0.215c-0.025-0.042-0.072-0.063-0.141-0.063c-0.076,0-0.146,0.028-0.211,0.085
				c-0.064,0.057-0.119,0.158-0.164,0.305l-0.237,0.775h-0.627L77.401,15.824z"/>
			<path id="XMLID_18_" style="fill:#FFFFFF;" d="M80.645,15.824h0.587l-0.466,1.524l-0.02,0.071
				c-0.031,0.101-0.082,0.198-0.154,0.289c-0.072,0.092-0.152,0.166-0.242,0.223c-0.09,0.057-0.194,0.098-0.314,0.123
				c-0.119,0.025-0.251,0.038-0.395,0.038c-0.329,0-0.54-0.048-0.633-0.146c-0.093-0.097-0.114-0.227-0.065-0.39
				c0.006-0.02,0.015-0.048,0.028-0.082l0.588,0.068c-0.002,0.056,0.011,0.094,0.036,0.115c0.036,0.032,0.09,0.047,0.16,0.047
				c0.091,0,0.165-0.024,0.225-0.072c0.059-0.047,0.107-0.131,0.143-0.249l0.075-0.244c-0.084,0.072-0.161,0.124-0.233,0.157
				c-0.112,0.051-0.224,0.076-0.336,0.076c-0.219,0-0.367-0.094-0.444-0.283c-0.055-0.134-0.048-0.31,0.019-0.53
				c0.077-0.251,0.197-0.443,0.36-0.574c0.164-0.132,0.345-0.198,0.545-0.198c0.127,0,0.226,0.021,0.296,0.064
				c0.069,0.042,0.125,0.113,0.167,0.211L80.645,15.824z M79.816,16.607c-0.036,0.116-0.037,0.203-0.004,0.259
				c0.033,0.056,0.091,0.084,0.173,0.084c0.078,0,0.153-0.029,0.223-0.087c0.071-0.058,0.124-0.146,0.16-0.264
				c0.036-0.118,0.035-0.207-0.001-0.27c-0.036-0.062-0.095-0.093-0.175-0.093c-0.08,0-0.153,0.029-0.218,0.086
				C79.909,16.379,79.856,16.474,79.816,16.607z"/>
		</g>
	</g>
</g>
</svg>
