<!-- Generator: Adobe Illustrator 19.0.0, SVG Export Plug-In  -->
<svg version="1.1"
	 xmlns="http://www.w3.org/2000/svg" xmlns:xlink="http://www.w3.org/1999/xlink" xmlns:a="http://ns.adobe.com/AdobeSVGViewerExtensions/3.0/"
	 x="0px" y="0px" width="102.747px" height="23.467px" viewBox="0 0 102.747 23.467"
	 style="enable-background:new 0 0 102.747 23.467;" xml:space="preserve">
<defs>
</defs>
<g id="XMLID_15_">
	<path id="XMLID_85_" style="fill:#FFFFFE;" d="M25.472,18.265c0.134-0.578-0.121-0.656-0.494-0.603
		c-0.053,0.007-0.109,0.009-0.161,0c-0.314-0.053-0.38,0.091-0.375,0.384c0.018,0.996,0.007,1.992,0.007,2.988
		c0,0.738,0.001,0.717,0.73,0.744c0.334,0.012,0.397-0.102,0.386-0.404c-0.022-0.632-0.01-1.265-0.006-1.897
		c0.004-0.635,0.286-0.963,0.822-0.968c0.52-0.005,0.68,0.212,0.687,0.944c0.004,0.511,0.001,1.023,0.001,1.534
		c0,0.826,0,0.818,0.841,0.788c0.194-0.007,0.248-0.059,0.246-0.251c-0.01-0.902,0.004-1.804-0.009-2.705
		c-0.009-0.584-0.37-1.018-0.924-1.176C26.55,17.449,25.988,17.618,25.472,18.265z"/>
	<path id="XMLID_84_" style="fill:#FFFFFE;" d="M30.184,18.173c0.097-0.472-0.131-0.569-0.511-0.511
		c-0.066,0.01-0.136,0.011-0.202,0c-0.293-0.048-0.356,0.086-0.351,0.36c0.015,1.011,0.006,2.022,0.006,3.033
		c0,0.716,0,0.701,0.707,0.721c0.309,0.009,0.415-0.063,0.405-0.392c-0.022-0.727-0.017-1.456,0.018-2.183
		c0.022-0.461,0.382-0.716,0.87-0.69c0.423,0.023,0.588,0.221,0.594,0.737c0.006,0.566,0.003,1.132,0.003,1.698
		c0,0.892,0,0.886,0.887,0.827c0.175-0.012,0.23-0.06,0.228-0.235c-0.008-0.89,0.014-1.78-0.012-2.669
		c-0.02-0.684-0.384-1.09-1.044-1.251C31.146,17.465,30.623,17.645,30.184,18.173z"/>
	<path id="XMLID_83_" style="fill:#FFFFFE;" d="M57.331,18.176c0.151-0.539-0.155-0.536-0.48-0.513
		c-0.054,0.004-0.109,0.008-0.161-0.001c-0.305-0.047-0.417,0.051-0.408,0.386c0.024,1.01,0.009,2.021,0.009,3.032
		c0,0.69,0.001,0.671,0.69,0.697c0.322,0.012,0.396-0.085,0.393-0.396c-0.008-0.726-0.071-1.458,0.032-2.179
		c0.074-0.516,0.401-0.733,0.914-0.687c0.406,0.036,0.57,0.263,0.573,0.811c0.004,0.714,0.014,1.429-0.006,2.143
		c-0.007,0.258,0.072,0.331,0.316,0.305c0.186-0.02,0.377-0.011,0.565-0.002c0.153,0.008,0.216-0.042,0.214-0.204
		c-0.014-0.956,0-1.914-0.038-2.869c-0.022-0.54-0.382-0.908-0.903-1.057C58.385,17.453,57.829,17.612,57.331,18.176z"/>
	<path id="XMLID_82_" style="fill:#FFFFFE;" d="M40.146,20.536c-0.024-0.006-0.048-0.012-0.072-0.018
		c-0.195-0.682-0.391-1.363-0.583-2.045c-0.235-0.832-0.234-0.824-1.106-0.815c-0.266,0.003-0.321,0.05-0.22,0.317
		c0.371,0.989,0.717,1.987,1.071,2.983c0.307,0.865,0.305,0.859,1.221,0.816c0.165-0.008,0.236-0.067,0.286-0.206
		c0.438-1.221,0.878-2.441,1.317-3.662c0.054-0.149,0.06-0.233-0.156-0.25c-0.895-0.067-0.892-0.076-1.14,0.779
		C40.559,19.136,40.351,19.836,40.146,20.536z"/>
	<path id="XMLID_81_" style="fill:#FFFFFE;" d="M47.084,19.835c0,0.283,0,0.566,0,0.849c0,0.894,0.21,1.11,1.11,1.143
		c0.108,0.004,0.217-0.018,0.323-0.006c0.403,0.046,0.326-0.234,0.336-0.47c0.01-0.234,0.017-0.439-0.32-0.385
		c-0.301,0.048-0.362-0.135-0.358-0.388c0.007-0.553,0.018-1.106-0.004-1.658c-0.014-0.331,0.025-0.551,0.434-0.469
		c0.239,0.048,0.286-0.106,0.241-0.285c-0.043-0.174,0.163-0.525-0.202-0.487c-0.521,0.054-0.509-0.236-0.464-0.573
		c0.054-0.403-0.063-0.565-0.506-0.532c-0.587,0.044-0.593,0.011-0.588,0.597c0.003,0.281,0.069,0.543-0.401,0.513
		c-0.309-0.02-0.115,0.315-0.154,0.484c-0.024,0.105-0.073,0.32,0.155,0.277c0.422-0.079,0.415,0.167,0.402,0.459
		C47.073,19.214,47.084,19.525,47.084,19.835z"/>
	<path id="XMLID_80_" style="fill:#FFFFFE;" d="M14.966,19.018c0-0.673,0-1.347,0-2.02c0-0.747,0-0.735-0.761-0.743
		c-0.258-0.003-0.338,0.06-0.336,0.33c0.014,1.468,0.007,2.936,0.007,4.404c0,0.801,0,0.791,0.805,0.786
		c0.228-0.002,0.293-0.063,0.29-0.291C14.958,20.662,14.966,19.84,14.966,19.018z"/>
	<path id="XMLID_79_" style="fill:#FFFFFE;" d="M22.363,19.745c0,0.404,0,0.809,0,1.213c0,0.835,0,0.824,0.819,0.817
		c0.239-0.002,0.284-0.081,0.282-0.299c-0.01-1.024-0.005-2.049-0.005-3.073c0-0.757,0-0.742-0.77-0.748
		c-0.283-0.002-0.338,0.099-0.332,0.351C22.373,18.586,22.363,19.165,22.363,19.745z"/>
	<path id="XMLID_78_" style="fill:#FFFFFE;" d="M50.629,19.717c0-0.431,0-0.861,0-1.292c0-0.771,0-0.759-0.755-0.768
		c-0.275-0.004-0.371,0.062-0.365,0.354c0.018,0.982,0.007,1.964,0.007,2.947c0,0.851,0,0.842,0.852,0.817
		c0.22-0.006,0.269-0.078,0.265-0.282C50.621,20.901,50.629,20.309,50.629,19.717z"/>
	<path id="XMLID_77_" style="fill:#FFFFFE;" d="M63.646,16.95c0.11,0.233,0.061,0.408,0.068,0.578
		c0.006,0.15-0.022,0.284,0.215,0.285c0.224,0.001,0.228-0.106,0.224-0.27c-0.007-0.323-0.031-0.649,0.005-0.967
		c0.04-0.357-0.102-0.432-0.422-0.404c-0.163,0.014-0.236,0.073-0.288,0.209c-0.082,0.218-0.128,0.452-0.293,0.68
		c-0.107-0.273-0.195-0.507-0.289-0.739c-0.111-0.274-0.347-0.111-0.523-0.135c-0.207-0.028-0.132,0.158-0.134,0.259
		c-0.008,0.376,0.004,0.753-0.007,1.129c-0.004,0.166,0.032,0.235,0.219,0.236c0.206,0.001,0.206-0.105,0.202-0.251
		c-0.006-0.216-0.001-0.432-0.001-0.648c0.144,0.23,0.242,0.461,0.313,0.7c0.042,0.14,0.107,0.194,0.253,0.196
		c0.141,0.001,0.185-0.08,0.222-0.186C63.483,17.417,63.555,17.21,63.646,16.95z"/>
	<path id="XMLID_76_" style="fill:#FFFFFE;" d="M49.999,16.191c-0.265-0.032-0.546-0.058-0.495,0.464
		c0.063,0.653-0.071,0.569,0.504,0.569c0.706,0,0.614,0.09,0.62-0.484C50.634,16.191,50.629,16.191,49.999,16.191z"/>
	<path id="XMLID_75_" style="fill:#FFFFFE;" d="M22.92,17.227c0.539,0,0.538,0,0.54-0.473c0.001-0.308,0.097-0.629-0.449-0.577
		c-0.643,0.062-0.651,0.014-0.647,0.505C22.369,17.329,22.296,17.216,22.92,17.227z"/>
	<path id="XMLID_74_" style="fill:#FFFFFE;" d="M61.252,16.181c-0.175,0-0.35,0.002-0.524-0.001
		c-0.105-0.001-0.183,0.017-0.182,0.151c0,0.108,0.023,0.202,0.149,0.181c0.346-0.058,0.315,0.165,0.308,0.385
		c-0.007,0.188-0.008,0.377,0.001,0.565c0.007,0.152-0.088,0.35,0.222,0.352c0.287,0.002,0.25-0.159,0.248-0.334
		c-0.002-0.202,0.003-0.403-0.001-0.605c-0.004-0.204-0.043-0.424,0.29-0.362c0.134,0.025,0.143-0.074,0.146-0.178
		c0.005-0.129-0.057-0.16-0.172-0.156C61.575,16.185,61.414,16.18,61.252,16.181z"/>
	<path id="XMLID_73_" style="fill:#F1951B;" d="M0,0.168c2.224,0,4.449-0.058,6.671,0.016c2.484,0.082,4.093,2.328,3.443,4.677
		c-0.295,1.065-1.038,1.664-2.11,1.966c1.139,1.756,2.264,3.49,3.383,5.217c-0.072,0.133-0.178,0.081-0.261,0.081
		c-1.28,0.004-2.561,0-3.841,0.006c-0.191,0.001-0.318-0.029-0.411-0.228c-0.848-1.831-1.708-3.657-2.563-5.486
		C4.294,6.383,4.294,6.341,4.286,6.3c0.021-0.019,0.038-0.047,0.056-0.048C5.175,6.216,5.867,5.93,6.124,5.069
		c0.293-0.981,0.312-1.951-0.455-2.765C5.271,1.882,4.744,1.789,4.186,1.794c-0.272,0.002-0.209,0.19-0.209,0.338
		c-0.003,1.537-0.002,3.073-0.002,4.61c0,1.671-0.008,3.343,0.007,5.014c0.003,0.308-0.087,0.382-0.385,0.379
		C2.398,12.122,1.199,12.137,0,12.141C0,8.15,0,4.159,0,0.168z"/>
	<path id="XMLID_64_" style="fill:#F1951B;" d="M102.741,12.303c-0.147-0.008-0.294-0.023-0.441-0.023
		c-3.716-0.001-7.431-0.007-11.147,0.008c-0.391,0.002-0.519-0.069-0.517-0.497c0.02-3.769,0.012-7.539,0.01-11.308
		c0-0.159,0.038-0.323-0.04-0.477c3.944,0,7.888,0.003,11.832-0.007c0.253-0.001,0.31,0.057,0.309,0.31
		C102.738,4.307,102.741,8.305,102.741,12.303z M91.24,6.132c0,1.725,0.008,3.451-0.007,5.176c-0.003,0.307,0.087,0.382,0.385,0.379
		c1.698-0.014,3.397-0.007,5.096-0.007c1.699,0,3.397-0.001,5.096,0.002c0.201,0,0.359,0.012,0.358-0.282
		c-0.008-3.505-0.007-7.01-0.002-10.515c0-0.226-0.069-0.304-0.299-0.303c-1.442,0.008-2.885,0.008-4.327,0
		c-0.226-0.001-0.301,0.064-0.304,0.295c-0.01,0.849-0.028,1.698-0.072,2.546c-0.017,0.323,0.069,0.436,0.405,0.472
		c1.114,0.118,2.159,0.463,3.071,1.13c0.843,0.617,1.445,1.391,1.362,2.507c-0.098,1.308-0.825,2.229-1.974,2.749
		c-2.411,1.093-4.818,1.066-7.104-0.35c-2.085-1.291-2.066-3.892-0.006-5.229c0.909-0.59,1.932-0.801,2.99-0.875
		c0.229-0.016,0.292-0.089,0.283-0.311c-0.035-0.862-0.066-1.724-0.069-2.587c-0.001-0.294-0.103-0.353-0.374-0.35
		c-1.375,0.013-2.75,0.019-4.125-0.003c-0.344-0.005-0.39,0.123-0.388,0.418C91.246,2.708,91.24,4.42,91.24,6.132z M95.953,6.236
		c0,0.566,0.003,1.131-0.002,1.697c-0.001,0.166,0.011,0.277,0.233,0.271c1.471-0.045,2.818,0.351,4.034,1.181
		c0.113,0.077,0.198,0.103,0.319,0.002c0.913-0.764,1.524-2.315,0.337-3.515c-0.955-0.965-2.17-1.354-3.482-1.515
		c-0.221-0.027-0.239,0.08-0.242,0.251c-0.009,0.485-0.034,0.969-0.044,1.454C97.1,6.367,96.889,6.401,96.664,6.4
		c-0.236-0.001-0.413-0.07-0.413-0.37C96.25,5.546,96.223,5.062,96.2,4.578c-0.005-0.094,0.055-0.249-0.102-0.262
		c-0.198-0.016-0.142,0.157-0.143,0.263C95.95,5.132,95.952,5.684,95.953,6.236z M93.437,9.653c1.424,1.106,5.132,1.173,6.447,0.117
		C97.983,8.381,95.17,8.321,93.437,9.653z M94.503,8.5c0.025,0,0.051,0,0.076,0c0-1.314,0-2.629,0-3.943c-0.025,0-0.051,0-0.076,0
		C94.503,5.872,94.503,7.186,94.503,8.5z M95.464,6.318c0,0.55-0.005,1.101,0.004,1.651c0.002,0.101-0.08,0.279,0.113,0.284
		c0.192,0.004,0.126-0.174,0.126-0.278c0.005-1.114,0.005-2.229-0.001-3.343c-0.001-0.098,0.076-0.278-0.131-0.264
		c-0.156,0.011-0.109,0.161-0.109,0.258C95.462,5.19,95.464,5.754,95.464,6.318z M95.01,8.345c0.029,0,0.059,0,0.088,0
		c0-1.298,0-2.595,0-3.893c-0.029,0-0.059-0.001-0.088-0.001C95.01,5.749,95.01,7.047,95.01,8.345z M93.95,8.698
		c0.012,0,0.024,0,0.036,0c0-1.305,0-2.61,0-3.915c-0.012,0-0.024,0-0.036,0C93.95,6.088,93.95,7.393,93.95,8.698z"/>
	<path id="XMLID_61_" style="fill:#0C0B0A;" d="M0,20.231c0.373-0.771,1.096-0.879,1.831-0.966c0.12-0.014,0.238-0.038,0.357-0.06
		c0.168-0.031,0.316-0.086,0.322-0.294c0.005-0.199-0.091-0.323-0.273-0.401c-0.428-0.184-0.814-0.057-1.022,0.376
		C1.16,18.997,1.1,19.014,1.003,19.014c-0.094,0-0.189,0-0.283,0c-0.646,0-0.701-0.099-0.408-0.69
		c0.181-0.364,0.48-0.571,0.859-0.671c0.314-0.083,0.637-0.104,0.961-0.085c1.035,0.059,1.444,0.488,1.444,1.516
		c0,0.579-0.007,1.158,0.004,1.737c0.005,0.249-0.016,0.506,0.168,0.725c0.148,0.177,0.03,0.224-0.143,0.221
		c-0.188-0.004-0.379-0.016-0.565,0.003c-0.296,0.029-0.503-0.033-0.464-0.446c-0.365,0.269-0.682,0.494-1.103,0.537
		C0.809,21.93,0.34,21.669,0,21.121C0,20.824,0,20.528,0,20.231z M2.492,19.857c-0.339,0.075-0.655,0.134-0.965,0.217
		c-0.343,0.091-0.495,0.347-0.41,0.67c0.083,0.317,0.32,0.359,0.599,0.323C2.338,20.986,2.552,20.656,2.492,19.857z"/>
	<path id="XMLID_60_" style="fill:#0C0B0A;" d="M16.422,23.467c-0.238-0.11-0.405-0.654-0.275-0.881
		c0.053-0.092,0.134-0.064,0.211-0.071c0.619-0.058,0.778-0.312,0.571-0.907c-0.415-1.189-0.822-2.38-1.253-3.563
		c-0.103-0.283-0.122-0.396,0.245-0.389c0.834,0.017,0.833,0,1.071,0.824c0.196,0.678,0.398,1.354,0.671,2.044
		c0.124-0.427,0.25-0.853,0.37-1.281c0.116-0.413,0.241-0.824,0.331-1.242c0.06-0.28,0.196-0.35,0.472-0.344
		c0.785,0.017,0.784,0.003,0.52,0.76c-0.396,1.138-0.794,2.276-1.184,3.417c-0.263,0.769-0.465,1.585-1.506,1.635
		C16.584,23.467,16.503,23.467,16.422,23.467z"/>
	<path id="XMLID_57_" style="fill:#0C0B0A;" d="M5.581,21.286c0,0.665-0.01,1.227,0.005,1.788c0.006,0.228-0.063,0.294-0.293,0.297
		c-0.803,0.012-0.803,0.021-0.803-0.759c0-1.467-0.003-2.935,0.001-4.402c0.002-0.642-0.075-0.513,0.564-0.555
		c0.369-0.024,0.563,0.064,0.496,0.486c0.886-0.74,1.726-0.754,2.37-0.066c0.755,0.806,0.696,2.603-0.088,3.383
		C7.334,21.954,6.151,22.08,5.581,21.286z M5.545,19.807c0.011,0.113,0.004,0.294,0.052,0.459c0.102,0.354,0.304,0.632,0.701,0.692
		c0.35,0.053,0.649-0.046,0.823-0.371c0.293-0.546,0.293-1.11,0.024-1.662c-0.151-0.309-0.43-0.418-0.772-0.402
		c-0.334,0.016-0.551,0.184-0.689,0.473C5.569,19.233,5.564,19.49,5.545,19.807z"/>
	<path id="XMLID_54_" style="fill:#0C0B0A;" d="M10.261,21.363c0,0.58-0.009,1.126,0.004,1.672c0.005,0.229-0.037,0.333-0.303,0.337
		c-0.813,0.01-0.812,0.023-0.812-0.792c0-1.509,0.011-3.018-0.008-4.527c-0.004-0.329,0.095-0.442,0.407-0.391
		c0.039,0.006,0.081,0.005,0.121,0c0.369-0.042,0.663-0.003,0.519,0.533c0.312-0.349,0.643-0.593,1.093-0.627
		c0.803-0.062,1.507,0.442,1.731,1.275c0.156,0.582,0.14,1.171-0.015,1.754C12.661,21.851,11.23,22.316,10.261,21.363z
		 M11.984,19.696c0.014-0.259-0.031-0.52-0.166-0.76c-0.292-0.52-1.045-0.574-1.381-0.1c-0.308,0.434-0.321,1.318-0.026,1.761
		c0.359,0.539,1.106,0.499,1.411-0.074C11.96,20.267,11.997,19.994,11.984,19.696z"/>
	<path id="XMLID_51_" style="fill:#0C0B0A;" d="M44.99,21.299c-0.411,0.409-0.831,0.581-1.327,0.568
		c-0.688-0.017-1.122-0.368-1.211-0.995c-0.098-0.687,0.24-1.257,0.884-1.435c0.322-0.089,0.66-0.119,0.99-0.177
		c0.119-0.021,0.241-0.035,0.355-0.072c0.292-0.094,0.36-0.382,0.145-0.593c-0.243-0.239-0.984-0.211-1.085,0.093
		c-0.131,0.393-0.392,0.323-0.66,0.324c-0.606,0.002-0.611-0.015-0.38-0.592c0.24-0.598,0.745-0.774,1.315-0.843
		c0.363-0.044,0.727-0.016,1.082,0.08c0.632,0.171,0.926,0.565,0.928,1.238c0.003,0.714,0.002,1.429,0.002,2.143
		c0,0.163-0.012,0.339,0.11,0.459c0.235,0.233,0.119,0.273-0.127,0.268c-0.175-0.003-0.352-0.018-0.525,0.003
		C45.185,21.807,44.983,21.738,44.99,21.299z M44.94,19.838c-0.155,0.046-0.304,0.097-0.458,0.133
		c-0.169,0.04-0.344,0.055-0.511,0.1c-0.338,0.091-0.522,0.36-0.44,0.654c0.09,0.323,0.334,0.382,0.632,0.339
		C44.774,20.978,44.998,20.634,44.94,19.838z"/>
	<path id="XMLID_48_" style="fill:#0C0B0A;" d="M53.472,21.868c-1.27,0.002-2.095-0.841-2.096-2.143
		c-0.001-1.298,0.831-2.158,2.088-2.159c1.256-0.001,2.097,0.86,2.101,2.152C55.569,21.013,54.738,21.866,53.472,21.868z
		 M52.502,19.821c0.022,0.355,0.069,0.821,0.561,1.048c0.355,0.164,0.734,0.145,1.017-0.138c0.439-0.438,0.422-0.994,0.282-1.548
		c-0.088-0.347-0.29-0.601-0.675-0.659C52.93,18.408,52.506,18.832,52.502,19.821z"/>
	<path id="XMLID_45_" style="fill:#0C0B0A;" d="M33.57,19.702c0.002-1.303,0.826-2.142,2.095-2.136
		c1.256,0.006,2.076,0.87,2.064,2.177c-0.012,1.315-0.825,2.136-2.105,2.124C34.343,21.856,33.568,21.038,33.57,19.702z
		 M36.608,19.689c-0.01-0.093-0.019-0.214-0.036-0.334c-0.074-0.534-0.367-0.822-0.855-0.845c-0.537-0.025-0.876,0.211-0.985,0.743
		c-0.076,0.368-0.085,0.749,0.053,1.113c0.168,0.444,0.606,0.677,1.067,0.571C36.365,20.82,36.611,20.422,36.608,19.689z"/>
	<path id="XMLID_44_" style="fill:#0C0B0A;" d="M25.472,18.265c0.516-0.647,1.078-0.816,1.752-0.623
		c0.554,0.158,0.915,0.592,0.924,1.176c0.014,0.902-0.001,1.803,0.009,2.705c0.002,0.192-0.052,0.244-0.246,0.251
		c-0.841,0.03-0.841,0.038-0.841-0.788c0-0.511,0.003-1.023-0.001-1.534c-0.006-0.732-0.167-0.949-0.687-0.944
		c-0.537,0.005-0.818,0.333-0.822,0.968c-0.004,0.633-0.016,1.266,0.006,1.897c0.01,0.302-0.052,0.416-0.386,0.404
		c-0.73-0.027-0.73-0.006-0.73-0.744c0-0.996,0.011-1.992-0.007-2.988c-0.005-0.293,0.061-0.437,0.375-0.384
		c0.052,0.009,0.108,0.008,0.161,0C25.35,17.609,25.606,17.687,25.472,18.265z"/>
	<path id="XMLID_43_" style="fill:#0C0B0A;" d="M30.184,18.173c0.439-0.528,0.962-0.708,1.598-0.554
		c0.66,0.16,1.024,0.567,1.044,1.251c0.026,0.889,0.004,1.779,0.012,2.669c0.002,0.175-0.053,0.223-0.228,0.235
		c-0.887,0.059-0.886,0.064-0.887-0.827c0-0.566,0.003-1.132-0.003-1.698c-0.006-0.516-0.171-0.714-0.594-0.737
		c-0.488-0.026-0.848,0.229-0.87,0.69c-0.035,0.726-0.04,1.456-0.018,2.183c0.01,0.329-0.097,0.401-0.405,0.392
		c-0.706-0.02-0.707-0.005-0.707-0.721c0-1.011,0.009-2.022-0.006-3.033c-0.004-0.274,0.058-0.408,0.351-0.36
		c0.066,0.011,0.136,0.01,0.202,0C30.053,17.604,30.282,17.701,30.184,18.173z"/>
	<path id="XMLID_42_" style="fill:#0C0B0A;" d="M57.331,18.176c0.498-0.564,1.053-0.722,1.709-0.534
		c0.522,0.149,0.882,0.517,0.903,1.057c0.038,0.955,0.024,1.912,0.038,2.869c0.002,0.161-0.061,0.211-0.214,0.204
		c-0.188-0.01-0.379-0.018-0.565,0.002c-0.244,0.026-0.323-0.047-0.316-0.305c0.02-0.714,0.01-1.428,0.006-2.143
		c-0.003-0.548-0.168-0.775-0.573-0.811c-0.514-0.045-0.841,0.171-0.914,0.687c-0.103,0.722-0.04,1.453-0.032,2.179
		c0.003,0.311-0.071,0.408-0.393,0.396c-0.689-0.025-0.69-0.006-0.69-0.697c0-1.011,0.016-2.022-0.009-3.032
		c-0.008-0.334,0.104-0.433,0.408-0.386c0.053,0.008,0.108,0.004,0.161,0.001C57.177,17.639,57.482,17.636,57.331,18.176z"/>
	<path id="XMLID_41_" style="fill:#0C0B0A;" d="M40.146,20.536c0.206-0.7,0.414-1.4,0.617-2.1c0.248-0.855,0.245-0.846,1.14-0.779
		c0.216,0.016,0.21,0.101,0.156,0.25c-0.439,1.221-0.879,2.441-1.317,3.662c-0.05,0.139-0.121,0.198-0.286,0.206
		c-0.916,0.043-0.914,0.049-1.221-0.816c-0.353-0.996-0.7-1.994-1.071-2.983c-0.1-0.267-0.045-0.315,0.22-0.317
		c0.872-0.008,0.871-0.017,1.106,0.815c0.193,0.682,0.389,1.363,0.583,2.045C40.098,20.524,40.122,20.53,40.146,20.536z"/>
	<path id="XMLID_40_" style="fill:#0C0B0A;" d="M47.084,19.835c0-0.31-0.011-0.621,0.003-0.93c0.013-0.292,0.021-0.538-0.402-0.459
		c-0.228,0.043-0.179-0.172-0.155-0.277c0.039-0.169-0.155-0.504,0.154-0.484c0.47,0.03,0.404-0.231,0.401-0.513
		c-0.005-0.586,0.001-0.553,0.588-0.597c0.443-0.033,0.56,0.129,0.506,0.532c-0.045,0.337-0.057,0.627,0.464,0.573
		c0.365-0.038,0.159,0.313,0.202,0.487c0.044,0.179-0.003,0.332-0.241,0.285c-0.409-0.082-0.448,0.138-0.434,0.469
		c0.023,0.552,0.011,1.105,0.004,1.658c-0.003,0.254,0.057,0.436,0.358,0.388c0.337-0.053,0.33,0.151,0.32,0.385
		c-0.01,0.236,0.067,0.516-0.336,0.47c-0.106-0.012-0.216,0.009-0.323,0.006c-0.9-0.032-1.109-0.248-1.11-1.143
		C47.084,20.401,47.084,20.118,47.084,19.835z"/>
	<path id="XMLID_39_" style="fill:#0C0B0A;" d="M14.966,19.018c0,0.822-0.008,1.643,0.005,2.465c0.004,0.228-0.061,0.289-0.29,0.291
		c-0.805,0.006-0.805,0.015-0.805-0.786c0-1.468,0.007-2.936-0.007-4.404c-0.003-0.269,0.077-0.332,0.336-0.33
		c0.76,0.008,0.761-0.004,0.761,0.743C14.966,17.672,14.966,18.345,14.966,19.018z"/>
	<path id="XMLID_38_" style="fill:#0C0B0A;" d="M22.363,19.745c0-0.58,0.01-1.159-0.005-1.738c-0.007-0.252,0.049-0.353,0.332-0.351
		c0.77,0.006,0.77-0.009,0.77,0.748c0,1.024-0.006,2.049,0.005,3.073c0.002,0.218-0.043,0.297-0.282,0.299
		c-0.819,0.007-0.819,0.018-0.819-0.817C22.363,20.554,22.363,20.149,22.363,19.745z"/>
	<path id="XMLID_37_" style="fill:#0C0B0A;" d="M50.629,19.717c0,0.592-0.008,1.184,0.004,1.776
		c0.004,0.203-0.044,0.275-0.265,0.282c-0.853,0.025-0.852,0.034-0.852-0.817c0-0.982,0.011-1.965-0.007-2.947
		c-0.005-0.292,0.09-0.358,0.365-0.354c0.754,0.01,0.755-0.003,0.755,0.768C50.629,18.856,50.629,19.286,50.629,19.717z"/>
	<path id="XMLID_36_" style="fill:#0C0B0A;" d="M63.646,16.95c-0.091,0.259-0.163,0.466-0.235,0.673
		c-0.037,0.105-0.081,0.187-0.222,0.186c-0.147-0.001-0.211-0.056-0.253-0.196c-0.072-0.239-0.169-0.471-0.313-0.7
		c0,0.216-0.004,0.432,0.001,0.648c0.004,0.146,0.003,0.253-0.202,0.251c-0.187-0.001-0.223-0.07-0.219-0.236
		c0.01-0.376-0.002-0.753,0.007-1.129c0.002-0.1-0.073-0.286,0.134-0.259c0.176,0.023,0.413-0.139,0.523,0.135
		c0.094,0.232,0.182,0.465,0.289,0.739c0.165-0.228,0.211-0.463,0.293-0.68c0.051-0.137,0.125-0.195,0.288-0.209
		c0.321-0.028,0.463,0.047,0.422,0.404c-0.036,0.319-0.013,0.645-0.005,0.967c0.004,0.164,0,0.271-0.224,0.27
		c-0.237-0.002-0.209-0.135-0.215-0.285C63.707,17.358,63.756,17.183,63.646,16.95z"/>
	<path id="XMLID_33_" style="fill:#F1951B;" d="M89.569,10.812c-0.007,0.771-0.62,1.378-1.39,1.379
		c-0.786,0-1.411-0.626-1.407-1.411c0.004-0.777,0.653-1.397,1.439-1.376C88.989,9.424,89.576,10.033,89.569,10.812z M89.303,10.796
		c0-0.634-0.49-1.146-1.108-1.157c-0.634-0.011-1.146,0.505-1.146,1.157c0,0.652,0.514,1.173,1.146,1.16
		C88.811,11.944,89.303,11.429,89.303,10.796z"/>
	<path id="XMLID_32_" style="fill:#0C0B0A;" d="M49.999,16.191c0.631,0,0.635,0,0.629,0.549c-0.006,0.575,0.085,0.484-0.62,0.484
		c-0.575,0-0.441,0.084-0.504-0.569C49.453,16.134,49.733,16.16,49.999,16.191z"/>
	<path id="XMLID_31_" style="fill:#0C0B0A;" d="M22.92,17.227c-0.624-0.011-0.551,0.102-0.556-0.545
		c-0.004-0.491,0.004-0.443,0.647-0.505c0.546-0.052,0.45,0.269,0.449,0.577C23.459,17.227,23.46,17.227,22.92,17.227z"/>
	<path id="XMLID_30_" style="fill:#0C0B0A;" d="M61.252,16.181c0.161,0,0.323,0.004,0.484-0.002
		c0.115-0.004,0.177,0.027,0.172,0.156c-0.004,0.104-0.012,0.203-0.146,0.178c-0.333-0.062-0.295,0.158-0.29,0.362
		c0.004,0.202-0.001,0.403,0.001,0.605c0.002,0.175,0.038,0.336-0.248,0.334c-0.311-0.002-0.215-0.201-0.222-0.352
		c-0.009-0.188-0.007-0.377-0.001-0.565c0.008-0.22,0.039-0.444-0.308-0.385c-0.126,0.021-0.148-0.073-0.149-0.181
		c0-0.134,0.077-0.152,0.182-0.151C60.903,16.182,61.077,16.181,61.252,16.181z"/>
	<path id="XMLID_29_" style="fill:#F1951B;" d="M97.323,6.775c-0.005,0.272-0.118,0.471-0.351,0.596
		c-0.237,0.126-0.469,0.101-0.677-0.057c-0.206-0.157-0.311-0.371-0.253-0.632c0.035-0.16,0.089-0.319,0.32-0.176
		c0.18,0.112,0.407,0.121,0.58,0.024C97.278,6.34,97.289,6.559,97.323,6.775z"/>
	<path id="XMLID_26_" style="fill:#F1951B;" d="M88.83,11.565c-0.355,0.065-0.355-0.213-0.474-0.348
		c-0.108-0.123-0.138-0.363-0.37-0.294c-0.197,0.059-0.075,0.253-0.109,0.384c-0.026,0.101,0.066,0.281-0.136,0.267
		c-0.149-0.011-0.106-0.163-0.107-0.261c-0.005-0.349,0.007-0.698-0.005-1.046c-0.008-0.209,0.069-0.297,0.278-0.281
		c0.12,0.009,0.242-0.005,0.362,0.005c0.234,0.018,0.468,0.055,0.532,0.335c0.054,0.234-0.009,0.431-0.253,0.522
		c-0.154,0.057-0.084,0.135-0.036,0.214C88.61,11.22,88.711,11.377,88.83,11.565z M88.13,10.199
		c-0.168-0.028-0.265,0.028-0.261,0.255c0.004,0.205,0.089,0.254,0.268,0.241c0.187-0.014,0.418,0.011,0.414-0.256
		C88.546,10.207,88.338,10.202,88.13,10.199z"/>
	<path id="XMLID_25_" style="fill:#F1951B;" d="M20.097,10.356c-0.041-0.005-0.085-0.008-0.137-0.007
		c-0.318,0.005-0.637,0.005-0.955,0.007h-1.321c-0.252-0.001-0.505-0.002-0.757-0.004c-0.693-0.007-0.979-0.306-0.982-0.993
		c-0.003-0.647,0.016-1.295-0.008-1.941c-0.011-0.303,0.073-0.387,0.378-0.381c1.024,0.02,2.049,0.002,3.074,0.012
		c0.055,0.001,0.101-0.003,0.139-0.012h0.18V5.276h-0.256c-0.04-0.005-0.084-0.008-0.135-0.007
		c-0.424,0.006-0.848,0.007-1.272,0.007h-0.938c-0.288-0.001-0.576-0.001-0.864-0.002c-0.143,0-0.304,0.038-0.3-0.205
		c0.011-0.782-0.018-1.565,0.024-2.345c0.033-0.607,0.28-0.797,0.883-0.799c0.099,0,0.13-0.004,0.13-0.004h3.148V0.152h-3.148
		c-1.726,0.013-0.619-0.011-2.345,0.01c-1.637,0.02-2.648,1.072-2.653,2.717c-0.003,1.119-0.001,2.238,0,3.357
		c0,1.159,0,2.319,0,3.479c0,0.027,0,0.054,0.001,0.081c0.035,1.347,0.827,2.282,2.095,2.313c1.102,0.027,2.204,0.029,3.307,0.026
		v0.001h2.942v-1.78H20.097z"/>
	<path id="XMLID_24_" style="fill:#F1951B;" d="M31.162,0.135h-1.97v0.262c-0.006,0.046-0.009,0.097-0.008,0.156
		c0.007,0.801,0.008,1.602,0.008,2.403v0.018c0,0.797-0.002,1.594-0.002,2.392c0,0.235,0,0.471,0,0.827
		c-0.144-0.206-0.222-0.308-0.29-0.417c-0.803-1.276-1.617-2.546-2.404-3.833c-0.535-0.876-0.942-1.672-2.021-1.913
		c-0.024-0.005-0.217-0.023-0.242-0.023h-0.772c-0.032,0-0.106,0.005-0.124,0.008c-1.097,0.155-1.498,0.969-1.497,2.144
		c0.001,0.755-0.002,1.51-0.002,2.264c0,1.559,0.004,3.119,0.001,4.678h-0.004v1.313c-0.002,0.416-0.004,0.831-0.007,1.247
		c-0.001,0.059,0.002,0.109,0.007,0.156v0.324h0.358c0.001,0,0.003,0,0.004,0h1.614v-0.293c0.003-0.036,0.005-0.075,0.005-0.119
		c-0.004-0.677-0.004-1.354-0.005-2.032V9.101h-0.001c-0.001-1.402,0-2.804,0.002-4.206c0-0.125,0.001-0.229,0.007-0.403
		c0.049,0.062,0.107,0.123,0.164,0.199c0.602,0.974,1.214,1.911,1.815,2.885c0.792,1.283,1.573,2.574,2.382,3.847
		c0.448,0.706,1.22,0.966,2.01,0.735c0.606-0.177,0.917-0.67,0.957-1.521c0.007-0.148,0.01-0.296,0.01-0.445
		c0.001-1.604,0.001-3.208,0.001-4.812c0-0.796-0.001-1.593-0.001-2.389h0.006V0.135z"/>
	<rect id="XMLID_23_" x="32.703" y="0.006" style="fill:#F1951B;" width="3.95" height="12.184"/>
	<path id="XMLID_22_" style="fill:#F1951B;" d="M46.025,4.722c-0.557-0.248-1.151-0.368-1.738-0.515
		c-0.455-0.114-0.925-0.198-1.324-0.468c-0.381-0.258-0.522-0.656-0.405-1.139C42.661,2.168,42.984,2,43.386,1.95
		c0.187-0.023,0.377-0.024,0.565-0.025c0.317-0.001,0.634-0.003,0.951-0.004h0.335c0.353,0,0.706,0.001,1.06,0.008
		c0.045,0.001,0.083-0.002,0.117-0.008h0.224V0.146h-1.489c-0.951-0.012-1.902-0.029-2.847,0.041
		c-3.011,0.223-3.949,2.58-3.505,4.731c0.266,1.291,1.202,1.916,2.37,2.286c0.795,0.252,1.629,0.37,2.407,0.676
		c0.683,0.269,0.921,0.687,0.826,1.387c-0.091,0.676-0.38,0.955-1.115,1.054c-0.213,0.029-0.43,0.033-0.645,0.033
		c-1.011,0.003-2.022,0.009-3.033-0.004c-0.056-0.001-0.106,0.001-0.15,0.007h-0.222v0.219c-0.003,0.034-0.004,0.072-0.001,0.117
		c0.001,0.007,0.001,0.014,0.001,0.021v1.106c0,0.001,0,0.003,0,0.004c-0.002,0.034-0.002,0.064,0,0.091v0.222h1.19v-0.01
		c0.414,0,0.828,0.001,1.242,0.001c0-0.002,0-0.003,0-0.005c0.66,0,1.321,0.014,1.981-0.003c0.817-0.021,1.608-0.175,2.322-0.595
		c1.378-0.811,1.874-2.094,1.879-3.614C47.853,6.507,47.411,5.339,46.025,4.722z"/>
	<polygon id="XMLID_21_" style="fill:#F1951B;" points="55.989,0.146 55.989,4.346 53.283,4.346 53.283,0.146 49.31,0.146 
		49.31,12.137 53.283,12.137 53.283,6.101 55.989,6.101 55.989,12.137 59.962,12.137 59.962,0.146 	"/>
	<path id="XMLID_20_" style="fill:#F1951B;" d="M61.287,11.82"/>
	<path id="XMLID_17_" style="fill:#F1951B;" d="M71.976,11.518c-1.026-3.107-2.049-6.216-3.068-9.326
		c-0.339-1.035-0.808-1.904-1.984-2.167c-0.215-0.012-0.435-0.012-0.651-0.012c-0.034,0-0.118,0.006-0.137,0.008
		c-1.044,0.099-1.571,0.78-1.906,1.706c-0.274,0.758-0.519,1.527-0.765,2.295c-0.82,2.56-1.628,5.125-2.459,7.681
		c-0.016,0.048-0.028,0.091-0.036,0.129l-0.094,0.308h1.844l0.189-0.617h-0.001c0.134-0.442,0.3-0.875,0.433-1.317
		c0.01-0.032,0.021-0.061,0.032-0.088l0.071-0.216h0.245c0.026-0.002,0.054-0.003,0.083-0.003c0.175,0.002,0.351,0.002,0.526,0.003
		h2.243c0.222-0.002,0.444-0.001,0.666-0.004c0.032,0,0.062,0.001,0.089,0.004h0.221l0.068,0.216
		c0.014,0.031,0.026,0.065,0.037,0.103c0.156,0.542,0.338,1.078,0.492,1.62c0.001,0.005,0.003,0.009,0.004,0.013l0.082,0.279h3.983
		L71.976,11.518z M66.78,8.261c-0.913-0.008-1.826-0.003-2.783-0.003c0.507-1.627,1.499-4.811,1.499-4.811l0.039-0.155
		c0,0,0.934,3.179,1.374,4.685c0.024,0.082,0.069,0.284,0.069,0.284S66.877,8.262,66.78,8.261z"/>
	<path id="XMLID_16_" style="fill:#F1951B;" d="M89.064,0.153h-0.248c-0.055-0.008-0.123-0.009-0.207-0.004
		c-0.055,0.003-0.109,0.002-0.164,0.004h-0.911c-0.059-0.002-0.119-0.002-0.178-0.005c-0.045-0.002-0.083,0-0.118,0.005h-0.196
		l-0.064,0.231c-0.01,0.027-0.019,0.056-0.028,0.087c-0.418,1.531-0.853,3.058-1.283,4.586c-0.353,1.254-1.065,3.779-1.065,3.779
		l-0.143-0.359c0,0-1.031-3.883-1.761-6.668h0.003l-0.159-0.598c-0.064-0.245-0.125-0.479-0.181-0.694
		c-0.01-0.039-0.021-0.074-0.033-0.107L82.26,0.153h-0.222c-0.037-0.005-0.077-0.009-0.123-0.008
		c-0.183,0.004-0.366,0.005-0.55,0.008h-2.35c-0.139-0.001-0.278-0.002-0.416-0.004c-0.037,0-0.069,0.001-0.098,0.004h-0.293
		l0.474,1.665c0.05,0.204,0.1,0.408,0.152,0.612c0.024,0.095,0.067,0.282,0.067,0.282s-0.048,0.176-0.075,0.271
		c-0.495,1.719-1.469,5.163-1.469,5.163l-0.209,0.55c0,0-0.097-0.297-0.133-0.423c-0.613-2.172-1.227-4.343-1.836-6.517
		l-0.425-1.603H74.49c-0.037-0.005-0.078-0.008-0.124-0.007c-0.248,0.005-0.496,0.005-0.744,0.007h-1.816
		c-0.212-0.002-0.423-0.002-0.635-0.005c-0.062-0.001-0.113,0.001-0.158,0.005h-0.288l0.108,0.378
		c0.003,0.013,0.005,0.023,0.009,0.036c0.715,2.482,1.399,4.973,2.105,7.457c0.264,0.931,0.452,1.887,0.842,2.778
		c0.388,0.885,1.087,1.344,2.044,1.415c1.027,0.077,1.848-0.27,2.401-1.17c0.272-0.442,0.425-0.928,0.558-1.423
		c0.356-1.324,0.708-2.649,1.093-4.091c0.065,0.237,0.1,0.352,0.129,0.469c0.349,1.397,0.693,2.794,1.045,4.19
		c0.275,1.089,0.909,1.801,2.066,1.997c1.51,0.256,2.258-0.19,2.704-1.642c0.525-1.71,1.06-3.418,1.589-5.126
		c0.369-1.189,0.731-2.381,1.103-3.569h0.001L89.064,0.153z"/>
</g>
</svg>
