<!-- Generator: Adobe Illustrator 19.0.0, SVG Export Plug-In  -->
<svg version="1.1"
	 xmlns="http://www.w3.org/2000/svg" xmlns:xlink="http://www.w3.org/1999/xlink" xmlns:a="http://ns.adobe.com/AdobeSVGViewerExtensions/3.0/"
	 x="0px" y="0px" width="81.376px" height="19.303px" viewBox="0 0 81.376 19.303"
	 style="enable-background:new 0 0 81.376 19.303;" xml:space="preserve">
<defs>
</defs>
<g id="XMLID_15_">
	<path id="XMLID_20_" style="fill:#162F57;" d="M54.476,19.227c0.321-1.431,0.648-2.798,0.927-4.175
		c0.103-0.509,0.333-0.628,0.837-0.626c5.298,0.021,10.597-0.003,15.895,0.032c0.704,0.005,1.042-0.156,1.107-0.878
		c0.044-0.487,0.199-0.964,0.322-1.522c-0.328,0-0.61,0-0.892,0c-5.272,0-10.545-0.008-15.817,0.011
		c-0.584,0.002-0.748-0.068-0.594-0.718c0.844-3.547,1.631-7.107,2.438-10.663C58.783,0.315,58.809-0.002,59.394,0
		c7.204,0.028,14.408,0.018,21.611,0.02c0.103,0,0.206,0.016,0.371,0.029c-0.338,1.487-0.683,2.948-0.997,4.415
		c-0.11,0.511-0.478,0.377-0.789,0.377c-5.246,0.004-10.493,0.026-15.739-0.02c-0.817-0.007-1.124,0.217-1.261,1.008
		c-0.243,1.407-0.291,1.398,1.118,1.398c5.09,0,10.179,0.012,15.269-0.014c0.668-0.003,0.749,0.145,0.597,0.781
		c-0.838,3.521-1.622,7.056-2.424,10.586c-0.085,0.376-0.108,0.708-0.687,0.706c-7.23-0.023-14.46-0.016-21.69-0.018
		C54.697,19.269,54.621,19.248,54.476,19.227z"/>
	<path id="XMLID_19_" style="fill:#162F57;" d="M35.2,14.439c0.456,0,0.844,0,1.233,0c5.011,0,10.021,0.014,15.032-0.017
		c0.671-0.004,0.715,0.2,0.574,0.75c-0.283,1.11-0.538,2.228-0.76,3.352c-0.111,0.561-0.309,0.787-0.952,0.78
		c-3.888-0.042-7.777-0.024-11.665-0.024c-3.364-0.001-6.728,0-10.173,0c0.478-2.119,0.936-4.17,1.404-6.219
		c0.932-4.087,1.883-8.17,2.786-12.264c0.139-0.631,0.376-0.797,1.016-0.794c7.02,0.027,14.04,0.025,21.06,0.003
		c0.604-0.002,0.757,0.115,0.596,0.716c-0.295,1.106-0.566,2.223-0.759,3.351c-0.114,0.661-0.409,0.792-1.036,0.789
		c-5.115-0.028-10.23-0.001-15.345-0.034c-0.652-0.004-0.877,0.182-1.012,0.806C36.567,8.552,35.881,11.46,35.2,14.439z"/>
	<path id="XMLID_18_" style="fill:#162F57;" d="M4.855,9.566c0.677-2.969,1.358-5.938,2.028-8.909C6.975,0.251,7.066,0,7.606,0.002
		c7.227,0.024,14.453,0.016,21.68,0.018c0.128,0,0.255,0.02,0.422,0.033c-0.331,1.472-0.669,2.914-0.973,4.364
		c-0.113,0.541-0.496,0.425-0.842,0.425C22.702,4.845,17.51,4.856,12.319,4.829c-0.616-0.003-0.845,0.174-0.958,0.776
		c-0.25,1.329-0.589,2.642-0.892,3.961C10.253,9.801,9.962,9.81,9.679,9.813c-1.345,0.017-2.69,0.017-4.034,0
		C5.362,9.81,5.07,9.801,4.855,9.566z"/>
	<path id="XMLID_17_" style="fill:#83BD39;" d="M4.855,9.566c1.871,0.069,3.742,0.07,5.613,0c1.669,0.015,3.338,0.039,5.007,0.042
		C19.26,9.614,23.044,9.618,26.828,9.6c0.544-0.003,0.738,0.071,0.565,0.684c-0.305,1.076-0.575,2.171-0.736,3.276
		c-0.115,0.785-0.476,0.91-1.187,0.905c-5.063-0.031-10.126-0.017-15.189-0.015c-0.312,0-0.625,0.021-0.937,0.033
		c-0.178,0.12-0.377,0.178-0.59,0.181c-1.484,0.023-2.969,0.023-4.453,0c-0.211-0.003-0.414-0.048-0.588-0.181
		c-1.095-0.011-2.191-0.033-3.286-0.029c-0.375,0.002-0.496-0.068-0.392-0.487c0.322-1.289,0.6-2.589,0.878-3.888
		c0.082-0.382,0.285-0.482,0.658-0.479C2.666,9.61,3.761,9.58,4.855,9.566z"/>
	<path id="XMLID_16_" style="fill:#162F57;" d="M3.713,14.483c1.877,0,3.754,0,5.631,0c-0.317,1.396-0.631,2.793-0.952,4.188
		c-0.066,0.289-0.054,0.615-0.529,0.609c-1.718-0.022-3.436-0.009-5.21-0.009C3.016,17.631,3.365,16.057,3.713,14.483z"/>
</g>
</svg>
