<svg id="Layer_5" data-name="Layer 5" 
    xmlns="http://www.w3.org/2000/svg" viewBox="0 0 50 50">
    <title>機台群組ICON</title>
    <path d="M14.37,26.43h8.34V40.1H14.37V26.43Zm0-8.53h8.34v6.88H14.37V17.9Zm0-8.43h8.34v6.88H14.37V9.47Zm12.93,17h8.34V40.1H27.29V26.43h0Zm0-8.53h8.34v6.88H27.29V17.9h0Zm0-8.43h8.34v6.88H27.29V9.47h0Zm-3.41.1h2.23V40.2H23.89V9.57ZM11.46,45H38.54a1.1,1.1,0,0,0,1.1-1.1V5.77a1.1,1.1,0,0,0-1.1-1.1H11.46a1.1,1.1,0,0,0-1.1,1.1V43.9A1.1,1.1,0,0,0,11.46,45Zm0.8-36.76a1,1,0,0,1,1-1H36.78a1,1,0,0,1,1,1V41.43a1,1,0,0,1-1,1H13.22a1,1,0,0,1-1-1V8.24h0Z" fill="#9B9B9B" />
</svg>