<svg id="圖層_1" data-name="圖層 1" xmlns="http://www.w3.org/2000/svg" viewBox="0 0 171.60225 500"><defs><style>.cls-1{fill:#ffc335;}.cls-2{fill:#666;}</style></defs><title>robot</title>
<path class="cls-1" d="M435.386,528.37262V492.89648H335.42157v35.47614a11.11925,11.11925,0,0,0,11.11921,11.11921h77.726A11.11928,11.11928,0,0,0,435.386,528.37262" transform="translate(-335.42157 -48.08496)"/>
<path class="cls-1" d="M435.386,419.186v70.221H335.42157V419.186a12.91164,12.91164,0,0,1,12.91168-12.91172h74.14108A12.91167,12.91167,0,0,1,435.386,419.186" transform="translate(-335.42157 -48.08496)"/>
<rect class="cls-1" x="103.45358" y="368.28345" width="13.95808" height="96.43886"/>
<path class="cls-1" d="M507.02383,323.68807V542.1547a5.93014,5.93014,0,0,1-5.92989,5.93026H461.75187a5.93012,5.93012,0,0,1-5.92984-5.93026V323.68807a5.92954,5.92954,0,0,1,5.92984-5.92988h39.34207a5.92956,5.92956,0,0,1,5.92989,5.92988" transform="translate(-335.42157 -48.08496)"/>
<path class="cls-1" d="M437.27309,309.59407l15.56014,13.54754v78.41157H387.764s-6.56851.20527-8.4159-6.158-11.49489-33.86887-11.49489-33.86887-1.8474-2.25752,0-5.95271l12.11068-41.04435s2.05266-5.34573,8.82643-4.9352,48.48281,0,48.48281,0" transform="translate(-335.42157 -48.08496)"/>
<polygon class="cls-1" points="49.88 257.814 100.17 257.814 100.17 143.481 55.627 143.481 49.88 257.814"/>
<polygon class="cls-2" points="60.479 139.991 95.243 139.991 95.243 94.012 87.443 94.012 87.443 129.317 68.354 129.317 68.354 94.012 60.479 94.012 60.479 139.991"/>
<polygon class="cls-2" points="71.565 111.459 83.748 111.459 83.748 91.022 87.58 91.022 87.58 83.68 68.285 83.68 68.285 91.022 71.565 91.022 71.565 111.459"/>
<path class="cls-2" d="M427.74346,108.29641h-27.668a8.166,8.166,0,0,1-8.16572-8.16572V50.8629a2.77753,2.77753,0,0,0-2.7779-2.77794h-8.34652v69.70541a4.19063,4.19063,0,0,0,4.1907,4.1903h23.10966V128.036h10.36592v-6.05534h24.39174a4.19029,4.19029,0,0,0,4.1903-4.1903V48.085h-8.34652a2.77748,2.77748,0,0,0-2.77753,2.77794v49.26779a8.16627,8.16627,0,0,1-8.16614,8.16572" transform="translate(-335.42157 -48.08496)"/></svg>